{"glyphs":{"0":{"ha":822,"x_min":49,"x_max":779,"o":"m 49 394 q 65 569 49 476 q 122 740 82 661 q 230 869 163 818 q 399 921 297 921 q 567 877 496 921 q 686 763 639 833 q 756 607 733 693 q 779 435 779 521 q 757 248 779 339 q 687 87 735 157 q 563 -26 639 17 q 376 -68 486 -68 q 213 -27 276 -68 q 113 80 149 14 q 63 228 76 146 q 49 394 49 311 m 397 761 q 356 742 374 761 q 323 692 338 722 q 299 624 308 661 q 282 549 289 586 q 272 482 275 513 q 269 433 269 451 q 270 394 269 419 q 274 345 271 369 q 283 303 276 321 q 300 285 289 285 q 324 313 310 285 q 353 385 338 342 q 384 482 368 429 q 413 584 400 535 q 433 673 425 633 q 440 729 440 713 q 428 757 440 753 q 397 761 417 761 m 550 617 q 536 606 542 617 q 528 589 531 596 q 507 538 521 572 q 477 460 493 503 q 445 372 461 418 q 416 283 429 325 q 394 208 403 240 q 386 160 386 175 q 391 131 386 147 q 413 114 396 114 q 468 133 443 114 q 513 182 493 151 q 547 251 533 213 q 571 328 561 290 q 585 401 581 367 q 590 460 590 436 q 588 494 590 468 q 581 547 586 519 q 568 595 575 574 q 550 617 561 617 z "},"1":{"ha":557,"x_min":6,"x_max":535,"o":"m 300 913 q 360 897 336 913 q 397 858 383 882 q 417 803 411 833 q 422 743 422 774 q 407 509 422 625 q 392 276 392 393 q 392 239 392 264 q 397 188 393 214 q 412 144 401 163 q 442 125 422 125 q 509 102 483 125 q 535 38 535 79 q 509 -18 535 3 q 448 -49 483 -39 q 374 -62 413 -60 q 311 -65 336 -65 q 255 -65 290 -65 q 182 -62 219 -64 q 111 -56 144 -60 q 60 -46 78 -53 q 22 -18 32 -35 q 11 28 11 -1 q 29 91 11 67 q 88 115 47 115 q 150 153 128 115 q 183 240 172 190 q 197 341 194 290 q 199 417 199 392 q 198 460 199 428 q 194 526 197 492 q 185 588 192 561 q 167 615 179 615 q 154 602 160 615 q 138 574 149 589 q 110 545 128 558 q 61 532 92 532 q 36 542 47 532 q 19 568 25 553 q 9 600 13 583 q 6 628 6 617 q 33 727 6 676 q 105 819 61 778 q 201 886 149 860 q 300 913 253 913 z "},"2":{"ha":749,"x_min":31,"x_max":721,"o":"m 403 919 q 525 898 468 919 q 624 838 582 876 q 692 745 667 800 q 717 624 717 690 q 690 502 717 553 q 621 415 663 451 q 532 352 579 378 q 443 305 485 326 q 374 263 401 283 q 347 218 347 243 q 355 190 347 203 q 375 167 363 176 q 403 153 388 158 q 432 149 418 149 q 488 157 461 149 q 537 175 514 165 q 578 193 560 185 q 611 201 597 201 q 660 190 639 201 q 694 160 681 179 q 715 117 708 142 q 721 68 721 93 q 688 -11 721 17 q 606 -52 654 -39 q 506 -67 558 -65 q 415 -69 453 -69 q 304 -65 369 -69 q 178 -44 239 -61 q 74 10 117 -26 q 31 110 31 46 q 63 222 31 172 q 144 313 96 271 q 251 392 193 356 q 357 463 308 428 q 438 533 406 497 q 471 608 471 568 q 452 673 471 644 q 393 701 433 701 q 334 683 361 701 q 280 642 307 664 q 225 602 253 621 q 165 583 197 583 q 72 619 100 583 q 44 717 44 654 q 70 820 44 781 q 138 882 96 860 q 231 912 179 904 q 336 919 283 919 l 403 919 z "},"3":{"ha":760,"x_min":22,"x_max":754,"o":"m 481 674 q 457 722 481 710 q 401 735 433 735 q 334 715 361 735 q 282 670 307 694 q 229 626 257 646 q 161 606 201 606 q 81 639 114 606 q 49 719 49 672 q 87 826 49 786 q 180 886 125 865 q 297 913 235 907 q 408 919 360 919 q 525 912 464 919 q 637 880 586 904 q 721 813 688 856 q 754 699 754 769 q 738 618 754 657 q 700 546 721 579 q 663 487 679 513 q 646 446 646 461 q 662 417 646 432 q 697 382 678 401 q 733 335 717 363 q 749 268 749 308 q 718 122 749 185 q 635 17 688 60 q 514 -48 583 -26 q 367 -69 444 -69 q 288 -66 326 -69 q 215 -51 250 -62 q 147 -18 179 -39 q 90 36 115 3 q 44 114 65 71 q 22 201 22 157 q 47 276 22 243 q 117 308 72 308 q 194 288 168 308 q 242 244 221 268 q 286 199 263 219 q 354 179 310 179 q 426 204 394 179 q 458 271 458 229 q 440 333 458 315 q 394 358 422 351 q 335 365 367 364 q 276 373 304 365 q 231 402 249 381 q 213 471 213 424 q 247 545 213 525 q 331 565 282 565 q 378 573 353 565 q 427 594 404 581 q 465 628 450 608 q 481 674 481 649 z "},"4":{"ha":728,"x_min":6,"x_max":743,"o":"m 532 915 q 596 904 572 915 q 631 873 619 893 q 646 824 643 853 q 649 760 649 796 q 640 588 649 672 q 631 415 631 503 q 633 390 631 404 q 640 361 635 375 q 655 338 646 347 q 678 329 664 329 q 708 317 696 329 q 728 289 721 306 q 740 253 736 272 q 743 221 743 235 q 727 163 743 179 q 692 140 711 147 q 656 127 672 133 q 640 99 640 121 q 645 61 640 79 q 650 24 650 43 q 610 -67 650 -37 q 514 -96 571 -96 q 468 -91 493 -96 q 422 -74 443 -86 q 385 -44 400 -62 q 369 -1 369 -26 q 375 28 369 14 q 387 57 381 43 q 399 84 393 71 q 404 110 404 97 q 397 134 404 125 q 377 148 389 143 q 352 155 365 153 q 328 157 339 157 q 288 153 307 157 q 249 143 268 149 l 210 132 q 171 122 190 126 q 131 118 151 118 q 90 124 113 118 q 49 141 68 129 q 18 169 31 153 q 6 208 6 186 q 24 281 6 235 q 72 382 43 326 q 138 498 101 438 q 210 614 175 558 q 277 715 246 669 q 326 786 308 760 q 413 878 367 842 q 532 915 460 915 m 282 338 q 298 335 283 336 q 331 335 313 335 q 366 335 349 335 q 389 335 383 335 q 406 344 404 335 q 410 365 408 353 q 412 400 413 383 q 411 435 411 417 q 411 456 411 442 q 411 487 411 471 q 410 516 411 503 q 407 533 410 529 q 393 517 400 533 q 383 496 386 501 q 360 457 376 481 q 328 410 344 433 q 298 366 311 386 q 282 338 285 346 z "},"5":{"ha":740,"x_min":40,"x_max":696,"o":"m 40 619 q 56 781 40 717 q 111 883 72 844 q 215 937 150 921 q 376 953 279 953 q 452 949 403 953 q 551 931 501 944 q 636 893 600 917 q 672 829 672 869 q 646 726 672 763 q 547 690 619 690 q 511 699 531 690 q 471 719 492 708 q 430 740 450 731 q 394 749 410 749 q 312 727 346 749 q 278 653 278 706 q 288 611 278 625 q 328 597 299 597 q 366 602 347 597 q 404 607 385 607 q 624 524 553 607 q 696 300 696 442 q 670 151 696 222 q 597 27 644 81 q 483 -58 550 -26 q 336 -90 417 -90 q 124 -21 200 -90 q 49 188 49 49 q 53 232 49 210 q 69 272 58 254 q 99 300 81 289 q 142 311 117 311 q 217 294 188 311 q 268 255 246 276 q 312 216 290 233 q 364 199 333 199 q 440 221 421 199 q 460 301 460 243 q 456 351 460 326 q 440 396 451 376 q 410 427 429 415 q 360 439 390 439 q 303 431 331 439 q 252 413 276 422 q 205 394 228 403 q 158 386 182 386 q 97 412 119 386 q 61 474 74 438 q 44 551 49 511 q 40 619 40 590 z "},"6":{"ha":744,"x_min":22,"x_max":733,"o":"m 407 917 q 478 909 436 917 q 559 884 519 901 q 626 840 599 867 q 654 776 654 814 q 623 710 654 732 q 550 689 592 689 q 507 694 528 689 q 465 706 486 700 q 423 718 444 713 q 379 724 401 724 q 346 715 360 724 q 324 691 332 706 q 311 658 315 676 q 307 624 307 640 q 324 601 307 608 q 367 590 340 593 q 429 587 394 588 q 499 582 464 586 q 568 569 535 578 q 625 540 601 560 q 675 483 654 517 q 708 410 696 449 q 727 332 721 372 q 733 256 733 292 q 703 91 733 156 q 620 -11 674 26 q 493 -63 567 -49 q 331 -78 419 -78 q 203 -60 256 -78 q 117 -6 151 -42 q 65 82 83 29 q 36 206 46 135 q 24 333 26 269 q 22 461 22 397 q 49 625 22 543 q 124 772 75 707 q 245 876 174 836 q 407 917 317 917 m 293 296 q 299 252 293 274 q 316 214 304 231 q 346 187 328 197 q 389 176 364 176 q 431 188 414 176 q 459 218 449 200 q 474 258 469 236 q 478 301 478 281 q 463 375 478 343 q 397 407 447 407 q 320 376 347 407 q 293 296 293 344 z "},"7":{"ha":633,"x_min":33,"x_max":644,"o":"m 125 919 q 185 915 156 919 q 244 911 214 911 q 347 919 296 911 q 449 928 397 928 q 515 922 481 928 q 578 900 549 915 q 626 860 607 885 q 644 796 644 835 q 635 714 644 768 q 609 592 625 660 q 573 451 593 525 q 532 311 553 378 q 492 192 511 244 q 461 113 474 139 q 428 56 447 83 q 385 6 408 28 q 332 -31 361 -17 q 267 -44 303 -44 q 165 -12 204 -44 q 126 86 126 21 q 146 194 126 139 q 194 303 165 249 q 257 408 224 357 q 319 505 290 460 q 368 588 349 550 q 388 651 388 625 q 363 694 388 683 q 311 704 338 704 q 219 692 264 704 q 128 681 175 681 q 85 694 103 681 q 55 728 67 708 q 38 773 43 749 q 33 818 33 797 q 53 894 33 869 q 125 919 72 919 z "},"8":{"ha":753,"x_min":26,"x_max":747,"o":"m 399 917 q 514 903 457 917 q 615 860 571 890 q 688 783 660 831 q 715 669 715 736 q 699 581 715 617 q 661 520 682 544 q 624 481 640 496 q 607 457 607 467 q 629 428 607 446 q 677 382 651 411 q 725 310 703 353 q 747 207 747 268 q 712 74 747 128 q 620 -14 676 19 q 494 -62 564 -47 q 358 -76 425 -76 q 241 -65 300 -76 q 134 -26 182 -54 q 56 48 86 1 q 26 164 26 94 q 39 244 26 207 q 66 315 51 282 q 93 378 81 349 q 106 438 106 408 q 98 486 106 463 q 81 535 90 510 q 63 588 71 561 q 56 646 56 615 q 85 768 56 717 q 165 853 115 819 q 275 901 214 886 q 399 917 336 917 m 392 715 q 327 697 358 715 q 296 640 296 679 q 325 588 296 603 q 386 572 354 572 q 419 576 403 572 q 450 589 436 581 q 473 611 464 597 q 482 644 482 625 q 453 699 482 682 q 392 715 424 715 m 496 243 q 482 281 496 263 q 447 313 468 299 q 403 334 426 326 q 364 342 381 342 q 299 312 322 342 q 276 243 276 282 q 284 208 276 221 q 304 188 292 194 q 333 178 317 181 q 368 176 350 176 q 405 179 383 176 q 447 190 426 182 q 481 210 467 197 q 496 243 496 222 z "},"9":{"ha":757,"x_min":36,"x_max":725,"o":"m 303 -78 q 212 -66 257 -78 q 131 -30 167 -54 q 72 33 94 -6 q 50 122 50 71 q 55 165 50 144 q 72 203 60 186 q 101 229 83 219 q 143 239 118 239 q 185 233 164 239 q 226 221 206 228 q 266 208 246 214 q 307 203 286 203 q 338 204 318 203 q 378 211 358 206 q 414 226 399 217 q 429 251 429 235 q 411 288 429 276 q 369 303 393 300 q 318 307 344 307 q 275 308 292 307 q 100 401 164 328 q 36 590 36 474 q 60 729 36 668 q 127 832 83 790 q 233 895 171 874 q 372 917 296 917 q 547 878 478 917 q 655 774 615 839 q 710 624 694 708 q 725 449 725 539 q 698 263 725 357 q 617 94 671 169 q 485 -30 564 18 q 303 -78 407 -78 m 458 606 q 453 647 458 626 q 435 685 447 668 q 406 712 424 701 q 364 722 388 722 q 322 710 339 722 q 294 681 304 699 q 278 640 283 663 q 274 596 274 617 q 290 523 274 554 q 356 492 307 492 q 432 524 406 492 q 458 606 458 557 z "},"\u0000":{"ha":0,"x_min":0,"x_max":0,"o":""},"\r":{"ha":347,"x_min":0,"x_max":0,"o":""}," ":{"ha":394,"x_min":0,"x_max":0,"o":""},"!":{"ha":438,"x_min":50,"x_max":360,"o":"m 200 944 q 246 942 225 944 q 282 931 267 939 q 309 906 297 922 q 329 864 321 890 q 347 787 340 828 q 356 703 353 746 q 359 617 358 660 q 360 538 360 575 q 358 449 360 504 q 343 341 356 394 q 305 249 331 288 q 231 210 279 210 q 196 213 214 210 q 160 222 178 215 q 127 238 142 228 q 103 263 113 249 q 76 322 86 286 q 60 398 67 358 q 52 476 54 438 q 50 543 50 514 q 53 625 50 579 q 63 719 56 671 q 81 810 69 767 q 108 886 92 854 q 144 931 124 918 q 200 944 164 944 m 81 64 q 117 146 81 117 q 203 175 153 175 q 289 149 251 175 q 326 69 326 122 q 316 24 326 44 q 289 -10 306 4 q 250 -33 272 -25 q 204 -42 228 -42 q 119 -15 157 -42 q 81 64 81 13 z "},"\"":{"ha":568,"x_min":33,"x_max":544,"o":"m 176 997 q 231 987 211 997 q 261 958 251 976 q 274 915 271 940 q 276 860 276 889 q 272 797 276 838 q 257 716 268 756 q 224 647 246 676 q 169 618 203 618 q 110 644 136 618 q 67 708 85 671 q 42 783 50 744 q 33 849 33 822 q 68 959 33 921 q 176 997 103 997 m 444 997 q 499 987 479 997 q 529 958 519 976 q 542 915 539 940 q 544 860 544 889 q 540 797 544 838 q 525 716 536 756 q 492 647 514 676 q 438 618 471 618 q 381 640 404 618 q 345 694 358 663 q 326 760 332 725 q 321 819 321 794 q 326 883 321 851 q 344 940 331 914 q 382 981 358 965 q 444 997 406 997 z "},"#":{"ha":896,"x_min":8,"x_max":900,"o":"m 143 158 q 103 172 126 167 q 58 185 79 176 q 23 208 38 193 q 8 249 8 222 q 22 304 8 285 q 57 333 36 324 q 103 348 78 343 q 149 357 128 353 q 183 369 169 361 q 197 397 197 378 q 176 437 197 428 q 130 452 156 446 q 83 473 104 458 q 63 529 63 488 q 85 603 63 588 q 163 618 108 618 q 192 619 178 618 q 219 628 206 621 q 251 658 242 639 q 264 702 260 678 q 270 751 268 726 q 279 797 272 776 q 303 831 286 818 q 351 844 319 844 q 397 841 372 844 q 440 828 421 838 q 473 803 460 819 q 486 758 486 786 q 483 717 486 738 q 479 676 479 697 q 485 635 479 653 l 497 633 q 536 664 524 642 q 556 714 549 686 q 567 772 563 742 q 579 828 571 803 q 603 869 588 853 q 650 885 619 885 q 686 881 667 885 q 722 869 706 878 q 750 847 739 861 q 761 813 761 833 q 749 748 761 779 q 736 683 736 717 q 762 640 736 651 q 818 621 788 629 q 874 599 849 613 q 900 550 900 586 q 884 497 900 517 q 844 465 868 476 q 793 449 821 454 q 742 440 765 444 q 702 430 718 436 q 686 410 686 424 q 704 372 686 383 q 747 353 722 360 q 797 340 772 347 q 836 314 822 333 q 853 285 846 301 q 861 253 861 269 q 836 205 861 219 q 778 184 811 190 q 714 175 746 178 q 668 164 682 172 q 640 119 646 149 q 627 58 633 89 q 606 6 621 28 q 549 -17 590 -17 q 451 15 475 -17 q 426 114 426 46 q 422 148 426 131 q 403 165 418 165 q 369 152 381 165 q 353 119 358 139 q 341 77 347 100 q 322 35 335 54 q 283 2 308 15 q 211 -11 257 -11 q 152 0 175 -11 q 129 53 129 11 q 135 106 129 81 q 143 158 142 131 m 396 385 q 405 350 396 364 q 438 336 414 336 q 488 361 471 336 q 504 417 504 386 q 495 451 504 438 q 463 465 486 465 q 413 440 429 465 q 396 385 396 415 z "},"$":{"ha":806,"x_min":56,"x_max":779,"o":"m 404 1038 q 428 1035 414 1038 q 455 1028 442 1032 q 481 1017 468 1024 q 500 1004 493 1011 q 510 985 507 996 q 515 963 513 975 q 523 937 518 950 q 540 908 528 924 q 594 869 564 881 q 652 844 625 858 q 697 803 679 829 q 715 719 715 776 q 710 674 715 697 q 694 631 706 650 q 665 599 683 611 q 619 588 647 588 q 576 601 590 588 q 553 637 561 615 q 538 683 544 658 q 521 730 532 708 q 490 765 510 751 q 432 779 469 779 q 352 753 386 779 q 318 679 318 728 q 352 604 318 633 q 438 550 386 575 q 549 499 489 525 q 660 435 608 474 q 745 342 711 397 q 779 203 779 286 q 764 116 779 150 q 724 60 749 82 q 671 27 700 39 q 614 4 642 15 q 563 -20 586 -7 q 528 -57 540 -33 q 519 -83 522 -69 q 514 -108 517 -96 q 506 -132 511 -121 q 489 -153 501 -143 q 453 -171 475 -164 q 415 -178 432 -178 q 377 -159 388 -178 q 360 -119 367 -140 q 341 -78 353 -97 q 297 -60 329 -60 q 250 -51 275 -60 q 201 -30 225 -43 q 155 -1 176 -17 q 118 29 133 15 q 74 90 88 58 q 61 165 61 122 q 65 212 61 189 q 81 253 69 235 q 110 282 92 271 q 156 293 128 293 q 232 271 197 293 q 299 222 267 249 q 366 172 332 194 q 439 149 400 149 q 485 163 467 149 q 504 207 504 178 q 502 217 504 211 q 497 226 500 224 q 435 296 476 268 q 344 347 393 324 q 244 394 296 371 q 151 449 193 417 q 83 525 110 481 q 56 636 56 569 q 73 747 56 703 q 117 818 90 790 q 175 863 144 846 q 233 892 206 879 q 277 919 260 906 q 294 954 294 932 q 306 988 294 972 q 333 1014 317 1003 q 369 1031 350 1025 q 404 1038 389 1038 z "},"%":{"ha":1331,"x_min":35,"x_max":1296,"o":"m 1040 382 q 1008 365 1021 382 q 988 326 996 349 q 978 280 981 303 q 975 243 975 257 q 978 208 975 231 q 988 163 981 185 q 1007 124 994 140 q 1038 107 1019 107 q 1069 124 1057 107 q 1088 166 1081 142 q 1099 215 1096 190 q 1101 251 1101 239 q 1099 286 1101 264 q 1090 330 1096 308 q 1072 367 1083 351 q 1040 382 1060 382 m 224 625 q 226 592 224 613 q 236 550 229 571 q 255 514 243 529 q 283 499 267 499 q 313 516 301 499 q 333 556 325 533 q 343 603 340 579 q 346 639 346 626 q 344 671 346 650 q 335 713 342 692 q 318 749 329 733 q 290 764 307 764 q 260 747 272 764 q 239 708 247 731 q 227 661 231 685 q 224 625 224 638 m 35 571 q 51 695 35 632 q 100 810 67 758 q 185 894 133 861 q 307 926 236 926 q 413 900 369 926 q 485 831 457 874 q 525 735 513 788 q 538 628 538 682 q 467 416 538 489 q 257 343 396 343 q 87 399 139 343 q 35 571 35 454 m 310 36 q 331 133 310 79 q 388 249 353 188 q 466 372 422 310 q 553 494 510 435 q 635 604 596 553 q 699 692 674 656 q 744 759 718 719 q 803 835 771 799 q 871 896 835 871 q 946 921 907 921 q 960 922 953 921 q 975 922 968 922 q 1003 919 988 922 q 1031 908 1018 915 q 1052 889 1043 900 q 1061 863 1061 878 q 1042 801 1061 842 q 992 710 1022 761 q 926 603 963 660 q 853 496 889 547 q 789 403 818 444 q 744 338 760 361 q 704 274 728 313 q 651 191 681 235 q 590 104 622 147 q 522 26 557 61 q 453 -31 488 -10 q 385 -53 418 -53 q 328 -26 346 -53 q 310 36 310 0 m 1076 535 q 1173 513 1132 535 q 1241 456 1214 492 q 1282 372 1268 419 q 1296 275 1296 325 q 1276 154 1296 215 q 1220 43 1257 93 q 1131 -38 1183 -7 q 1013 -69 1079 -69 q 918 -46 957 -69 q 855 15 879 -22 q 819 101 831 53 q 808 196 808 149 q 825 316 808 256 q 875 425 842 376 q 958 504 908 474 q 1076 535 1008 535 z "},"&":{"ha":933,"x_min":14,"x_max":918,"o":"m 624 -39 q 561 -77 599 -60 q 483 -108 524 -94 q 401 -128 442 -121 q 328 -136 361 -136 q 206 -117 263 -136 q 106 -62 149 -99 q 38 27 63 -26 q 14 149 14 81 q 30 246 14 211 q 65 305 46 281 q 99 352 83 329 q 114 414 114 375 q 101 476 114 447 q 72 535 88 504 q 44 603 57 567 q 31 690 31 640 q 74 806 31 757 q 179 887 117 856 q 312 933 242 918 q 436 949 382 949 q 519 931 474 949 q 603 883 564 913 q 670 815 643 853 q 697 736 697 776 q 686 690 697 713 q 657 649 675 667 q 615 621 639 632 q 568 610 592 610 q 510 629 535 610 q 461 672 485 649 q 411 715 438 696 q 349 735 385 735 q 300 716 315 735 q 285 665 285 697 q 297 604 285 640 q 328 530 308 568 q 374 454 347 492 q 429 387 400 417 q 489 339 458 357 q 549 321 519 321 q 571 325 557 321 q 597 336 585 329 q 619 352 610 343 q 628 372 628 361 l 628 381 q 588 378 608 381 q 547 376 567 376 q 480 398 504 376 q 456 464 456 419 q 483 541 456 508 q 557 574 510 574 q 654 582 606 574 q 751 590 703 590 q 808 586 779 590 q 862 570 838 582 q 902 537 886 558 q 918 482 918 515 q 897 421 918 439 q 836 403 875 403 q 819 340 832 371 q 794 279 807 310 q 772 218 782 249 q 761 156 761 188 q 778 95 761 117 q 817 58 796 74 q 856 26 839 43 q 874 -21 874 10 q 840 -92 874 -65 q 765 -118 807 -118 q 716 -111 746 -118 q 671 -92 686 -104 q 648 -65 657 -81 q 624 -39 639 -50 m 254 181 q 266 144 254 158 q 295 124 278 131 q 333 116 313 118 q 371 114 354 114 q 390 115 379 114 q 412 117 401 115 q 430 123 422 119 q 438 133 438 126 q 419 164 438 143 q 376 206 400 185 q 329 244 353 228 q 297 261 306 261 q 280 251 288 261 q 267 228 272 242 q 258 201 261 215 q 254 181 254 188 z "},"'":{"ha":296,"x_min":33,"x_max":276,"o":"m 176 997 q 231 987 211 997 q 261 958 251 976 q 274 915 271 940 q 276 860 276 889 q 272 797 276 838 q 257 716 268 756 q 224 647 246 676 q 169 618 203 618 q 110 644 136 618 q 67 708 85 671 q 42 783 50 744 q 33 849 33 822 q 68 959 33 921 q 176 997 103 997 z "},"(":{"ha":444,"x_min":22,"x_max":436,"o":"m 22 415 q 35 587 22 506 q 89 750 47 668 q 127 824 106 783 q 177 900 149 864 q 240 960 206 936 q 318 985 275 985 q 372 968 350 985 q 394 917 394 951 q 372 828 394 879 q 323 716 350 776 q 274 587 296 656 q 251 446 251 518 q 260 332 251 397 q 285 199 269 267 q 322 67 301 131 q 368 -42 343 3 q 385 -65 374 -50 q 408 -97 396 -81 q 428 -128 419 -112 q 436 -151 436 -143 q 425 -183 436 -169 q 399 -204 414 -196 q 365 -217 383 -212 q 332 -221 347 -221 q 262 -202 294 -221 q 203 -156 229 -183 q 156 -94 176 -128 q 119 -31 135 -60 q 43 186 64 76 q 22 415 22 296 z "},")":{"ha":458,"x_min":22,"x_max":436,"o":"m 436 415 q 415 186 436 296 q 339 -31 394 76 q 303 -94 324 -60 q 256 -156 282 -128 q 197 -202 229 -183 q 126 -221 164 -221 q 94 -217 113 -221 q 60 -204 75 -212 q 33 -183 44 -196 q 22 -151 22 -169 q 31 -128 22 -143 q 51 -97 40 -112 q 74 -65 63 -81 q 90 -42 85 -50 q 136 67 115 3 q 173 199 157 131 q 198 332 189 267 q 207 446 207 397 q 185 587 207 518 q 135 716 163 656 q 86 828 108 776 q 64 917 64 879 q 86 968 64 951 q 140 985 108 985 q 218 960 183 985 q 281 900 253 936 q 331 824 310 864 q 369 750 353 783 q 424 587 411 668 q 436 415 436 506 z "},"*":{"ha":657,"x_min":86,"x_max":583,"o":"m 244 825 q 252 863 253 844 q 256 894 251 881 q 275 917 260 908 q 329 925 290 925 q 379 918 357 925 q 401 878 401 911 q 399 849 401 863 q 397 821 397 836 l 397 807 q 437 814 421 807 q 465 828 453 821 q 490 843 478 836 q 515 850 501 850 q 558 834 538 850 q 578 794 578 818 q 563 754 578 768 q 531 733 549 740 q 499 719 514 725 q 485 701 485 713 q 500 686 485 690 q 534 676 515 682 q 568 656 553 669 q 583 611 583 643 q 565 565 583 579 q 517 551 547 551 q 462 558 489 551 q 411 575 435 564 q 398 560 400 571 q 396 538 396 549 q 394 502 396 515 q 387 481 393 489 q 368 471 381 474 q 332 468 356 468 q 272 480 296 468 q 249 532 249 492 q 249 544 249 536 q 250 560 250 551 q 248 577 250 569 q 239 585 246 585 q 221 578 232 585 q 198 565 210 572 q 173 552 186 558 q 149 546 160 546 q 103 570 119 546 q 88 621 88 594 q 94 649 88 638 q 108 669 100 660 q 126 686 117 678 q 144 707 136 694 q 103 738 121 718 q 86 783 86 757 q 108 831 86 813 q 158 849 131 849 q 203 838 185 849 q 244 825 222 826 z "},"+":{"ha":786,"x_min":51,"x_max":729,"o":"m 392 774 q 422 768 404 774 q 455 753 439 763 q 481 731 471 744 q 492 703 492 718 q 488 674 492 688 q 485 646 485 661 q 490 606 485 628 q 508 567 496 585 q 536 537 519 549 q 574 525 553 525 q 602 527 589 525 q 631 529 615 529 q 701 506 672 529 q 729 438 729 482 q 717 394 729 410 q 685 372 704 379 q 641 363 665 364 q 592 360 617 361 q 544 358 567 360 q 506 346 521 356 q 480 301 485 333 q 475 240 475 269 q 473 190 475 211 q 461 156 471 169 q 433 135 451 142 q 382 129 415 129 q 305 151 333 129 q 276 225 276 174 l 276 258 q 272 295 276 278 q 251 326 268 313 q 217 341 238 338 q 174 345 196 344 q 130 347 151 346 q 91 357 108 349 q 63 383 74 365 q 51 436 51 401 q 133 521 51 521 q 173 518 153 521 q 213 515 193 515 q 246 526 232 515 q 269 552 260 536 q 283 586 279 568 q 288 621 288 604 q 283 660 288 640 q 279 699 279 679 q 289 740 279 725 q 314 762 299 754 q 350 772 329 769 q 392 774 371 774 z "},",":{"ha":364,"x_min":19,"x_max":308,"o":"m 160 188 q 265 154 221 188 q 308 56 308 121 q 288 -25 308 15 q 234 -97 267 -65 q 160 -147 201 -128 q 79 -167 119 -167 q 40 -158 60 -167 q 19 -125 19 -149 q 28 -88 19 -107 q 46 -51 36 -69 q 64 -14 56 -32 q 72 21 72 4 q 60 51 72 35 q 47 92 47 67 q 81 164 47 140 q 160 188 115 188 z "},"-":{"ha":621,"x_min":68,"x_max":578,"o":"m 208 472 q 317 470 263 472 q 426 468 372 468 q 472 463 446 468 q 522 448 499 458 q 562 420 546 438 q 578 378 578 403 q 546 317 578 340 q 470 282 514 294 q 382 265 426 269 q 313 261 338 261 q 242 265 283 261 q 161 283 200 269 q 95 321 122 296 q 68 386 68 346 q 82 431 68 414 q 117 457 96 447 q 163 469 138 467 q 208 472 188 472 z "},".":{"ha":432,"x_min":54,"x_max":350,"o":"m 54 39 q 94 142 54 101 q 200 182 135 182 q 307 146 264 182 q 350 46 350 110 q 338 -10 350 17 q 307 -56 326 -36 q 260 -86 288 -75 q 203 -97 233 -97 q 98 -60 142 -97 q 54 39 54 -24 z "},"/":{"ha":550,"x_min":31,"x_max":525,"o":"m 435 924 q 504 895 483 924 q 525 822 525 867 q 514 728 525 788 q 484 599 503 669 q 442 453 465 529 q 395 308 419 378 q 349 181 371 239 q 310 90 326 124 q 281 28 297 64 q 243 -41 264 -8 q 195 -97 222 -74 q 133 -119 168 -119 q 55 -83 79 -119 q 31 1 31 -47 q 42 89 31 36 q 70 204 53 142 q 109 333 88 267 q 153 463 131 400 q 197 577 176 525 q 233 663 218 629 q 265 734 246 690 q 311 820 285 778 q 369 893 338 863 q 435 924 400 924 z "},":":{"ha":428,"x_min":54,"x_max":350,"o":"m 54 769 q 94 872 54 832 q 200 911 135 911 q 307 876 264 911 q 350 775 350 840 q 338 720 350 746 q 307 675 326 694 q 260 644 288 656 q 203 633 233 633 q 145 643 172 633 q 98 670 118 653 q 66 713 78 688 q 54 769 54 739 m 54 39 q 94 142 54 101 q 200 182 135 182 q 307 146 264 182 q 350 46 350 110 q 338 -10 350 17 q 307 -56 326 -36 q 260 -86 288 -75 q 203 -97 233 -97 q 98 -60 142 -97 q 54 39 54 -24 z "},";":{"ha":385,"x_min":33,"x_max":350,"o":"m 54 769 q 95 873 54 835 q 200 911 136 911 q 258 902 231 911 q 306 876 285 893 q 338 833 326 858 q 350 775 350 808 q 338 719 350 744 q 306 674 326 693 q 259 644 286 656 q 203 633 232 633 q 98 669 142 633 q 54 769 54 706 m 174 174 q 278 140 235 174 q 322 42 322 107 q 301 -39 322 1 q 248 -110 281 -79 q 174 -161 215 -142 q 93 -181 133 -181 q 53 -172 74 -181 q 33 -139 33 -162 q 42 -102 33 -121 q 60 -65 50 -83 q 78 -28 69 -46 q 86 7 86 -10 q 74 37 86 21 q 61 78 61 53 q 95 150 61 126 q 174 174 129 174 z "},"<":{"ha":671,"x_min":61,"x_max":628,"o":"m 61 397 q 65 426 61 413 q 93 475 74 456 q 138 510 113 494 q 190 537 163 525 q 240 561 217 549 q 308 593 265 574 q 399 630 351 613 q 490 660 446 647 q 560 672 533 672 q 608 657 588 672 q 628 611 628 642 q 608 549 628 575 q 560 505 589 524 q 499 474 532 486 q 437 451 465 461 q 389 431 408 440 q 369 407 369 421 q 388 388 369 400 q 435 359 407 375 q 497 324 464 343 q 559 283 531 304 q 606 240 588 261 q 625 199 625 218 q 612 171 625 182 q 580 153 599 160 q 541 144 561 147 q 508 142 521 142 q 356 164 431 142 q 214 226 281 186 q 165 258 192 240 q 116 297 139 275 q 77 343 93 318 q 61 397 61 368 z "},"=":{"ha":792,"x_min":104,"x_max":686,"o":"m 347 604 q 430 610 389 604 q 513 617 471 617 q 557 614 528 617 q 615 601 586 611 q 665 575 643 592 q 686 529 686 558 q 665 481 686 501 q 609 448 643 461 q 535 427 575 435 q 456 415 494 419 q 387 410 418 411 q 342 410 356 410 q 277 415 317 410 q 199 433 238 419 q 133 472 161 447 q 106 538 106 497 q 115 578 106 563 q 140 602 125 593 q 172 615 154 611 q 204 618 189 618 q 276 611 240 618 q 347 604 311 604 m 206 390 q 311 381 258 390 q 417 372 364 372 q 493 377 456 372 q 569 382 531 382 q 608 380 589 382 q 644 369 628 378 q 670 343 660 360 q 681 297 681 326 q 669 249 681 268 q 642 219 658 231 q 604 201 625 207 q 564 192 583 196 q 447 177 506 181 q 329 174 388 174 q 261 176 300 174 q 188 190 222 178 q 128 230 153 203 q 104 307 104 257 q 113 353 104 336 q 135 378 121 369 q 168 388 150 386 q 206 390 186 390 z "},">":{"ha":657,"x_min":58,"x_max":617,"o":"m 163 668 q 222 663 190 668 q 288 647 254 657 q 351 626 321 638 q 407 603 382 614 q 469 568 433 590 q 538 517 506 546 q 594 456 571 489 q 617 390 617 424 q 589 346 617 371 q 518 294 561 321 q 422 241 475 267 q 320 195 369 215 q 231 163 271 175 q 171 150 190 150 q 101 172 131 150 q 71 238 71 193 q 88 292 71 271 q 131 329 106 314 q 186 355 156 344 q 242 376 217 365 q 284 399 267 386 q 301 431 301 411 q 283 462 301 450 q 238 483 265 474 q 180 499 211 492 q 122 518 149 507 q 76 547 94 529 q 58 593 58 564 q 68 628 58 614 q 93 652 78 643 q 126 665 108 661 q 163 668 144 668 z "},"?":{"ha":692,"x_min":58,"x_max":646,"o":"m 58 736 q 90 838 58 794 q 170 910 122 881 q 275 953 218 939 q 381 968 332 968 q 486 951 438 968 q 570 902 535 935 q 626 823 606 869 q 646 717 646 776 q 629 649 646 685 q 590 577 613 613 q 543 508 567 542 q 504 444 519 474 q 473 381 488 413 q 447 317 458 350 q 433 272 439 294 q 416 233 426 250 q 389 205 406 215 q 343 194 372 194 q 307 202 326 194 q 272 222 288 210 q 244 251 256 235 q 233 286 233 268 q 254 406 233 353 q 301 503 275 458 q 347 588 326 547 q 368 674 368 629 q 351 694 368 692 q 322 697 333 697 q 285 685 301 697 q 251 659 268 674 q 213 633 233 644 q 165 621 193 621 q 122 631 142 621 q 88 656 103 640 q 66 693 74 672 q 58 736 58 714 m 201 56 q 237 131 201 107 q 319 156 272 156 q 363 151 340 156 q 402 134 385 146 q 431 105 419 122 q 442 63 442 88 q 431 20 442 39 q 402 -11 419 1 q 363 -31 385 -24 q 321 -37 342 -37 q 278 -32 300 -37 q 240 -15 257 -26 q 213 15 224 -3 q 201 56 201 32 z "},"@":{"ha":1304,"x_min":67,"x_max":1274,"o":"m 586 725 q 644 716 617 725 q 701 707 671 707 q 756 711 729 707 q 810 715 782 715 q 920 675 878 715 q 963 564 963 635 q 957 506 963 535 q 944 450 951 478 q 931 394 936 422 q 925 336 925 365 q 928 303 925 321 q 938 269 931 285 q 958 242 946 253 q 990 231 971 231 q 1032 252 1017 231 q 1054 303 1047 274 q 1063 363 1061 332 q 1065 411 1065 393 q 1047 563 1065 493 q 988 683 1028 632 q 886 762 949 733 q 736 790 824 790 q 544 763 631 790 q 395 681 457 736 q 300 543 333 625 q 267 350 267 461 q 276 264 267 310 q 303 176 285 218 q 349 98 321 133 q 415 42 378 63 q 499 17 453 22 q 586 11 544 11 q 700 14 644 11 q 814 17 756 17 q 850 13 831 17 q 885 -1 869 8 q 910 -24 900 -10 q 921 -60 921 -39 q 895 -125 921 -99 q 833 -168 869 -151 q 756 -192 796 -185 q 686 -199 715 -199 q 558 -190 618 -199 q 442 -164 499 -182 q 332 -117 386 -146 q 224 -47 278 -87 q 149 35 179 -14 q 100 140 118 83 q 74 255 82 196 q 67 367 67 314 q 76 494 67 429 q 108 622 86 560 q 166 740 131 685 q 251 836 201 796 q 350 894 296 871 q 463 932 404 918 q 583 952 522 946 q 697 958 643 958 q 941 924 829 958 q 1146 792 1053 889 q 1243 647 1213 722 q 1274 475 1274 571 q 1256 336 1274 411 q 1201 197 1238 261 q 1109 90 1165 133 q 975 47 1053 47 q 943 49 964 47 q 899 54 922 51 q 856 61 876 57 q 826 69 836 65 q 803 86 814 75 q 782 108 793 97 q 760 128 771 119 q 733 136 749 136 q 697 123 715 136 q 653 93 678 110 q 597 63 629 76 q 521 50 565 50 q 436 69 469 50 q 384 121 403 89 q 358 194 365 153 q 350 281 350 236 q 371 444 350 364 q 397 527 379 479 q 443 619 415 575 q 507 694 471 663 q 586 725 543 725 m 579 388 q 586 340 579 361 q 624 318 593 318 q 665 340 646 318 q 698 390 683 361 q 721 449 713 419 q 729 496 729 479 q 719 538 729 517 q 683 560 708 560 q 634 542 654 560 q 602 497 614 524 q 585 440 590 469 q 579 388 579 411 z "},"A":{"ha":844,"x_min":4,"x_max":842,"o":"m 417 915 q 520 899 474 915 q 599 833 567 883 q 633 758 621 797 q 651 676 644 718 q 663 592 657 635 q 678 510 668 550 q 706 430 689 464 q 740 367 722 396 q 776 310 758 338 q 809 249 794 283 q 833 171 824 215 q 842 65 842 126 q 806 -41 842 3 q 703 -85 769 -85 q 632 -68 656 -85 q 595 -26 608 -51 q 572 29 582 0 q 544 84 563 58 q 490 126 525 110 q 392 143 456 143 q 335 126 356 143 q 301 83 314 108 q 280 26 289 57 q 257 -30 271 -4 q 220 -73 243 -56 q 157 -90 197 -90 q 94 -76 122 -90 q 45 -39 65 -62 q 15 15 25 -15 q 4 79 4 46 q 23 169 4 128 q 69 249 42 211 q 126 324 96 288 q 179 399 156 360 q 230 513 217 460 q 249 617 243 567 q 262 717 256 667 q 290 822 268 768 q 338 892 310 868 q 417 915 365 915 m 519 375 q 513 422 519 390 q 499 487 507 453 q 481 552 490 521 q 465 597 472 583 q 460 608 464 600 q 453 615 457 615 q 428 580 443 615 q 401 499 414 544 q 378 412 388 454 q 369 356 369 369 q 377 334 369 343 q 397 320 385 325 q 421 313 408 315 q 443 310 433 310 q 502 320 485 310 q 519 375 519 331 z "},"B":{"ha":751,"x_min":18,"x_max":731,"o":"m 172 911 q 218 901 196 911 q 265 890 240 890 q 310 896 289 890 q 354 909 332 901 q 400 922 376 917 q 450 928 424 928 q 554 909 506 928 q 639 857 603 890 q 696 776 675 824 q 717 672 717 729 q 696 564 717 608 q 649 489 675 519 q 603 440 624 458 q 582 407 582 421 q 605 372 582 389 q 656 333 628 356 q 708 275 685 310 q 731 186 731 240 q 690 58 731 111 q 589 -28 650 6 q 456 -76 528 -61 q 322 -90 385 -90 q 218 -80 272 -90 q 119 -45 164 -69 q 47 20 75 -21 q 18 122 18 61 q 26 197 18 160 q 45 270 35 233 q 64 344 56 307 q 72 418 72 381 q 59 563 72 492 q 46 707 46 633 q 50 775 46 739 q 68 841 54 811 q 106 891 82 871 q 172 911 131 911 m 469 614 q 445 689 469 663 q 372 715 421 715 q 319 703 339 715 q 289 672 300 692 q 274 627 278 653 q 271 574 271 601 q 286 505 271 532 q 349 478 301 478 q 438 518 407 478 q 469 614 469 558 m 346 294 q 286 265 306 294 q 267 199 267 235 q 282 139 267 167 q 333 111 297 111 q 378 116 356 111 q 421 131 401 121 q 453 160 440 142 q 465 204 465 178 q 455 247 465 229 q 428 274 444 264 q 390 290 411 285 q 346 294 368 294 z "},"C":{"ha":756,"x_min":32,"x_max":747,"o":"m 32 363 q 53 555 32 457 q 123 734 75 653 q 248 867 171 815 q 436 918 325 918 q 535 906 485 918 q 627 867 586 893 q 694 801 668 842 q 721 703 721 760 q 717 649 721 674 q 701 607 713 625 q 669 579 689 589 q 615 569 649 569 q 575 573 594 569 q 540 585 556 576 q 516 610 525 594 q 507 649 507 625 q 499 683 507 667 q 477 713 490 700 q 447 735 464 726 q 411 743 429 743 q 379 735 394 743 q 351 715 364 726 q 305 653 324 690 q 276 576 286 617 q 261 493 265 535 q 257 415 257 451 q 264 343 257 382 q 288 272 271 304 q 333 219 304 240 q 403 197 361 197 q 458 216 433 197 q 507 256 482 235 q 563 297 532 278 q 638 315 594 315 q 680 305 660 315 q 715 278 700 294 q 738 240 729 261 q 747 197 747 218 q 716 69 747 122 q 634 -20 685 15 q 519 -72 583 -56 q 390 -89 456 -89 q 212 -54 282 -89 q 102 41 142 -19 q 47 184 63 101 q 32 363 32 267 z "},"D":{"ha":746,"x_min":14,"x_max":714,"o":"m 29 794 q 46 871 29 844 q 90 908 63 897 q 155 919 118 918 q 232 919 192 919 q 443 873 353 919 q 594 749 533 826 q 684 569 654 671 q 714 356 714 467 q 678 172 714 251 q 581 37 643 92 q 434 -47 519 -18 q 249 -75 349 -75 q 160 -70 203 -75 q 85 -48 117 -65 q 33 3 53 -31 q 14 92 14 36 q 22 181 14 138 q 39 269 29 225 q 56 357 49 313 q 64 446 64 401 q 58 525 64 486 q 44 604 51 564 q 33 699 38 651 q 29 794 29 746 m 339 682 q 297 663 307 682 q 279 617 286 643 q 265 518 268 569 q 263 418 263 467 q 264 353 263 386 q 268 289 265 321 q 271 252 269 272 q 277 213 272 232 q 294 182 282 194 q 329 169 307 169 q 402 193 374 169 q 447 252 431 217 q 468 328 463 288 q 474 404 474 369 q 468 481 474 433 q 447 572 463 528 q 406 649 432 617 q 339 682 379 682 z "},"E":{"ha":675,"x_min":14,"x_max":657,"o":"m 657 75 q 626 -3 657 25 q 550 -47 594 -32 q 457 -65 506 -61 q 372 -68 408 -68 q 235 -62 300 -68 q 122 -33 171 -57 q 43 41 72 -8 q 14 176 14 90 q 23 261 14 219 q 43 343 32 303 q 63 424 54 383 q 72 508 72 465 q 67 572 72 540 q 54 636 61 604 q 42 700 47 668 q 36 764 36 732 q 41 825 36 797 q 60 873 46 853 q 97 904 74 893 q 157 915 119 915 q 213 913 185 915 q 269 911 242 911 q 346 913 308 911 q 422 915 383 915 q 488 913 453 915 q 554 898 524 910 q 605 863 585 886 q 625 800 625 840 q 619 742 625 769 q 600 692 614 714 q 563 658 586 671 q 506 646 540 646 q 463 653 483 646 q 421 667 442 660 q 379 682 400 675 q 336 689 358 689 q 299 679 313 689 q 277 654 285 669 q 267 619 269 639 q 265 581 265 600 q 272 536 265 551 q 290 515 278 521 q 322 510 303 510 q 367 510 342 510 q 422 512 394 510 q 478 514 450 514 q 515 513 496 514 q 551 504 535 511 q 577 484 567 497 q 588 447 588 471 q 571 398 588 417 q 530 369 554 379 q 478 357 506 360 q 426 354 450 354 q 388 356 407 354 q 353 358 369 358 q 301 344 321 358 q 281 282 281 331 q 301 199 281 231 q 379 168 322 168 q 459 181 419 168 q 539 194 499 194 q 624 160 592 194 q 657 75 657 126 z "},"F":{"ha":606,"x_min":17,"x_max":599,"o":"m 335 321 q 305 305 311 321 q 299 269 299 289 q 310 164 299 217 q 321 58 321 111 q 308 -3 321 25 q 274 -51 296 -31 q 224 -83 253 -71 q 163 -94 194 -94 q 97 -80 124 -94 q 51 -40 69 -65 q 25 17 33 -15 q 17 83 17 49 q 26 191 17 138 q 45 298 35 244 q 64 405 56 351 q 72 513 72 458 q 67 587 72 550 q 53 660 61 624 q 40 733 46 696 q 35 807 35 769 q 59 894 35 869 q 146 919 83 919 q 219 914 182 919 q 292 908 256 908 q 382 915 338 908 q 472 921 426 921 q 524 917 501 921 q 564 903 547 914 q 590 872 581 892 q 599 819 599 851 q 569 738 599 760 q 483 715 540 715 q 412 722 447 715 q 340 728 376 728 q 307 718 319 728 q 288 693 294 708 q 281 660 282 678 q 279 625 279 642 q 303 529 279 558 q 394 500 328 500 q 438 503 417 500 q 482 506 460 506 q 540 485 519 506 q 560 428 560 464 q 533 338 560 365 q 443 310 507 310 q 389 315 415 310 q 335 321 363 321 z "},"G":{"ha":781,"x_min":40,"x_max":772,"o":"m 428 917 q 520 903 472 917 q 607 863 568 889 q 671 797 646 836 q 696 707 696 758 q 689 660 696 685 q 668 617 682 636 q 634 586 654 599 q 588 574 614 574 q 528 586 549 574 q 499 618 508 599 q 487 659 490 638 q 476 700 483 681 q 454 732 469 719 q 407 744 439 744 q 343 718 368 744 q 303 655 318 692 q 283 578 289 618 q 276 508 276 538 q 285 424 276 475 q 312 324 293 372 q 361 242 331 276 q 438 207 392 207 q 506 226 475 207 q 538 288 538 246 q 521 319 538 311 q 481 328 504 326 q 433 331 457 331 q 392 340 408 332 q 358 373 371 351 q 346 418 346 394 q 367 464 346 447 q 417 489 388 481 q 476 499 446 497 q 528 501 507 501 q 618 495 574 501 q 697 470 663 489 q 751 417 731 451 q 772 326 772 383 q 749 176 772 247 q 682 50 726 104 q 572 -36 638 -4 q 422 -68 507 -68 q 236 -26 310 -68 q 119 86 163 17 q 58 246 75 156 q 40 432 40 336 q 63 610 40 522 q 132 765 85 697 q 253 875 179 833 q 428 917 326 917 z "},"H":{"ha":754,"x_min":8,"x_max":736,"o":"m 38 813 q 75 892 38 871 q 164 913 113 913 q 217 908 193 913 q 260 890 242 903 q 288 856 278 878 q 299 803 299 835 q 283 718 299 763 q 268 625 268 674 q 271 569 268 592 q 284 531 274 546 q 315 510 294 517 q 369 504 335 504 q 420 507 399 504 q 456 519 442 510 q 478 548 471 529 q 486 597 486 567 q 472 699 486 649 q 458 800 458 749 q 471 858 458 836 q 505 894 483 881 q 554 912 526 907 q 613 917 582 917 q 649 913 628 917 q 690 902 671 910 q 723 881 710 894 q 736 846 736 867 q 722 732 736 789 q 707 617 707 675 q 718 416 707 515 q 729 215 729 317 q 727 128 729 175 q 711 40 725 81 q 667 -28 697 -1 q 581 -56 636 -56 q 486 -15 518 -56 q 454 85 454 26 q 460 128 454 107 q 472 172 465 150 q 483 215 478 193 q 488 260 488 238 q 474 313 488 300 q 419 326 460 326 q 383 324 406 326 q 335 315 360 321 q 292 299 311 308 q 267 274 272 289 q 263 253 264 264 q 263 233 263 243 q 266 205 263 218 q 275 179 269 192 l 285 153 q 294 127 290 140 q 297 99 297 114 q 290 43 297 72 q 266 -11 282 14 q 227 -53 250 -36 q 174 -69 204 -69 q 97 -48 128 -69 q 46 8 65 -26 q 17 83 26 42 q 8 161 8 124 q 19 259 8 211 q 42 355 29 307 q 65 451 54 403 q 75 549 75 499 q 69 622 75 588 q 56 689 64 657 q 43 751 49 721 q 38 813 38 782 z "},"I":{"ha":329,"x_min":28,"x_max":300,"o":"m 40 890 q 77 978 40 944 q 167 1011 114 1011 q 257 979 219 1011 q 294 893 294 947 q 256 801 294 838 q 164 764 218 764 q 75 801 110 764 q 40 890 40 838 m 161 725 q 254 696 224 725 q 285 604 285 667 q 278 508 285 556 q 271 411 271 460 q 276 346 271 378 q 285 282 281 314 q 295 218 290 250 q 300 154 300 186 q 294 87 300 122 q 274 22 289 51 q 235 -26 260 -7 q 169 -46 210 -46 q 102 -32 129 -46 q 58 6 75 -18 q 35 61 42 29 q 28 129 28 93 q 34 185 28 154 q 47 250 40 217 q 60 319 54 283 q 67 389 67 354 q 57 495 67 442 q 47 601 47 549 q 72 694 47 663 q 161 725 97 725 z "},"J":{"ha":410,"x_min":7,"x_max":383,"o":"m 229 917 q 284 903 261 917 q 323 869 307 890 q 347 820 339 847 q 354 765 354 793 q 351 681 354 722 q 347 596 347 639 q 353 510 347 553 q 365 423 358 467 q 378 336 372 379 q 383 249 383 293 q 373 132 383 188 q 337 34 363 76 q 266 -33 311 -8 q 151 -58 221 -58 q 99 -51 125 -58 q 53 -27 74 -43 q 19 11 32 -11 q 7 63 7 33 q 11 101 7 78 q 24 147 15 125 q 49 185 33 169 q 85 201 64 201 q 118 236 107 201 q 134 316 129 271 q 139 403 139 361 q 139 461 139 446 q 132 535 139 499 q 117 608 125 572 q 103 681 110 644 q 96 756 96 718 q 123 872 96 828 q 229 917 150 917 z "},"K":{"ha":707,"x_min":24,"x_max":692,"o":"m 313 356 q 292 337 300 356 q 281 294 285 318 q 275 246 276 269 q 274 213 274 222 q 285 128 274 169 q 296 44 296 88 q 283 -3 296 17 q 251 -36 271 -24 q 206 -54 231 -49 q 157 -60 181 -60 q 57 -22 90 -60 q 24 83 24 17 q 33 199 24 142 q 52 312 42 256 q 71 425 63 368 q 79 540 79 482 q 66 663 79 603 q 53 785 53 722 q 86 877 53 840 q 176 914 119 914 q 266 873 238 914 q 294 776 294 832 q 290 724 294 750 q 286 672 286 699 q 288 648 286 663 q 293 619 289 633 q 306 595 297 606 q 328 585 314 585 q 351 601 339 585 q 377 642 364 617 q 405 699 390 668 q 433 759 419 729 q 459 814 446 789 q 483 853 472 839 q 533 888 504 878 q 594 897 563 897 q 637 883 619 897 q 666 849 654 869 q 683 804 678 828 q 688 760 688 781 q 672 683 688 717 q 635 623 657 650 q 585 574 613 596 q 536 530 558 551 q 499 485 514 508 q 483 436 483 463 q 499 383 483 410 q 538 331 514 357 q 588 277 561 304 q 638 219 614 250 q 676 155 661 189 q 692 82 692 121 q 684 33 692 58 q 663 -15 676 7 q 628 -51 649 -37 q 579 -65 607 -65 q 508 -41 543 -65 q 450 11 472 -17 q 428 59 438 28 q 409 128 418 90 q 392 207 400 167 q 372 281 383 247 q 347 335 361 314 q 313 356 332 356 z "},"L":{"ha":572,"x_min":7,"x_max":571,"o":"m 131 908 q 182 900 158 908 q 222 869 206 892 q 244 822 236 851 q 258 760 253 793 q 264 696 263 728 q 265 643 265 664 q 258 474 265 558 q 251 304 251 390 q 252 263 251 288 q 258 214 253 238 q 276 174 264 190 q 314 157 289 157 q 365 163 344 157 q 400 178 385 169 q 429 192 415 186 q 461 199 443 199 q 513 187 492 199 q 547 155 533 175 q 565 110 560 135 q 571 58 571 85 q 552 -14 571 11 q 503 -51 533 -39 q 436 -65 472 -62 q 364 -67 400 -67 q 326 -67 344 -67 q 288 -64 307 -67 q 210 -61 257 -61 q 117 -53 163 -61 q 40 -24 72 -44 q 7 43 7 -3 q 15 138 7 92 q 33 231 24 185 q 50 325 42 278 q 58 419 58 372 q 53 488 58 454 q 42 554 49 521 l 29 622 q 17 689 22 656 q 13 757 13 722 q 18 815 13 788 q 37 864 24 843 q 73 897 50 885 q 131 908 96 908 z "},"M":{"ha":963,"x_min":15,"x_max":950,"o":"m 268 501 q 259 494 263 501 q 255 479 256 488 q 254 463 254 471 q 254 451 254 454 q 260 370 254 410 q 272 293 265 331 q 283 219 278 256 q 288 146 288 183 q 281 83 288 117 q 258 22 274 50 q 217 -26 242 -7 q 158 -46 193 -46 q 94 -25 121 -46 q 50 27 68 -4 q 24 94 32 58 q 15 161 15 131 q 19 199 15 181 q 26 236 22 217 q 49 380 44 310 q 56 517 54 450 q 59 652 57 585 q 74 786 61 719 q 85 837 79 814 q 104 876 92 860 q 137 902 117 893 q 189 911 157 911 q 310 869 265 911 q 380 767 354 828 q 420 638 406 707 q 451 515 435 569 q 456 501 453 511 q 463 481 458 492 q 474 463 468 471 q 486 454 479 454 q 508 471 496 454 q 531 513 519 488 q 553 569 542 539 q 573 628 564 600 q 588 679 582 657 q 597 710 594 701 q 619 776 606 739 q 651 848 632 814 q 699 906 671 882 q 764 929 726 929 q 835 915 808 929 q 875 876 861 901 q 893 819 889 851 q 897 749 897 786 q 906 648 897 699 q 921 549 914 597 q 941 388 932 468 q 950 228 950 308 q 948 147 950 194 q 933 57 946 100 q 894 -17 921 14 q 821 -47 868 -47 q 724 -10 761 -47 q 686 86 686 26 q 692 158 686 122 q 705 230 697 194 q 718 301 713 265 q 724 374 724 338 q 723 403 724 383 q 719 442 722 422 q 707 478 715 463 q 683 493 699 493 q 649 463 664 493 q 622 385 635 432 q 597 285 610 339 q 568 185 585 232 q 529 108 551 139 q 475 78 507 78 q 422 109 443 78 q 383 188 400 140 q 354 290 367 235 q 329 392 342 344 q 302 470 317 439 q 268 501 288 501 z "},"N":{"ha":744,"x_min":14,"x_max":726,"o":"m 264 472 q 248 458 254 472 q 238 424 242 443 q 233 387 235 404 q 232 363 232 369 q 244 247 232 304 q 256 131 256 189 q 250 71 256 101 q 230 15 244 40 q 192 -25 215 -10 q 133 -40 169 -40 q 72 -22 96 -40 q 36 24 49 -4 q 19 85 24 51 q 14 147 14 118 q 26 298 14 224 q 39 449 39 372 q 35 589 39 519 q 31 729 31 658 q 34 799 31 764 q 51 862 38 833 q 90 908 64 890 q 160 925 115 925 q 257 896 217 925 q 317 814 297 867 q 335 768 322 801 q 364 692 347 735 q 399 604 381 650 q 436 520 418 558 q 469 458 454 482 q 492 433 483 433 q 522 450 510 433 q 540 488 533 467 q 549 533 546 510 q 551 568 551 556 q 542 641 551 607 q 520 706 532 675 q 499 768 508 738 q 489 829 489 799 q 499 877 489 853 q 527 921 510 901 q 567 953 544 940 q 614 965 589 965 q 685 932 663 965 q 717 852 708 899 q 726 756 726 806 q 725 674 725 706 q 726 536 725 610 q 724 388 726 463 q 716 240 722 313 q 694 106 710 168 q 679 57 689 82 q 655 11 669 32 q 619 -23 640 -10 q 569 -36 599 -36 q 492 -12 526 -36 q 431 50 458 11 q 384 138 404 89 q 348 235 364 186 q 320 328 332 283 q 299 406 308 374 q 294 421 297 410 q 287 444 292 432 q 276 464 282 456 q 264 472 271 472 z "},"O":{"ha":726,"x_min":31,"x_max":693,"o":"m 343 921 q 477 892 421 921 q 572 816 533 864 q 635 706 611 768 q 672 577 658 644 q 689 442 685 510 q 693 315 693 374 q 607 47 693 140 q 343 -46 521 -46 q 104 26 178 -46 q 31 264 31 97 q 35 382 31 314 q 50 523 39 450 q 83 667 61 596 q 139 795 104 739 q 224 886 174 851 q 343 921 274 921 m 264 415 q 267 353 264 392 q 281 276 271 314 q 313 212 292 239 q 367 185 333 185 q 422 211 400 185 q 454 274 443 238 q 469 350 465 311 q 474 414 474 389 q 470 483 474 439 q 456 568 467 526 q 424 640 444 610 q 367 671 403 671 q 311 640 332 671 q 280 568 290 610 q 267 483 269 526 q 264 415 264 440 z "},"P":{"ha":708,"x_min":14,"x_max":681,"o":"m 401 221 q 338 229 369 221 q 285 238 307 238 q 263 227 269 238 q 257 206 257 217 q 264 158 257 181 q 279 113 271 136 q 294 68 288 90 q 301 21 301 46 q 268 -52 301 -28 q 190 -76 235 -76 q 122 -62 154 -76 q 66 -23 90 -47 q 28 34 42 1 q 14 103 14 67 q 24 202 14 153 q 47 301 35 251 q 70 399 60 350 q 81 499 81 449 q 74 575 81 538 q 58 650 67 613 q 43 725 50 688 q 36 801 36 763 q 69 894 36 863 q 163 925 101 925 q 267 922 218 925 q 363 909 317 919 q 452 878 408 899 q 542 822 496 857 q 645 692 610 771 q 681 528 681 613 q 660 415 681 471 q 601 317 639 360 q 513 247 564 274 q 401 221 461 221 m 335 693 q 293 676 308 693 q 272 634 278 658 q 264 583 265 610 q 263 536 263 556 q 263 499 263 522 q 269 454 264 476 q 285 416 274 432 q 315 400 296 400 q 374 415 351 400 q 411 452 397 429 q 431 504 425 475 q 436 563 436 533 q 431 609 436 586 q 413 651 425 632 q 381 681 400 669 q 335 693 363 693 z "},"Q":{"ha":742,"x_min":31,"x_max":703,"o":"m 343 -46 q 104 26 178 -46 q 31 264 31 97 q 35 382 31 314 q 50 523 39 450 q 83 667 61 596 q 139 795 104 739 q 224 886 174 851 q 343 921 274 921 q 477 892 421 921 q 572 816 533 864 q 635 706 611 768 q 672 577 658 644 q 689 442 685 510 q 693 315 693 374 q 544 0 693 85 q 599 -2 571 -3 q 651 -9 628 -1 q 688 -38 674 -17 q 703 -104 703 -60 q 693 -141 703 -121 q 669 -179 683 -161 q 636 -209 654 -197 q 600 -221 618 -221 q 504 -195 542 -221 q 440 -138 467 -169 q 390 -78 413 -107 q 343 -46 368 -50 m 264 415 q 267 353 264 392 q 281 276 271 314 q 313 212 292 239 q 367 185 333 185 q 422 211 400 185 q 454 274 443 238 q 469 350 465 311 q 474 414 474 389 q 470 483 474 439 q 456 568 467 526 q 424 640 444 610 q 367 671 403 671 q 311 640 332 671 q 280 568 290 610 q 267 483 269 526 q 264 415 264 440 z "},"R":{"ha":724,"x_min":14,"x_max":719,"o":"m 26 749 q 44 834 26 801 q 94 885 63 867 q 166 909 125 903 q 251 915 207 915 q 389 897 318 915 q 519 840 460 878 q 616 744 578 801 q 654 610 654 686 q 633 490 654 538 q 587 410 613 442 q 540 359 561 379 q 519 321 519 339 q 551 263 519 292 q 619 202 582 233 q 688 135 657 171 q 719 58 719 100 q 703 8 719 29 q 664 -25 688 -12 q 613 -43 640 -37 q 561 -49 585 -49 q 486 -33 515 -49 q 438 7 457 -18 q 408 65 419 32 q 385 131 396 97 q 360 199 374 165 q 325 258 347 232 q 312 273 319 265 q 294 281 304 281 q 276 269 283 281 q 264 244 268 258 q 258 214 260 229 q 256 190 256 199 q 261 124 256 157 q 267 58 267 92 q 240 -26 267 0 q 156 -53 214 -53 q 87 -40 114 -53 q 44 -6 60 -28 q 21 47 28 17 q 14 115 14 78 q 22 207 14 161 q 41 298 31 253 q 60 389 51 343 q 68 481 68 435 q 64 535 68 508 q 53 588 60 561 l 42 642 q 31 694 35 668 q 26 749 26 721 m 356 724 q 310 712 328 724 q 283 682 293 700 q 268 641 272 664 q 264 594 264 618 q 265 551 264 578 q 274 501 267 525 q 294 459 281 476 q 333 442 308 442 q 385 456 365 442 q 417 494 406 471 q 431 544 428 517 q 435 597 435 572 q 433 640 435 618 q 422 681 431 663 q 398 712 414 700 q 356 724 382 724 z "},"S":{"ha":685,"x_min":7,"x_max":656,"o":"m 413 238 q 385 282 413 261 q 315 325 357 303 q 223 375 272 347 q 131 442 174 403 q 61 533 89 481 q 33 658 33 586 q 64 788 33 738 q 144 869 94 839 q 259 912 194 900 q 390 924 324 924 q 492 911 446 924 q 571 872 538 899 q 623 802 604 844 q 642 700 642 760 q 616 624 642 656 q 544 592 590 592 q 483 604 503 592 q 454 636 463 617 q 444 678 446 656 q 435 719 442 700 q 414 751 429 739 q 364 764 399 764 q 308 744 329 764 q 288 690 288 725 q 315 617 288 649 q 383 556 342 585 q 472 498 424 526 q 560 435 519 469 q 628 359 601 401 q 656 260 656 317 q 633 128 656 188 q 569 28 611 69 q 469 -36 528 -14 q 336 -58 410 -58 q 211 -44 271 -58 q 106 1 151 -31 q 34 84 61 33 q 7 208 7 135 q 33 283 7 250 q 104 315 60 315 q 190 292 157 315 q 249 239 224 268 q 296 186 274 210 q 350 163 318 163 q 396 187 379 163 q 413 238 413 211 z "},"T":{"ha":615,"x_min":8,"x_max":608,"o":"m 8 807 q 23 858 8 839 q 60 888 38 878 q 109 903 82 899 q 161 907 136 907 q 294 909 228 907 q 428 911 361 911 q 487 908 456 911 q 545 894 518 904 q 590 863 572 883 q 608 806 608 842 q 592 755 608 771 q 553 732 576 739 q 502 723 529 725 q 451 715 475 721 q 412 696 428 710 q 396 651 396 682 q 409 449 396 547 q 440 249 422 350 q 458 161 447 206 q 468 74 468 117 q 424 -26 468 6 q 318 -57 381 -57 q 133 125 133 -57 q 143 235 133 181 q 164 343 153 289 q 192 499 179 421 q 204 656 204 576 q 204 669 204 663 q 203 683 204 676 q 184 709 200 701 q 147 721 168 717 q 101 728 125 725 q 56 738 76 731 q 22 762 35 746 q 8 807 8 778 z "},"U":{"ha":718,"x_min":11,"x_max":701,"o":"m 19 761 q 49 868 19 824 q 147 913 79 913 q 216 894 190 913 q 256 845 242 875 q 274 779 269 815 q 278 708 278 743 q 267 551 278 629 q 256 394 256 474 q 257 330 256 368 q 268 257 258 292 q 299 197 278 222 q 357 172 319 172 q 426 194 401 172 q 464 250 451 217 q 480 324 476 283 q 483 403 483 365 q 482 474 483 442 q 477 538 481 507 q 468 601 474 569 q 456 671 463 633 q 444 722 450 696 q 439 775 439 749 q 444 846 439 814 q 466 901 450 878 q 509 936 482 924 q 579 949 536 949 q 669 922 638 949 q 701 836 701 896 q 694 749 701 793 q 679 662 688 706 q 664 574 671 618 q 657 486 657 531 q 671 363 657 424 q 685 238 685 301 q 660 103 685 161 q 592 5 636 44 q 488 -55 549 -35 q 353 -75 426 -75 q 222 -65 283 -75 q 113 -26 160 -54 q 38 53 65 3 q 11 185 11 104 q 18 259 11 222 q 33 332 25 296 q 47 405 40 368 q 54 479 54 442 q 51 535 54 507 q 42 592 47 564 l 32 649 q 23 705 26 676 q 19 761 19 733 z "},"V":{"ha":758,"x_min":1,"x_max":761,"o":"m 110 914 q 195 881 167 914 q 235 800 224 847 q 249 700 247 753 q 257 608 251 647 q 264 563 260 593 q 275 498 268 533 q 292 425 282 463 q 314 357 301 388 q 343 307 326 326 q 379 288 360 288 q 426 322 406 288 q 463 401 447 356 q 487 491 478 446 q 499 557 496 536 q 503 628 501 582 q 509 722 506 674 q 518 812 513 769 q 533 872 524 854 q 587 921 551 906 q 658 936 622 936 q 693 932 675 936 q 726 919 711 928 q 751 895 742 910 q 761 861 761 881 q 749 794 761 839 q 720 698 736 749 q 689 599 704 647 q 667 521 674 550 q 649 415 656 475 q 632 291 642 354 q 606 167 622 228 q 561 60 590 107 q 486 -17 532 13 q 371 -46 440 -46 q 263 -19 306 -46 q 191 53 219 8 q 147 155 163 97 q 120 272 131 213 q 103 388 110 331 q 85 489 96 444 q 63 565 76 524 q 35 647 49 606 q 11 730 21 689 q 1 804 1 771 q 29 885 1 857 q 110 914 57 914 z "},"W":{"ha":1008,"x_min":0,"x_max":1008,"o":"m 121 911 q 185 897 163 911 q 219 860 208 883 q 233 808 231 838 q 236 744 236 778 q 233 606 236 674 q 231 468 231 538 q 231 425 231 454 q 238 365 232 396 q 253 312 243 335 q 285 289 264 289 q 316 322 304 289 q 339 406 328 356 q 363 516 350 457 q 394 626 375 575 q 441 710 413 676 q 513 743 469 743 q 580 712 554 743 q 622 635 606 681 q 648 534 639 589 q 667 433 657 479 q 688 356 676 388 q 721 325 700 325 q 766 335 749 325 q 792 363 783 346 q 805 401 801 379 q 808 446 808 424 q 800 590 808 519 q 792 735 792 661 q 794 796 792 761 q 806 862 796 831 q 835 915 815 893 q 893 936 856 936 q 938 926 917 936 q 974 901 958 917 q 999 865 989 886 q 1008 821 1008 844 q 1007 803 1008 813 q 1003 786 1006 794 q 977 608 981 699 q 971 428 974 518 q 958 249 968 338 q 913 75 947 160 q 728 -46 863 -46 q 631 -8 667 -46 q 574 85 594 31 q 546 201 554 140 q 532 306 538 261 q 526 358 529 326 q 517 410 524 390 q 507 424 514 417 q 492 432 500 432 q 488 431 490 432 q 483 429 485 429 q 464 385 472 422 q 444 294 456 347 q 417 181 433 242 q 375 70 401 121 q 310 -14 349 19 q 215 -47 272 -47 q 102 -9 142 -47 q 63 104 63 29 q 56 268 63 186 q 39 431 49 350 q 19 594 29 513 q 1 757 8 675 q 1 767 1 763 q 0 776 0 771 q 31 871 0 831 q 121 911 63 911 z "},"X":{"ha":746,"x_min":-3,"x_max":749,"o":"m 106 913 q 171 893 143 913 q 221 844 199 874 q 261 781 243 815 q 296 717 279 746 q 329 668 313 688 q 367 649 346 649 q 428 676 403 649 q 475 742 454 704 q 514 817 496 779 q 550 876 532 856 q 585 909 569 900 q 631 918 600 918 q 710 893 678 918 q 743 818 743 868 q 725 729 743 771 q 681 651 707 688 q 622 585 654 615 q 564 529 590 554 q 519 484 538 504 q 501 450 501 464 q 519 392 501 417 q 565 342 538 367 q 625 292 593 318 q 685 233 657 267 q 731 154 713 199 q 749 49 749 110 q 738 9 749 26 q 710 -20 726 -8 q 673 -38 693 -32 q 633 -44 653 -44 q 540 -24 578 -44 q 478 28 503 -3 q 437 95 453 58 q 407 163 421 132 q 379 214 393 193 q 344 235 365 235 q 311 214 324 235 q 288 161 299 193 q 264 92 276 129 q 231 24 251 56 q 181 -29 211 -8 q 103 -50 150 -50 q 60 -40 79 -50 q 26 -12 40 -29 q 5 27 13 6 q -3 71 -3 49 q 8 141 -3 107 q 37 206 19 175 q 77 265 54 238 q 125 318 100 293 q 151 339 136 329 q 179 360 165 349 q 202 384 193 371 q 211 415 211 397 q 181 503 211 461 q 113 589 150 544 q 44 687 75 633 q 14 808 14 740 q 21 846 14 828 q 40 879 28 864 q 69 903 53 894 q 106 913 86 913 z "},"Y":{"ha":683,"x_min":28,"x_max":663,"o":"m 153 913 q 235 885 204 913 q 267 806 267 858 q 253 708 267 756 q 240 610 240 660 q 260 537 240 565 q 328 508 279 508 q 394 521 369 508 q 431 556 418 533 q 448 608 444 578 q 451 674 451 639 q 449 734 451 704 q 446 794 446 764 q 467 890 446 851 q 551 928 488 928 q 605 913 583 928 q 639 874 626 897 q 657 823 651 851 q 663 768 663 794 q 659 723 663 744 q 650 681 656 701 l 640 639 q 631 597 635 618 q 628 551 628 575 q 632 500 628 525 q 639 450 636 475 q 647 374 644 411 q 649 297 649 336 q 631 142 649 213 q 573 22 613 72 q 469 -56 533 -29 q 314 -83 406 -83 q 235 -74 272 -83 q 168 -45 197 -65 q 122 8 139 -25 q 106 88 106 40 q 108 126 106 107 q 119 161 111 146 q 142 186 128 176 q 182 196 157 196 q 258 182 221 196 q 333 168 294 168 q 389 183 368 168 q 420 220 410 197 q 434 272 431 243 q 438 329 438 301 q 431 351 438 342 q 410 360 424 360 q 378 351 394 360 q 342 331 363 342 q 294 310 322 319 q 226 301 267 301 q 110 335 150 301 q 51 421 69 369 q 31 534 33 472 q 28 651 28 596 q 30 731 28 686 q 44 817 32 776 q 81 885 56 857 q 153 913 106 913 z "},"Z":{"ha":713,"x_min":7,"x_max":713,"o":"m 7 50 q 35 176 7 114 q 103 297 63 238 q 192 410 144 356 q 281 512 240 464 q 350 599 322 560 q 378 668 378 639 q 371 692 378 683 q 353 704 364 700 q 329 709 342 708 q 306 710 317 710 q 249 708 278 710 q 193 706 221 706 q 85 740 125 706 q 46 844 46 774 q 66 913 46 890 q 133 936 86 936 q 219 926 178 936 q 306 917 261 917 q 360 918 333 917 q 415 919 388 919 q 511 912 465 919 q 592 883 557 904 q 647 825 626 863 q 668 728 668 788 q 641 606 668 664 q 574 494 614 547 q 486 397 533 442 q 399 313 439 351 q 331 245 358 275 q 304 194 304 215 q 326 162 304 171 q 368 153 349 153 q 422 165 393 153 q 480 192 450 178 q 541 219 510 207 q 603 232 572 232 q 648 219 628 232 q 683 185 668 206 q 705 140 697 164 q 713 93 713 115 q 681 9 713 42 q 604 -42 650 -24 q 507 -67 558 -61 q 417 -74 456 -74 q 367 -73 400 -74 q 294 -71 335 -72 q 212 -67 254 -69 q 132 -58 169 -64 q 67 -45 94 -53 q 29 -26 39 -37 q 11 10 15 -11 q 7 50 7 31 z "},"[":{"ha":408,"x_min":47,"x_max":396,"o":"m 225 990 q 249 989 236 990 q 272 985 261 988 q 315 978 293 981 q 353 970 336 976 q 380 949 369 964 q 390 907 390 935 q 378 857 390 874 q 349 831 367 840 q 311 816 332 822 q 273 797 290 810 q 244 758 256 783 q 232 686 232 733 q 235 601 232 643 q 238 515 238 558 q 233 363 238 439 q 229 210 229 288 q 231 159 229 196 q 237 84 232 122 q 251 15 242 46 q 276 -18 261 -15 q 320 -28 299 -22 q 358 -45 342 -35 q 385 -74 375 -56 q 396 -119 396 -92 q 383 -165 396 -146 q 350 -195 369 -183 q 306 -212 331 -207 q 260 -218 282 -218 q 147 -185 189 -218 q 82 -100 104 -151 q 53 13 60 -49 q 47 129 47 74 q 48 363 47 247 q 49 597 49 479 q 50 724 49 660 q 61 850 51 788 q 110 958 72 925 q 225 990 147 990 z "},"\\":{"ha":532,"x_min":31,"x_max":525,"o":"m 121 924 q 188 893 157 924 q 244 820 218 863 q 290 734 271 778 q 322 663 310 690 q 358 577 338 629 q 402 463 379 525 q 447 333 425 400 q 485 204 468 267 q 514 88 503 142 q 525 1 525 35 q 501 -83 525 -47 q 422 -119 476 -119 q 360 -97 388 -119 q 313 -41 333 -74 q 275 28 292 -8 q 246 90 258 64 q 207 181 229 124 q 160 308 185 239 q 113 453 136 378 q 72 599 90 529 q 42 728 53 669 q 31 822 31 786 q 51 895 31 867 q 121 924 72 924 z "},"]":{"ha":425,"x_min":47,"x_max":396,"o":"m 218 990 q 333 958 296 990 q 382 850 371 925 q 393 724 392 788 q 394 597 394 660 q 395 363 394 479 q 396 129 396 247 q 390 13 396 74 q 361 -100 383 -49 q 297 -185 339 -151 q 183 -218 254 -218 q 137 -212 161 -218 q 93 -195 113 -207 q 60 -165 74 -183 q 47 -119 47 -146 q 58 -74 47 -92 q 85 -45 68 -56 q 123 -28 101 -35 q 167 -18 144 -22 q 192 15 182 -15 q 206 84 201 46 q 213 159 211 122 q 214 210 214 196 q 210 363 214 288 q 206 515 206 439 q 208 601 206 558 q 211 686 211 643 q 199 758 211 733 q 170 797 188 783 q 132 816 153 810 q 94 831 111 822 q 65 857 76 840 q 53 907 53 874 q 63 949 53 935 q 90 970 74 964 q 128 978 107 976 q 171 985 150 981 q 194 989 182 988 q 218 990 207 990 z "},"^":{"ha":732,"x_min":64,"x_max":667,"o":"m 369 724 q 337 660 360 700 q 285 583 314 621 q 224 518 256 546 q 163 490 192 490 q 126 502 144 490 q 94 531 108 514 q 72 569 81 549 q 64 607 64 590 q 74 654 64 629 q 97 703 83 679 q 128 750 111 728 q 158 788 144 772 q 201 842 178 808 q 252 906 225 875 q 309 960 279 938 q 369 983 339 983 q 423 972 407 983 q 461 932 439 960 q 519 861 485 901 q 587 777 554 821 q 643 689 619 733 q 667 604 667 644 q 639 532 667 560 q 567 504 611 504 q 484 527 514 504 q 435 583 454 550 q 403 655 417 617 q 369 724 390 693 z "},"_":{"ha":569,"x_min":-1,"x_max":556,"o":"m 164 -40 q 228 -42 196 -40 q 292 -46 260 -44 l 501 -53 q 544 -81 532 -54 q 556 -133 556 -108 q 531 -199 556 -175 q 472 -234 507 -222 q 398 -249 438 -246 q 328 -251 358 -251 q 278 -251 310 -251 q 210 -250 247 -251 q 136 -244 174 -249 q 68 -228 99 -239 q 18 -200 38 -217 q -1 -157 -1 -183 q 7 -119 -1 -137 q 29 -85 15 -100 q 60 -58 43 -69 q 96 -44 78 -47 q 130 -41 113 -42 q 164 -40 147 -40 z "},"`":{"ha":393,"x_min":63,"x_max":336,"o":"m 135 1139 q 201 1122 165 1139 q 266 1077 236 1104 q 316 1017 296 1050 q 336 953 336 985 q 320 920 336 928 q 283 913 304 913 q 217 925 256 913 q 145 959 179 938 q 87 1009 111 981 q 63 1069 63 1038 q 85 1118 63 1097 q 135 1139 107 1139 z "},"a":{"ha":844,"x_min":4,"x_max":842,"o":"m 417 915 q 520 899 474 915 q 599 833 567 883 q 633 758 621 797 q 651 676 644 718 q 663 592 657 635 q 678 510 668 550 q 706 430 689 464 q 740 367 722 396 q 776 310 758 338 q 809 249 794 283 q 833 171 824 215 q 842 65 842 126 q 806 -41 842 3 q 703 -85 769 -85 q 632 -68 656 -85 q 595 -26 608 -51 q 572 29 582 0 q 544 84 563 58 q 490 126 525 110 q 392 143 456 143 q 335 126 356 143 q 301 83 314 108 q 280 26 289 57 q 257 -30 271 -4 q 220 -73 243 -56 q 157 -90 197 -90 q 94 -76 122 -90 q 45 -39 65 -62 q 15 15 25 -15 q 4 79 4 46 q 23 169 4 128 q 69 249 42 211 q 126 324 96 288 q 179 399 156 360 q 230 513 217 460 q 249 617 243 567 q 262 717 256 667 q 290 822 268 768 q 338 892 310 868 q 417 915 365 915 m 519 375 q 513 422 519 390 q 499 487 507 453 q 481 552 490 521 q 465 597 472 583 q 460 608 464 600 q 453 615 457 615 q 428 580 443 615 q 401 499 414 544 q 378 412 388 454 q 369 356 369 369 q 377 334 369 343 q 397 320 385 325 q 421 313 408 315 q 443 310 433 310 q 502 320 485 310 q 519 375 519 331 z "},"b":{"ha":751,"x_min":18,"x_max":731,"o":"m 172 911 q 218 901 196 911 q 265 890 240 890 q 310 896 289 890 q 354 909 332 901 q 400 922 376 917 q 450 928 424 928 q 554 909 506 928 q 639 857 603 890 q 696 776 675 824 q 717 672 717 729 q 696 564 717 608 q 649 489 675 519 q 603 440 624 458 q 582 407 582 421 q 605 372 582 389 q 656 333 628 356 q 708 275 685 310 q 731 186 731 240 q 690 58 731 111 q 589 -28 650 6 q 456 -76 528 -61 q 322 -90 385 -90 q 218 -80 272 -90 q 119 -45 164 -69 q 47 20 75 -21 q 18 122 18 61 q 26 197 18 160 q 45 270 35 233 q 64 344 56 307 q 72 418 72 381 q 59 563 72 492 q 46 707 46 633 q 50 775 46 739 q 68 841 54 811 q 106 891 82 871 q 172 911 131 911 m 469 614 q 445 689 469 663 q 372 715 421 715 q 319 703 339 715 q 289 672 300 692 q 274 627 278 653 q 271 574 271 601 q 286 505 271 532 q 349 478 301 478 q 438 518 407 478 q 469 614 469 558 m 346 294 q 286 265 306 294 q 267 199 267 235 q 282 139 267 167 q 333 111 297 111 q 378 116 356 111 q 421 131 401 121 q 453 160 440 142 q 465 204 465 178 q 455 247 465 229 q 428 274 444 264 q 390 290 411 285 q 346 294 368 294 z "},"c":{"ha":756,"x_min":32,"x_max":747,"o":"m 32 363 q 53 555 32 457 q 123 734 75 653 q 248 867 171 815 q 436 918 325 918 q 535 906 485 918 q 627 867 586 893 q 694 801 668 842 q 721 703 721 760 q 717 649 721 674 q 701 607 713 625 q 669 579 689 589 q 615 569 649 569 q 575 573 594 569 q 540 585 556 576 q 516 610 525 594 q 507 649 507 625 q 499 683 507 667 q 477 713 490 700 q 447 735 464 726 q 411 743 429 743 q 379 735 394 743 q 351 715 364 726 q 305 653 324 690 q 276 576 286 617 q 261 493 265 535 q 257 415 257 451 q 264 343 257 382 q 288 272 271 304 q 333 219 304 240 q 403 197 361 197 q 458 216 433 197 q 507 256 482 235 q 563 297 532 278 q 638 315 594 315 q 680 305 660 315 q 715 278 700 294 q 738 240 729 261 q 747 197 747 218 q 716 69 747 122 q 634 -20 685 15 q 519 -72 583 -56 q 390 -89 456 -89 q 212 -54 282 -89 q 102 41 142 -19 q 47 184 63 101 q 32 363 32 267 z "},"d":{"ha":746,"x_min":14,"x_max":714,"o":"m 29 794 q 46 871 29 844 q 90 908 63 897 q 155 919 118 918 q 232 919 192 919 q 443 873 353 919 q 594 749 533 826 q 684 569 654 671 q 714 356 714 467 q 678 172 714 251 q 581 37 643 92 q 434 -47 519 -18 q 249 -75 349 -75 q 160 -70 203 -75 q 85 -48 117 -65 q 33 3 53 -31 q 14 92 14 36 q 22 181 14 138 q 39 269 29 225 q 56 357 49 313 q 64 446 64 401 q 58 525 64 486 q 44 604 51 564 q 33 699 38 651 q 29 794 29 746 m 339 682 q 297 663 307 682 q 279 617 286 643 q 265 518 268 569 q 263 418 263 467 q 264 353 263 386 q 268 289 265 321 q 271 252 269 272 q 277 213 272 232 q 294 182 282 194 q 329 169 307 169 q 402 193 374 169 q 447 252 431 217 q 468 328 463 288 q 474 404 474 369 q 468 481 474 433 q 447 572 463 528 q 406 649 432 617 q 339 682 379 682 z "},"e":{"ha":675,"x_min":14,"x_max":657,"o":"m 657 75 q 626 -3 657 25 q 550 -47 594 -32 q 457 -65 506 -61 q 372 -68 408 -68 q 235 -62 300 -68 q 122 -33 171 -57 q 43 41 72 -8 q 14 176 14 90 q 23 261 14 219 q 43 343 32 303 q 63 424 54 383 q 72 508 72 465 q 67 572 72 540 q 54 636 61 604 q 42 700 47 668 q 36 764 36 732 q 41 825 36 797 q 60 873 46 853 q 97 904 74 893 q 157 915 119 915 q 213 913 185 915 q 269 911 242 911 q 346 913 308 911 q 422 915 383 915 q 488 913 453 915 q 554 898 524 910 q 605 863 585 886 q 625 800 625 840 q 619 742 625 769 q 600 692 614 714 q 563 658 586 671 q 506 646 540 646 q 463 653 483 646 q 421 667 442 660 q 379 682 400 675 q 336 689 358 689 q 299 679 313 689 q 277 654 285 669 q 267 619 269 639 q 265 581 265 600 q 272 536 265 551 q 290 515 278 521 q 322 510 303 510 q 367 510 342 510 q 422 512 394 510 q 478 514 450 514 q 515 513 496 514 q 551 504 535 511 q 577 484 567 497 q 588 447 588 471 q 571 398 588 417 q 530 369 554 379 q 478 357 506 360 q 426 354 450 354 q 388 356 407 354 q 353 358 369 358 q 301 344 321 358 q 281 282 281 331 q 301 199 281 231 q 379 168 322 168 q 459 181 419 168 q 539 194 499 194 q 624 160 592 194 q 657 75 657 126 z "},"f":{"ha":606,"x_min":17,"x_max":599,"o":"m 335 321 q 305 305 311 321 q 299 269 299 289 q 310 164 299 217 q 321 58 321 111 q 308 -3 321 25 q 274 -51 296 -31 q 224 -83 253 -71 q 163 -94 194 -94 q 97 -80 124 -94 q 51 -40 69 -65 q 25 17 33 -15 q 17 83 17 49 q 26 191 17 138 q 45 298 35 244 q 64 405 56 351 q 72 513 72 458 q 67 587 72 550 q 53 660 61 624 q 40 733 46 696 q 35 807 35 769 q 59 894 35 869 q 146 919 83 919 q 219 914 182 919 q 292 908 256 908 q 382 915 338 908 q 472 921 426 921 q 524 917 501 921 q 564 903 547 914 q 590 872 581 892 q 599 819 599 851 q 569 738 599 760 q 483 715 540 715 q 412 722 447 715 q 340 728 376 728 q 307 718 319 728 q 288 693 294 708 q 281 660 282 678 q 279 625 279 642 q 303 529 279 558 q 394 500 328 500 q 438 503 417 500 q 482 506 460 506 q 540 485 519 506 q 560 428 560 464 q 533 338 560 365 q 443 310 507 310 q 389 315 415 310 q 335 321 363 321 z "},"g":{"ha":781,"x_min":40,"x_max":772,"o":"m 428 917 q 520 903 472 917 q 607 863 568 889 q 671 797 646 836 q 696 707 696 758 q 689 660 696 685 q 668 617 682 636 q 634 586 654 599 q 588 574 614 574 q 528 586 549 574 q 499 618 508 599 q 487 659 490 638 q 476 700 483 681 q 454 732 469 719 q 407 744 439 744 q 343 718 368 744 q 303 655 318 692 q 283 578 289 618 q 276 508 276 538 q 285 424 276 475 q 312 324 293 372 q 361 242 331 276 q 438 207 392 207 q 506 226 475 207 q 538 288 538 246 q 521 319 538 311 q 481 328 504 326 q 433 331 457 331 q 392 340 408 332 q 358 373 371 351 q 346 418 346 394 q 367 464 346 447 q 417 489 388 481 q 476 499 446 497 q 528 501 507 501 q 618 495 574 501 q 697 470 663 489 q 751 417 731 451 q 772 326 772 383 q 749 176 772 247 q 682 50 726 104 q 572 -36 638 -4 q 422 -68 507 -68 q 236 -26 310 -68 q 119 86 163 17 q 58 246 75 156 q 40 432 40 336 q 63 610 40 522 q 132 765 85 697 q 253 875 179 833 q 428 917 326 917 z "},"h":{"ha":754,"x_min":8,"x_max":736,"o":"m 38 813 q 75 892 38 871 q 164 913 113 913 q 217 908 193 913 q 260 890 242 903 q 288 856 278 878 q 299 803 299 835 q 283 718 299 763 q 268 625 268 674 q 271 569 268 592 q 284 531 274 546 q 315 510 294 517 q 369 504 335 504 q 420 507 399 504 q 456 519 442 510 q 478 548 471 529 q 486 597 486 567 q 472 699 486 649 q 458 800 458 749 q 471 858 458 836 q 505 894 483 881 q 554 912 526 907 q 613 917 582 917 q 649 913 628 917 q 690 902 671 910 q 723 881 710 894 q 736 846 736 867 q 722 732 736 789 q 707 617 707 675 q 718 416 707 515 q 729 215 729 317 q 727 128 729 175 q 711 40 725 81 q 667 -28 697 -1 q 581 -56 636 -56 q 486 -15 518 -56 q 454 85 454 26 q 460 128 454 107 q 472 172 465 150 q 483 215 478 193 q 488 260 488 238 q 474 313 488 300 q 419 326 460 326 q 383 324 406 326 q 335 315 360 321 q 292 299 311 308 q 267 274 272 289 q 263 253 264 264 q 263 233 263 243 q 266 205 263 218 q 275 179 269 192 l 285 153 q 294 127 290 140 q 297 99 297 114 q 290 43 297 72 q 266 -11 282 14 q 227 -53 250 -36 q 174 -69 204 -69 q 97 -48 128 -69 q 46 8 65 -26 q 17 83 26 42 q 8 161 8 124 q 19 259 8 211 q 42 355 29 307 q 65 451 54 403 q 75 549 75 499 q 69 622 75 588 q 56 689 64 657 q 43 751 49 721 q 38 813 38 782 z "},"i":{"ha":329,"x_min":28,"x_max":300,"o":"m 40 890 q 77 978 40 944 q 167 1011 114 1011 q 257 979 219 1011 q 294 893 294 947 q 256 801 294 838 q 164 764 218 764 q 75 801 110 764 q 40 890 40 838 m 161 725 q 254 696 224 725 q 285 604 285 667 q 278 508 285 556 q 271 411 271 460 q 276 346 271 378 q 285 282 281 314 q 295 218 290 250 q 300 154 300 186 q 294 87 300 122 q 274 22 289 51 q 235 -26 260 -7 q 169 -46 210 -46 q 102 -32 129 -46 q 58 6 75 -18 q 35 61 42 29 q 28 129 28 93 q 34 185 28 154 q 47 250 40 217 q 60 319 54 283 q 67 389 67 354 q 57 495 67 442 q 47 601 47 549 q 72 694 47 663 q 161 725 97 725 z "},"j":{"ha":410,"x_min":7,"x_max":383,"o":"m 229 917 q 284 903 261 917 q 323 869 307 890 q 347 820 339 847 q 354 765 354 793 q 351 681 354 722 q 347 596 347 639 q 353 510 347 553 q 365 423 358 467 q 378 336 372 379 q 383 249 383 293 q 373 132 383 188 q 337 34 363 76 q 266 -33 311 -8 q 151 -58 221 -58 q 99 -51 125 -58 q 53 -27 74 -43 q 19 11 32 -11 q 7 63 7 33 q 11 101 7 78 q 24 147 15 125 q 49 185 33 169 q 85 201 64 201 q 118 236 107 201 q 134 316 129 271 q 139 403 139 361 q 139 461 139 446 q 132 535 139 499 q 117 608 125 572 q 103 681 110 644 q 96 756 96 718 q 123 872 96 828 q 229 917 150 917 z "},"k":{"ha":707,"x_min":24,"x_max":692,"o":"m 313 356 q 292 337 300 356 q 281 294 285 318 q 275 246 276 269 q 274 213 274 222 q 285 128 274 169 q 296 44 296 88 q 283 -3 296 17 q 251 -36 271 -24 q 206 -54 231 -49 q 157 -60 181 -60 q 57 -22 90 -60 q 24 83 24 17 q 33 199 24 142 q 52 312 42 256 q 71 425 63 368 q 79 540 79 482 q 66 663 79 603 q 53 785 53 722 q 86 877 53 840 q 176 914 119 914 q 266 873 238 914 q 294 776 294 832 q 290 724 294 750 q 286 672 286 699 q 288 648 286 663 q 293 619 289 633 q 306 595 297 606 q 328 585 314 585 q 351 601 339 585 q 377 642 364 617 q 405 699 390 668 q 433 759 419 729 q 459 814 446 789 q 483 853 472 839 q 533 888 504 878 q 594 897 563 897 q 637 883 619 897 q 666 849 654 869 q 683 804 678 828 q 688 760 688 781 q 672 683 688 717 q 635 623 657 650 q 585 574 613 596 q 536 530 558 551 q 499 485 514 508 q 483 436 483 463 q 499 383 483 410 q 538 331 514 357 q 588 277 561 304 q 638 219 614 250 q 676 155 661 189 q 692 82 692 121 q 684 33 692 58 q 663 -15 676 7 q 628 -51 649 -37 q 579 -65 607 -65 q 508 -41 543 -65 q 450 11 472 -17 q 428 59 438 28 q 409 128 418 90 q 392 207 400 167 q 372 281 383 247 q 347 335 361 314 q 313 356 332 356 z "},"l":{"ha":572,"x_min":7,"x_max":571,"o":"m 131 908 q 182 900 158 908 q 222 869 206 892 q 244 822 236 851 q 258 760 253 793 q 264 696 263 728 q 265 643 265 664 q 258 474 265 558 q 251 304 251 390 q 252 263 251 288 q 258 214 253 238 q 276 174 264 190 q 314 157 289 157 q 365 163 344 157 q 400 178 385 169 q 429 192 415 186 q 461 199 443 199 q 513 187 492 199 q 547 155 533 175 q 565 110 560 135 q 571 58 571 85 q 552 -14 571 11 q 503 -51 533 -39 q 436 -65 472 -62 q 364 -67 400 -67 q 326 -67 344 -67 q 288 -64 307 -67 q 210 -61 257 -61 q 117 -53 163 -61 q 40 -24 72 -44 q 7 43 7 -3 q 15 138 7 92 q 33 231 24 185 q 50 325 42 278 q 58 419 58 372 q 53 488 58 454 q 42 554 49 521 l 29 622 q 17 689 22 656 q 13 757 13 722 q 18 815 13 788 q 37 864 24 843 q 73 897 50 885 q 131 908 96 908 z "},"m":{"ha":963,"x_min":15,"x_max":950,"o":"m 268 501 q 259 494 263 501 q 255 479 256 488 q 254 463 254 471 q 254 451 254 454 q 260 370 254 410 q 272 293 265 331 q 283 219 278 256 q 288 146 288 183 q 281 83 288 117 q 258 22 274 50 q 217 -26 242 -7 q 158 -46 193 -46 q 94 -25 121 -46 q 50 27 68 -4 q 24 94 32 58 q 15 161 15 131 q 19 199 15 181 q 26 236 22 217 q 49 380 44 310 q 56 517 54 450 q 59 652 57 585 q 74 786 61 719 q 85 837 79 814 q 104 876 92 860 q 137 902 117 893 q 189 911 157 911 q 310 869 265 911 q 380 767 354 828 q 420 638 406 707 q 451 515 435 569 q 456 501 453 511 q 463 481 458 492 q 474 463 468 471 q 486 454 479 454 q 508 471 496 454 q 531 513 519 488 q 553 569 542 539 q 573 628 564 600 q 588 679 582 657 q 597 710 594 701 q 619 776 606 739 q 651 848 632 814 q 699 906 671 882 q 764 929 726 929 q 835 915 808 929 q 875 876 861 901 q 893 819 889 851 q 897 749 897 786 q 906 648 897 699 q 921 549 914 597 q 941 388 932 468 q 950 228 950 308 q 948 147 950 194 q 933 57 946 100 q 894 -17 921 14 q 821 -47 868 -47 q 724 -10 761 -47 q 686 86 686 26 q 692 158 686 122 q 705 230 697 194 q 718 301 713 265 q 724 374 724 338 q 723 403 724 383 q 719 442 722 422 q 707 478 715 463 q 683 493 699 493 q 649 463 664 493 q 622 385 635 432 q 597 285 610 339 q 568 185 585 232 q 529 108 551 139 q 475 78 507 78 q 422 109 443 78 q 383 188 400 140 q 354 290 367 235 q 329 392 342 344 q 302 470 317 439 q 268 501 288 501 z "},"n":{"ha":744,"x_min":14,"x_max":726,"o":"m 264 472 q 248 458 254 472 q 238 424 242 443 q 233 387 235 404 q 232 363 232 369 q 244 247 232 304 q 256 131 256 189 q 250 71 256 101 q 230 15 244 40 q 192 -25 215 -10 q 133 -40 169 -40 q 72 -22 96 -40 q 36 24 49 -4 q 19 85 24 51 q 14 147 14 118 q 26 298 14 224 q 39 449 39 372 q 35 589 39 519 q 31 729 31 658 q 34 799 31 764 q 51 862 38 833 q 90 908 64 890 q 160 925 115 925 q 257 896 217 925 q 317 814 297 867 q 335 768 322 801 q 364 692 347 735 q 399 604 381 650 q 436 520 418 558 q 469 458 454 482 q 492 433 483 433 q 522 450 510 433 q 540 488 533 467 q 549 533 546 510 q 551 568 551 556 q 542 641 551 607 q 520 706 532 675 q 499 768 508 738 q 489 829 489 799 q 499 877 489 853 q 527 921 510 901 q 567 953 544 940 q 614 965 589 965 q 685 932 663 965 q 717 852 708 899 q 726 756 726 806 q 725 674 725 706 q 726 536 725 610 q 724 388 726 463 q 716 240 722 313 q 694 106 710 168 q 679 57 689 82 q 655 11 669 32 q 619 -23 640 -10 q 569 -36 599 -36 q 492 -12 526 -36 q 431 50 458 11 q 384 138 404 89 q 348 235 364 186 q 320 328 332 283 q 299 406 308 374 q 294 421 297 410 q 287 444 292 432 q 276 464 282 456 q 264 472 271 472 z "},"o":{"ha":726,"x_min":31,"x_max":693,"o":"m 343 921 q 477 892 421 921 q 572 816 533 864 q 635 706 611 768 q 672 577 658 644 q 689 442 685 510 q 693 315 693 374 q 607 47 693 140 q 343 -46 521 -46 q 104 26 178 -46 q 31 264 31 97 q 35 382 31 314 q 50 523 39 450 q 83 667 61 596 q 139 795 104 739 q 224 886 174 851 q 343 921 274 921 m 264 415 q 267 353 264 392 q 281 276 271 314 q 313 212 292 239 q 367 185 333 185 q 422 211 400 185 q 454 274 443 238 q 469 350 465 311 q 474 414 474 389 q 470 483 474 439 q 456 568 467 526 q 424 640 444 610 q 367 671 403 671 q 311 640 332 671 q 280 568 290 610 q 267 483 269 526 q 264 415 264 440 z "},"p":{"ha":708,"x_min":14,"x_max":681,"o":"m 401 221 q 338 229 369 221 q 285 238 307 238 q 263 227 269 238 q 257 206 257 217 q 264 158 257 181 q 279 113 271 136 q 294 68 288 90 q 301 21 301 46 q 268 -52 301 -28 q 190 -76 235 -76 q 122 -62 154 -76 q 66 -23 90 -47 q 28 34 42 1 q 14 103 14 67 q 24 202 14 153 q 47 301 35 251 q 70 399 60 350 q 81 499 81 449 q 74 575 81 538 q 58 650 67 613 q 43 725 50 688 q 36 801 36 763 q 69 894 36 863 q 163 925 101 925 q 267 922 218 925 q 363 909 317 919 q 452 878 408 899 q 542 822 496 857 q 645 692 610 771 q 681 528 681 613 q 660 415 681 471 q 601 317 639 360 q 513 247 564 274 q 401 221 461 221 m 335 693 q 293 676 308 693 q 272 634 278 658 q 264 583 265 610 q 263 536 263 556 q 263 499 263 522 q 269 454 264 476 q 285 416 274 432 q 315 400 296 400 q 374 415 351 400 q 411 452 397 429 q 431 504 425 475 q 436 563 436 533 q 431 609 436 586 q 413 651 425 632 q 381 681 400 669 q 335 693 363 693 z "},"q":{"ha":742,"x_min":31,"x_max":703,"o":"m 343 -46 q 104 26 178 -46 q 31 264 31 97 q 35 382 31 314 q 50 523 39 450 q 83 667 61 596 q 139 795 104 739 q 224 886 174 851 q 343 921 274 921 q 477 892 421 921 q 572 816 533 864 q 635 706 611 768 q 672 577 658 644 q 689 442 685 510 q 693 315 693 374 q 544 0 693 85 q 599 -2 571 -3 q 651 -9 628 -1 q 688 -38 674 -17 q 703 -104 703 -60 q 693 -141 703 -121 q 669 -179 683 -161 q 636 -209 654 -197 q 600 -221 618 -221 q 504 -195 542 -221 q 440 -138 467 -169 q 390 -78 413 -107 q 343 -46 368 -50 m 264 415 q 267 353 264 392 q 281 276 271 314 q 313 212 292 239 q 367 185 333 185 q 422 211 400 185 q 454 274 443 238 q 469 350 465 311 q 474 414 474 389 q 470 483 474 439 q 456 568 467 526 q 424 640 444 610 q 367 671 403 671 q 311 640 332 671 q 280 568 290 610 q 267 483 269 526 q 264 415 264 440 z "},"r":{"ha":724,"x_min":14,"x_max":719,"o":"m 26 749 q 44 834 26 801 q 94 885 63 867 q 166 909 125 903 q 251 915 207 915 q 389 897 318 915 q 519 840 460 878 q 616 744 578 801 q 654 610 654 686 q 633 490 654 538 q 587 410 613 442 q 540 359 561 379 q 519 321 519 339 q 551 263 519 292 q 619 202 582 233 q 688 135 657 171 q 719 58 719 100 q 703 8 719 29 q 664 -25 688 -12 q 613 -43 640 -37 q 561 -49 585 -49 q 486 -33 515 -49 q 438 7 457 -18 q 408 65 419 32 q 385 131 396 97 q 360 199 374 165 q 325 258 347 232 q 312 273 319 265 q 294 281 304 281 q 276 269 283 281 q 264 244 268 258 q 258 214 260 229 q 256 190 256 199 q 261 124 256 157 q 267 58 267 92 q 240 -26 267 0 q 156 -53 214 -53 q 87 -40 114 -53 q 44 -6 60 -28 q 21 47 28 17 q 14 115 14 78 q 22 207 14 161 q 41 298 31 253 q 60 389 51 343 q 68 481 68 435 q 64 535 68 508 q 53 588 60 561 l 42 642 q 31 694 35 668 q 26 749 26 721 m 356 724 q 310 712 328 724 q 283 682 293 700 q 268 641 272 664 q 264 594 264 618 q 265 551 264 578 q 274 501 267 525 q 294 459 281 476 q 333 442 308 442 q 385 456 365 442 q 417 494 406 471 q 431 544 428 517 q 435 597 435 572 q 433 640 435 618 q 422 681 431 663 q 398 712 414 700 q 356 724 382 724 z "},"s":{"ha":685,"x_min":7,"x_max":656,"o":"m 413 238 q 385 282 413 261 q 315 325 357 303 q 223 375 272 347 q 131 442 174 403 q 61 533 89 481 q 33 658 33 586 q 64 788 33 738 q 144 869 94 839 q 259 912 194 900 q 390 924 324 924 q 492 911 446 924 q 571 872 538 899 q 623 802 604 844 q 642 700 642 760 q 616 624 642 656 q 544 592 590 592 q 483 604 503 592 q 454 636 463 617 q 444 678 446 656 q 435 719 442 700 q 414 751 429 739 q 364 764 399 764 q 308 744 329 764 q 288 690 288 725 q 315 617 288 649 q 383 556 342 585 q 472 498 424 526 q 560 435 519 469 q 628 359 601 401 q 656 260 656 317 q 633 128 656 188 q 569 28 611 69 q 469 -36 528 -14 q 336 -58 410 -58 q 211 -44 271 -58 q 106 1 151 -31 q 34 84 61 33 q 7 208 7 135 q 33 283 7 250 q 104 315 60 315 q 190 292 157 315 q 249 239 224 268 q 296 186 274 210 q 350 163 318 163 q 396 187 379 163 q 413 238 413 211 z "},"t":{"ha":615,"x_min":8,"x_max":608,"o":"m 8 807 q 23 858 8 839 q 60 888 38 878 q 109 903 82 899 q 161 907 136 907 q 294 909 228 907 q 428 911 361 911 q 487 908 456 911 q 545 894 518 904 q 590 863 572 883 q 608 806 608 842 q 592 755 608 771 q 553 732 576 739 q 502 723 529 725 q 451 715 475 721 q 412 696 428 710 q 396 651 396 682 q 409 449 396 547 q 440 249 422 350 q 458 161 447 206 q 468 74 468 117 q 424 -26 468 6 q 318 -57 381 -57 q 133 125 133 -57 q 143 235 133 181 q 164 343 153 289 q 192 499 179 421 q 204 656 204 576 q 204 669 204 663 q 203 683 204 676 q 184 709 200 701 q 147 721 168 717 q 101 728 125 725 q 56 738 76 731 q 22 762 35 746 q 8 807 8 778 z "},"u":{"ha":718,"x_min":11,"x_max":701,"o":"m 19 761 q 49 868 19 824 q 147 913 79 913 q 216 894 190 913 q 256 845 242 875 q 274 779 269 815 q 278 708 278 743 q 267 551 278 629 q 256 394 256 474 q 257 330 256 368 q 268 257 258 292 q 299 197 278 222 q 357 172 319 172 q 426 194 401 172 q 464 250 451 217 q 480 324 476 283 q 483 403 483 365 q 482 474 483 442 q 477 538 481 507 q 468 601 474 569 q 456 671 463 633 q 444 722 450 696 q 439 775 439 749 q 444 846 439 814 q 466 901 450 878 q 509 936 482 924 q 579 949 536 949 q 669 922 638 949 q 701 836 701 896 q 694 749 701 793 q 679 662 688 706 q 664 574 671 618 q 657 486 657 531 q 671 363 657 424 q 685 238 685 301 q 660 103 685 161 q 592 5 636 44 q 488 -55 549 -35 q 353 -75 426 -75 q 222 -65 283 -75 q 113 -26 160 -54 q 38 53 65 3 q 11 185 11 104 q 18 259 11 222 q 33 332 25 296 q 47 405 40 368 q 54 479 54 442 q 51 535 54 507 q 42 592 47 564 l 32 649 q 23 705 26 676 q 19 761 19 733 z "},"v":{"ha":758,"x_min":1,"x_max":761,"o":"m 110 914 q 195 881 167 914 q 235 800 224 847 q 249 700 247 753 q 257 608 251 647 q 264 563 260 593 q 275 498 268 533 q 292 425 282 463 q 314 357 301 388 q 343 307 326 326 q 379 288 360 288 q 426 322 406 288 q 463 401 447 356 q 487 491 478 446 q 499 557 496 536 q 503 628 501 582 q 509 722 506 674 q 518 812 513 769 q 533 872 524 854 q 587 921 551 906 q 658 936 622 936 q 693 932 675 936 q 726 919 711 928 q 751 895 742 910 q 761 861 761 881 q 749 794 761 839 q 720 698 736 749 q 689 599 704 647 q 667 521 674 550 q 649 415 656 475 q 632 291 642 354 q 606 167 622 228 q 561 60 590 107 q 486 -17 532 13 q 371 -46 440 -46 q 263 -19 306 -46 q 191 53 219 8 q 147 155 163 97 q 120 272 131 213 q 103 388 110 331 q 85 489 96 444 q 63 565 76 524 q 35 647 49 606 q 11 730 21 689 q 1 804 1 771 q 29 885 1 857 q 110 914 57 914 z "},"w":{"ha":1008,"x_min":0,"x_max":1008,"o":"m 121 911 q 185 897 163 911 q 219 860 208 883 q 233 808 231 838 q 236 744 236 778 q 233 606 236 674 q 231 468 231 538 q 231 425 231 454 q 238 365 232 396 q 253 312 243 335 q 285 289 264 289 q 316 322 304 289 q 339 406 328 356 q 363 516 350 457 q 394 626 375 575 q 441 710 413 676 q 513 743 469 743 q 580 712 554 743 q 622 635 606 681 q 648 534 639 589 q 667 433 657 479 q 688 356 676 388 q 721 325 700 325 q 766 335 749 325 q 792 363 783 346 q 805 401 801 379 q 808 446 808 424 q 800 590 808 519 q 792 735 792 661 q 794 796 792 761 q 806 862 796 831 q 835 915 815 893 q 893 936 856 936 q 938 926 917 936 q 974 901 958 917 q 999 865 989 886 q 1008 821 1008 844 q 1007 803 1008 813 q 1003 786 1006 794 q 977 608 981 699 q 971 428 974 518 q 958 249 968 338 q 913 75 947 160 q 728 -46 863 -46 q 631 -8 667 -46 q 574 85 594 31 q 546 201 554 140 q 532 306 538 261 q 526 358 529 326 q 517 410 524 390 q 507 424 514 417 q 492 432 500 432 q 488 431 490 432 q 483 429 485 429 q 464 385 472 422 q 444 294 456 347 q 417 181 433 242 q 375 70 401 121 q 310 -14 349 19 q 215 -47 272 -47 q 102 -9 142 -47 q 63 104 63 29 q 56 268 63 186 q 39 431 49 350 q 19 594 29 513 q 1 757 8 675 q 1 767 1 763 q 0 776 0 771 q 31 871 0 831 q 121 911 63 911 z "},"x":{"ha":746,"x_min":-3,"x_max":749,"o":"m 106 913 q 171 893 143 913 q 221 844 199 874 q 261 781 243 815 q 296 717 279 746 q 329 668 313 688 q 367 649 346 649 q 428 676 403 649 q 475 742 454 704 q 514 817 496 779 q 550 876 532 856 q 585 909 569 900 q 631 918 600 918 q 710 893 678 918 q 743 818 743 868 q 725 729 743 771 q 681 651 707 688 q 622 585 654 615 q 564 529 590 554 q 519 484 538 504 q 501 450 501 464 q 519 392 501 417 q 565 342 538 367 q 625 292 593 318 q 685 233 657 267 q 731 154 713 199 q 749 49 749 110 q 738 9 749 26 q 710 -20 726 -8 q 673 -38 693 -32 q 633 -44 653 -44 q 540 -24 578 -44 q 478 28 503 -3 q 437 95 453 58 q 407 163 421 132 q 379 214 393 193 q 344 235 365 235 q 311 214 324 235 q 288 161 299 193 q 264 92 276 129 q 231 24 251 56 q 181 -29 211 -8 q 103 -50 150 -50 q 60 -40 79 -50 q 26 -12 40 -29 q 5 27 13 6 q -3 71 -3 49 q 8 141 -3 107 q 37 206 19 175 q 77 265 54 238 q 125 318 100 293 q 151 339 136 329 q 179 360 165 349 q 202 384 193 371 q 211 415 211 397 q 181 503 211 461 q 113 589 150 544 q 44 687 75 633 q 14 808 14 740 q 21 846 14 828 q 40 879 28 864 q 69 903 53 894 q 106 913 86 913 z "},"y":{"ha":683,"x_min":28,"x_max":663,"o":"m 153 913 q 235 885 204 913 q 267 806 267 858 q 253 708 267 756 q 240 610 240 660 q 260 537 240 565 q 328 508 279 508 q 394 521 369 508 q 431 556 418 533 q 448 608 444 578 q 451 674 451 639 q 449 734 451 704 q 446 794 446 764 q 467 890 446 851 q 551 928 488 928 q 605 913 583 928 q 639 874 626 897 q 657 823 651 851 q 663 768 663 794 q 659 723 663 744 q 650 681 656 701 l 640 639 q 631 597 635 618 q 628 551 628 575 q 632 500 628 525 q 639 450 636 475 q 647 374 644 411 q 649 297 649 336 q 631 142 649 213 q 573 22 613 72 q 469 -56 533 -29 q 314 -83 406 -83 q 235 -74 272 -83 q 168 -45 197 -65 q 122 8 139 -25 q 106 88 106 40 q 108 126 106 107 q 119 161 111 146 q 142 186 128 176 q 182 196 157 196 q 258 182 221 196 q 333 168 294 168 q 389 183 368 168 q 420 220 410 197 q 434 272 431 243 q 438 329 438 301 q 431 351 438 342 q 410 360 424 360 q 378 351 394 360 q 342 331 363 342 q 294 310 322 319 q 226 301 267 301 q 110 335 150 301 q 51 421 69 369 q 31 534 33 472 q 28 651 28 596 q 30 731 28 686 q 44 817 32 776 q 81 885 56 857 q 153 913 106 913 z "},"z":{"ha":713,"x_min":7,"x_max":713,"o":"m 7 50 q 35 176 7 114 q 103 297 63 238 q 192 410 144 356 q 281 512 240 464 q 350 599 322 560 q 378 668 378 639 q 371 692 378 683 q 353 704 364 700 q 329 709 342 708 q 306 710 317 710 q 249 708 278 710 q 193 706 221 706 q 85 740 125 706 q 46 844 46 774 q 66 913 46 890 q 133 936 86 936 q 219 926 178 936 q 306 917 261 917 q 360 918 333 917 q 415 919 388 919 q 511 912 465 919 q 592 883 557 904 q 647 825 626 863 q 668 728 668 788 q 641 606 668 664 q 574 494 614 547 q 486 397 533 442 q 399 313 439 351 q 331 245 358 275 q 304 194 304 215 q 326 162 304 171 q 368 153 349 153 q 422 165 393 153 q 480 192 450 178 q 541 219 510 207 q 603 232 572 232 q 648 219 628 232 q 683 185 668 206 q 705 140 697 164 q 713 93 713 115 q 681 9 713 42 q 604 -42 650 -24 q 507 -67 558 -61 q 417 -74 456 -74 q 367 -73 400 -74 q 294 -71 335 -72 q 212 -67 254 -69 q 132 -58 169 -64 q 67 -45 94 -53 q 29 -26 39 -37 q 11 10 15 -11 q 7 50 7 31 z "},"{":{"ha":415,"x_min":31,"x_max":410,"o":"m 31 386 q 60 484 50 425 q 79 610 71 543 q 98 745 88 678 q 128 867 108 813 q 183 955 149 921 q 271 989 217 989 q 305 987 286 989 q 342 981 324 985 q 378 972 361 978 q 408 957 396 965 q 410 938 410 947 q 410 919 410 929 q 403 878 410 893 q 384 856 396 864 q 356 843 372 847 q 318 832 339 839 q 326 751 322 792 q 329 669 329 710 q 303 525 329 596 q 219 406 276 454 q 262 310 247 361 q 276 208 276 260 q 276 169 276 190 q 274 125 275 147 q 275 81 274 103 q 281 43 276 60 q 308 -9 289 13 q 348 -49 328 -31 q 383 -87 368 -68 q 399 -132 399 -107 q 385 -179 399 -160 q 349 -211 371 -199 q 303 -230 328 -224 q 254 -236 278 -236 q 162 -208 197 -236 q 107 -128 126 -181 q 78 -2 85 -67 q 68 128 71 63 q 59 259 65 194 q 31 386 53 324 z "},"|":{"ha":378,"x_min":65,"x_max":338,"o":"m 99 858 q 109 907 103 885 q 127 945 115 929 q 158 970 139 961 q 208 979 178 979 q 262 962 240 979 q 298 917 283 944 q 320 853 313 889 q 332 783 328 818 q 337 717 336 749 q 338 665 338 686 q 335 596 338 631 q 331 526 333 561 q 319 373 325 453 q 306 212 314 293 q 288 52 299 131 q 263 -97 278 -26 q 253 -139 258 -112 q 237 -190 247 -165 q 210 -233 226 -215 q 172 -251 194 -251 q 129 -214 147 -251 q 99 -116 111 -176 q 81 18 88 -56 q 70 165 74 92 q 66 301 67 238 q 65 401 65 364 q 72 631 65 517 q 99 858 78 744 z "},"}":{"ha":436,"x_min":31,"x_max":410,"o":"m 410 386 q 381 259 388 324 q 372 128 375 194 q 363 -2 369 63 q 333 -128 356 -67 q 278 -208 314 -181 q 186 -236 243 -236 q 138 -230 164 -236 q 91 -211 113 -224 q 56 -179 69 -199 q 42 -132 42 -160 q 61 -81 42 -99 q 104 -41 81 -62 q 147 15 128 -19 q 167 114 167 50 q 166 192 167 156 q 169 264 165 229 q 185 333 174 299 q 221 406 197 368 q 138 525 164 454 q 111 669 111 596 q 115 751 111 710 q 122 832 118 792 q 85 843 101 839 q 56 856 68 847 q 38 878 44 864 q 31 919 31 893 q 31 938 31 929 q 32 957 31 947 q 62 972 44 965 q 98 981 79 978 q 136 987 117 985 q 169 989 156 989 q 258 955 224 989 q 312 867 292 921 q 342 745 332 813 q 361 610 353 678 q 380 483 369 543 q 410 386 390 424 z "},"~":{"ha":697,"x_min":42,"x_max":644,"o":"m 415 439 q 470 453 450 439 q 507 483 490 467 q 540 513 524 499 q 585 526 557 526 q 633 503 621 526 q 644 447 644 479 q 632 376 644 410 q 597 318 619 343 q 543 278 575 293 q 472 264 511 264 q 401 274 439 264 q 328 298 363 285 q 267 322 294 311 q 228 332 240 332 q 210 317 218 332 q 191 285 201 303 q 165 252 181 267 q 126 238 150 238 q 88 249 104 238 q 62 278 72 261 q 47 317 51 296 q 42 356 42 338 q 83 458 42 418 q 186 497 124 497 q 247 488 218 497 q 303 468 275 479 q 359 448 332 457 q 415 439 386 439 z "},"":{"ha":396,"x_min":56,"x_max":365,"o":"m 335 665 q 299 583 335 613 q 213 554 263 554 q 126 581 164 554 q 89 660 89 607 q 99 705 89 685 q 126 740 110 725 q 165 763 143 754 q 211 771 188 771 q 297 744 258 771 q 335 665 335 717 m 215 -215 q 169 -212 190 -215 q 133 -201 149 -210 q 106 -177 118 -193 q 86 -135 94 -161 q 69 -58 75 -99 q 60 26 63 -17 q 56 112 57 69 q 56 192 56 154 q 58 280 56 225 q 72 388 60 335 q 111 481 85 442 q 185 519 138 519 q 219 517 201 519 q 256 508 238 514 q 288 491 274 501 q 313 467 303 481 q 339 407 329 443 q 355 331 349 371 q 363 253 361 292 q 365 186 365 215 q 363 104 365 150 q 353 10 360 58 q 335 -81 346 -37 q 307 -157 324 -125 q 272 -202 292 -189 q 215 -215 251 -215 z "},"":{"ha":825,"x_min":35,"x_max":800,"o":"m 403 1018 q 453 1012 428 1018 q 497 993 478 1006 q 527 960 515 981 q 539 910 539 939 q 547 898 539 899 q 563 894 556 897 q 628 874 596 885 q 686 847 661 864 q 726 802 711 829 q 742 733 742 775 q 703 636 742 667 q 603 606 665 606 q 541 616 564 606 q 504 642 518 626 q 482 676 490 657 q 465 710 474 694 q 442 735 456 725 q 404 746 429 746 q 332 715 360 746 q 289 641 304 685 q 268 550 274 597 q 263 471 263 503 q 269 381 263 433 q 294 278 276 328 q 345 194 313 229 q 428 160 378 160 q 485 176 463 160 q 524 216 507 192 q 553 269 540 240 q 583 322 567 297 q 621 362 599 346 q 676 378 643 378 q 735 362 711 378 q 773 321 758 346 q 794 266 788 296 q 800 207 800 236 q 778 102 800 143 q 722 34 756 61 q 649 -10 689 7 q 576 -44 610 -28 q 521 -80 543 -60 q 499 -132 499 -100 q 493 -162 499 -151 q 477 -177 488 -172 q 452 -183 467 -182 q 419 -183 438 -183 q 367 -174 385 -183 q 342 -147 350 -164 q 332 -107 335 -131 q 322 -56 329 -83 q 254 -39 288 -49 q 192 -12 221 -29 q 138 28 163 4 q 97 85 114 51 q 69 167 81 118 q 49 269 57 217 q 38 373 42 322 q 35 461 35 424 q 39 544 35 499 q 53 637 43 590 q 82 725 64 683 q 128 793 100 767 q 178 831 146 811 q 242 874 211 851 q 297 922 274 897 q 321 971 321 946 q 329 997 321 988 q 350 1010 338 1006 q 376 1017 363 1015 q 403 1018 390 1018 z "},"":{"ha":681,"x_min":-1,"x_max":672,"o":"m 93 217 q 22 257 44 228 q -1 339 -1 286 q 8 385 -1 372 q 30 402 17 397 q 59 411 43 407 q 88 431 75 415 q 110 480 101 446 q 119 578 119 514 q 122 710 119 649 q 144 818 124 772 q 213 890 165 864 q 353 917 261 917 q 450 906 397 917 q 549 872 503 896 q 625 809 594 847 q 656 715 656 771 q 628 631 656 669 q 550 593 600 593 q 505 606 524 593 q 474 637 486 618 q 451 677 461 656 q 431 717 440 699 q 408 749 421 736 q 376 761 394 761 q 347 749 358 761 q 331 720 336 738 q 325 684 326 703 q 324 651 324 665 q 326 599 324 631 q 334 535 328 568 q 351 474 340 503 q 376 429 361 444 q 427 408 396 411 q 482 406 458 406 q 531 405 507 406 q 573 397 554 404 q 603 372 592 389 q 615 322 615 356 q 602 267 615 289 q 568 234 589 246 q 520 217 547 222 q 465 213 493 213 q 427 214 454 213 q 372 213 400 215 q 322 205 343 211 q 300 182 300 199 q 318 144 300 158 q 361 122 336 129 q 413 111 386 114 q 456 108 439 108 q 510 110 483 108 q 565 111 538 111 q 599 110 581 111 q 634 103 618 108 q 661 85 650 97 q 672 53 672 74 q 653 -1 672 22 q 603 -40 633 -24 q 535 -66 574 -56 q 460 -82 497 -76 q 390 -90 424 -87 q 336 -92 357 -92 q 250 -87 299 -92 q 159 -67 201 -83 q 88 -22 117 -51 q 58 60 58 8 q 64 99 58 81 q 76 137 69 118 q 88 174 82 156 q 93 213 93 193 l 93 217 z "},"":{"ha":813,"x_min":58,"x_max":765,"o":"m 538 111 q 486 83 515 92 q 429 75 457 75 q 367 84 397 75 q 307 93 338 93 q 270 81 285 93 q 242 55 256 69 q 213 28 228 40 q 175 15 197 15 q 131 29 150 15 q 99 64 111 43 q 80 109 86 85 q 74 154 74 133 q 81 200 74 183 q 99 227 89 217 q 116 245 108 238 q 124 263 124 253 q 117 285 124 272 q 101 317 110 299 q 86 357 93 335 q 79 406 79 379 q 90 488 79 447 q 100 569 100 528 q 94 613 100 593 q 79 651 88 633 q 65 686 71 669 q 58 718 58 703 q 67 753 58 735 q 91 788 76 772 q 123 814 106 804 q 158 824 140 824 q 196 810 179 824 q 228 782 213 797 q 257 753 243 767 q 285 740 271 740 q 306 746 293 740 q 333 758 318 751 q 364 769 347 764 q 397 774 381 774 q 451 762 425 774 q 507 750 478 750 q 553 760 532 750 q 594 783 575 771 q 631 805 613 794 q 669 815 649 815 q 703 808 686 815 q 733 788 719 800 q 756 759 747 775 q 765 726 765 743 q 753 685 765 706 q 725 644 740 665 q 697 602 710 624 q 685 557 685 581 q 692 505 685 531 q 699 451 699 479 q 688 372 699 411 q 676 293 676 333 q 689 242 676 261 q 716 209 701 224 q 742 179 731 194 q 754 139 754 164 q 726 72 754 100 q 658 43 697 43 q 592 65 622 43 q 538 111 561 86 m 407 264 q 458 278 436 264 q 494 315 479 293 q 516 363 508 336 q 524 415 524 390 q 516 466 524 440 q 494 512 508 492 q 458 545 479 532 q 408 558 436 558 q 358 546 381 558 q 319 513 335 533 q 294 467 303 493 q 286 415 286 442 q 294 363 286 390 q 319 315 303 336 q 357 278 335 293 q 407 264 379 264 z "},"":{"ha":778,"x_min":53,"x_max":753,"o":"m 279 310 q 220 331 253 329 q 159 337 188 333 q 111 353 131 340 q 92 410 92 367 q 113 449 92 439 q 163 465 135 460 q 217 474 190 469 q 256 496 244 479 q 221 566 253 525 q 151 653 189 607 q 83 749 114 700 q 53 843 53 797 q 79 916 53 886 q 150 946 106 946 q 199 936 172 946 q 265 897 240 919 q 303 847 289 874 q 326 792 317 821 q 344 737 335 764 q 369 685 354 710 q 413 642 385 661 q 451 693 435 663 q 481 758 467 724 q 508 828 494 793 q 542 892 522 864 q 588 938 561 921 q 653 956 614 956 q 688 951 669 956 q 720 937 706 946 q 744 913 735 928 q 753 879 753 899 q 737 814 753 850 q 696 742 721 778 q 643 670 671 706 q 590 606 615 635 q 549 556 565 576 q 533 526 533 535 q 558 508 533 515 q 610 488 582 500 q 663 459 639 476 q 688 411 688 442 q 666 363 688 375 q 613 351 644 351 q 587 353 600 351 q 561 354 574 354 q 535 352 550 354 q 519 335 519 350 q 520 330 519 332 q 521 325 521 328 q 568 302 538 307 q 630 291 599 297 q 684 270 661 285 q 707 218 707 256 q 704 188 707 204 q 695 159 701 172 q 677 137 689 146 q 649 128 665 128 q 602 137 625 128 q 556 146 579 146 q 540 140 546 146 q 530 124 533 133 q 526 102 526 114 q 525 81 525 90 q 523 31 525 58 q 513 -22 521 3 q 487 -65 504 -47 q 439 -82 469 -82 q 394 -78 419 -82 q 345 -63 368 -74 q 307 -35 322 -53 q 292 7 292 -18 q 299 51 292 29 q 306 94 306 72 q 298 124 306 113 q 278 141 290 135 q 252 150 267 147 q 222 153 238 153 q 171 151 196 153 q 126 154 146 149 q 95 176 107 160 q 83 231 83 193 q 110 282 83 272 q 172 292 138 292 q 199 291 183 292 q 228 292 214 290 q 257 297 243 293 q 279 310 271 301 z "},"":{"ha":454,"x_min":89,"x_max":356,"o":"m 194 956 q 252 934 229 956 q 290 878 275 913 q 311 802 304 844 q 321 717 318 760 q 324 638 324 675 q 324 576 324 600 q 324 530 324 558 q 319 474 324 501 q 301 428 314 447 q 263 408 288 408 q 224 411 244 408 q 184 422 203 414 q 150 442 165 429 q 126 474 135 454 q 115 526 119 493 q 106 594 110 558 q 101 665 103 631 q 100 719 100 699 q 102 783 100 743 q 113 861 104 822 q 142 928 122 900 q 194 956 161 956 m 189 347 q 263 338 225 347 q 317 290 300 328 q 334 235 326 268 q 347 168 342 203 q 353 99 351 133 q 356 40 356 65 q 353 -27 356 10 q 339 -94 350 -64 q 303 -146 328 -125 q 238 -167 279 -167 q 149 -130 179 -167 q 105 -41 118 -93 q 90 69 92 11 q 89 167 89 126 q 90 211 89 192 q 97 248 92 231 q 113 283 103 265 q 140 319 124 300 q 160 340 151 333 q 189 347 169 347 z "},"":{"ha":754,"x_min":57,"x_max":703,"o":"m 375 925 q 460 918 408 925 q 562 893 513 911 q 646 844 611 875 q 681 767 681 814 q 674 732 681 750 q 656 699 668 714 q 629 675 644 685 q 594 665 614 665 q 549 684 568 665 q 514 726 531 703 q 481 767 497 749 q 443 786 464 786 q 414 770 424 786 q 404 738 404 754 q 426 683 404 708 q 482 632 449 657 q 553 582 515 607 q 625 529 592 557 q 681 470 658 501 q 703 401 703 439 q 690 347 703 372 q 663 298 678 321 q 636 256 649 275 q 624 221 624 238 q 631 189 624 207 q 648 149 639 171 q 665 104 657 128 q 672 56 672 81 q 641 -37 672 1 q 564 -101 610 -76 q 465 -138 518 -126 q 368 -150 413 -150 q 277 -140 329 -150 q 178 -107 225 -129 q 97 -50 131 -85 q 64 35 64 -15 q 90 101 64 75 q 157 126 117 126 q 208 117 182 126 q 260 97 235 108 q 307 77 285 86 q 346 68 329 68 q 380 79 361 68 q 399 108 399 90 q 390 124 399 115 q 329 177 364 154 q 258 222 294 200 q 185 264 221 243 q 120 312 149 285 q 74 374 92 339 q 57 458 57 410 q 69 509 57 488 q 97 551 82 531 q 125 590 113 571 q 138 633 138 610 q 131 683 138 658 q 125 733 125 708 q 146 828 125 790 q 201 887 167 865 q 280 917 235 908 q 375 925 325 925 m 294 438 q 305 406 294 422 q 331 378 315 390 q 365 357 347 365 q 396 349 382 349 q 417 353 406 349 q 440 365 429 357 q 457 382 450 372 q 464 401 464 392 q 450 430 464 417 q 417 454 436 443 q 378 472 399 465 q 346 478 358 478 q 312 467 329 478 q 294 438 294 457 z "},"":{"ha":510,"x_min":65,"x_max":439,"o":"m 265 1014 q 291 1074 265 1051 q 353 1097 317 1097 q 414 1074 389 1097 q 439 1014 439 1051 q 417 952 439 978 q 358 926 396 926 q 293 951 321 926 q 265 1014 265 975 m 65 1010 q 91 1069 65 1046 q 153 1093 117 1093 q 215 1070 189 1093 q 240 1010 240 1047 q 219 948 240 974 q 160 922 197 922 q 94 947 124 922 q 65 1010 65 972 z "},"":{"ha":1042,"x_min":33,"x_max":994,"o":"m 33 418 q 71 608 33 521 q 173 758 108 694 q 326 856 238 821 q 515 892 414 892 q 704 856 617 892 q 856 757 792 821 q 958 607 921 693 q 994 418 994 521 q 958 228 994 317 q 856 75 921 140 q 704 -28 792 10 q 515 -67 617 -67 q 326 -29 414 -67 q 173 74 238 8 q 71 228 108 140 q 33 418 33 317 m 172 428 q 198 289 172 357 q 269 168 224 221 q 378 83 315 115 q 515 50 440 50 q 656 83 590 50 q 772 171 722 117 q 849 294 821 225 q 878 436 878 364 q 849 574 878 510 q 773 685 821 638 q 660 761 725 733 q 522 789 596 789 q 383 760 447 789 q 272 683 318 732 q 199 567 225 633 q 172 428 172 501 m 271 372 q 284 500 271 435 q 328 619 297 565 q 410 708 360 674 q 535 743 460 743 q 601 733 569 743 q 658 705 633 724 q 697 658 682 686 q 711 592 711 629 q 695 538 711 556 q 642 519 679 519 q 597 528 618 519 q 575 565 575 538 q 556 610 575 589 q 514 631 538 631 q 467 607 486 631 q 435 551 447 583 q 419 486 424 519 q 414 432 414 453 q 417 385 414 411 q 431 336 421 360 q 458 297 440 313 q 501 281 475 281 q 540 292 524 281 q 573 319 557 304 q 606 345 589 333 q 649 357 624 357 q 708 328 689 357 q 728 264 728 300 q 706 188 728 219 q 649 135 683 156 q 574 106 615 115 q 496 97 533 97 q 386 118 429 97 q 317 176 343 139 q 281 263 292 213 q 271 372 271 313 z "},"":{"ha":643,"x_min":50,"x_max":586,"o":"m 50 653 q 123 846 50 776 q 318 915 196 915 q 371 919 344 915 q 401 925 386 922 q 432 928 417 928 q 503 902 481 928 q 526 828 526 876 q 511 731 526 778 q 496 633 496 683 q 502 592 496 607 q 517 567 508 578 q 538 546 526 557 q 561 517 550 535 l 561 494 q 513 451 543 467 q 451 436 483 436 q 385 454 415 436 q 336 503 354 472 q 310 476 321 489 q 290 453 300 463 q 265 438 279 443 q 226 432 250 432 q 146 451 179 432 q 91 501 113 469 q 60 572 69 532 q 50 653 50 611 m 254 597 q 277 619 264 597 q 302 669 290 642 q 322 724 314 697 q 331 760 331 750 q 320 775 331 771 q 300 779 310 779 q 269 771 282 779 q 249 749 257 763 q 236 719 240 735 q 232 688 232 703 q 233 667 232 682 q 235 637 233 653 q 242 609 238 621 q 254 597 247 597 m 332 397 q 400 404 367 397 q 468 411 433 411 q 501 408 481 411 q 540 399 521 406 q 572 380 558 392 q 586 350 586 368 q 565 315 586 329 q 509 290 543 300 q 434 276 475 281 q 354 269 393 271 q 283 266 315 267 q 236 265 251 265 q 186 267 213 265 q 137 276 160 268 q 99 302 114 285 q 85 351 85 319 q 92 383 85 371 q 110 401 99 394 q 138 408 122 407 q 169 410 153 410 q 251 403 210 410 q 332 397 292 397 z "},"":{"ha":882,"x_min":60,"x_max":851,"o":"m 307 351 q 357 318 325 336 q 420 280 389 300 q 474 236 451 260 q 497 185 497 213 q 471 138 497 153 q 417 122 444 122 q 357 133 393 122 q 281 160 321 143 q 202 201 242 178 q 131 250 163 224 q 79 304 99 276 q 60 360 60 332 q 83 418 60 389 q 138 472 106 447 q 204 515 169 496 q 263 542 239 533 q 379 564 322 564 q 409 563 389 564 q 449 556 429 561 q 485 540 469 550 q 500 515 500 531 q 472 470 500 494 q 410 423 444 446 q 344 381 375 400 q 307 351 314 363 m 658 349 q 708 315 676 333 q 772 277 740 297 q 826 233 803 257 q 849 182 849 210 q 822 135 849 150 q 768 119 796 119 q 708 130 744 119 q 633 158 672 140 q 553 198 593 175 q 482 247 514 221 q 431 302 450 274 q 411 357 411 331 q 434 415 411 386 q 489 469 457 444 q 556 512 521 493 q 614 539 590 531 q 731 561 674 561 q 760 560 740 561 q 801 553 781 558 q 836 538 821 547 q 851 513 851 528 q 824 467 851 492 q 761 420 796 443 q 696 378 726 397 q 658 349 665 360 z "},"":{"ha":786,"x_min":51,"x_max":719,"o":"m 483 361 q 375 353 429 358 q 265 347 321 347 q 202 350 239 347 q 132 363 165 353 q 75 395 99 374 q 51 454 51 417 q 64 497 51 479 q 95 524 76 514 q 136 538 114 533 q 179 542 158 542 q 274 533 228 542 q 368 524 319 524 q 470 535 421 524 q 572 547 519 547 q 688 513 656 547 q 719 396 719 478 q 713 324 719 365 q 690 244 706 282 q 647 181 674 207 q 579 154 619 154 q 533 167 550 154 q 508 198 517 179 q 497 240 499 217 q 494 286 494 264 q 492 326 494 306 q 483 361 490 346 z "},"":{"ha":786,"x_min":33,"x_max":746,"o":"m 33 568 q 60 712 33 647 q 133 822 86 776 q 247 893 181 868 q 390 918 313 918 q 527 896 463 918 q 640 832 592 874 q 717 730 689 790 q 746 593 746 669 q 715 449 746 514 q 631 339 683 385 q 510 268 579 293 q 365 243 442 243 q 231 266 292 243 q 126 331 169 289 q 58 433 82 372 q 33 568 33 493 m 121 574 q 140 472 121 519 q 194 388 160 424 q 275 331 228 351 q 376 310 322 310 q 482 332 432 310 q 569 392 532 354 q 629 479 607 429 q 651 585 651 529 q 631 686 651 639 q 574 767 610 733 q 490 821 538 801 q 388 840 442 840 q 283 819 332 840 q 199 763 235 799 q 142 678 163 726 q 121 574 121 629 m 240 731 q 269 792 240 776 q 338 808 297 808 q 406 799 372 808 q 466 769 439 789 q 510 721 493 750 q 526 654 526 692 q 517 608 526 626 q 496 576 507 589 q 475 553 485 563 q 465 535 465 544 q 480 510 465 522 q 511 483 494 497 q 542 454 528 469 q 557 419 557 439 q 549 397 557 406 q 531 381 542 388 q 507 372 519 375 q 483 369 494 369 q 438 384 453 369 q 414 419 422 399 q 399 464 406 440 q 378 506 392 488 q 371 514 375 508 q 363 519 367 519 q 353 514 357 519 q 348 501 350 508 q 345 488 346 494 q 344 476 344 481 q 347 447 344 461 q 350 418 350 433 q 300 368 350 368 q 249 389 263 368 q 235 444 235 410 q 247 526 235 486 q 260 608 260 567 q 250 669 260 640 q 240 731 240 699 m 389 721 q 356 700 364 721 q 349 660 349 679 q 350 639 349 650 q 356 617 351 628 q 369 600 361 607 q 389 593 376 593 q 408 601 401 593 q 419 619 415 608 q 425 641 424 629 q 426 661 426 653 q 419 701 426 681 q 389 721 413 721 z "},"":{"ha":525,"x_min":42,"x_max":471,"o":"m 169 1096 q 215 1094 193 1096 q 260 1093 236 1093 q 321 1094 285 1093 q 390 1090 357 1096 q 447 1065 424 1083 q 471 1010 471 1047 q 465 971 471 988 q 428 938 458 950 q 361 921 399 926 q 288 914 324 915 q 233 913 253 913 q 174 915 207 913 q 111 926 140 917 q 62 956 82 936 q 42 1013 42 976 q 53 1057 42 1040 q 84 1082 65 1074 q 125 1093 103 1090 q 169 1096 147 1096 z "},"":{"ha":490,"x_min":25,"x_max":454,"o":"m 25 807 q 42 888 25 853 q 89 948 60 924 q 157 985 118 972 q 239 999 196 999 q 321 986 282 999 q 390 949 360 974 q 437 889 419 925 q 454 807 454 853 q 438 725 454 760 q 392 667 421 690 q 326 631 364 643 q 243 619 288 619 q 161 631 200 619 q 92 667 122 643 q 43 725 61 690 q 25 807 25 760 m 282 810 q 274 849 282 831 q 242 867 267 867 q 206 849 214 867 q 197 807 197 831 q 209 769 197 789 q 242 749 221 749 q 274 769 265 749 q 282 810 282 790 z "},"":{"ha":801,"x_min":79,"x_max":757,"o":"m 419 940 q 449 935 432 940 q 483 920 467 929 q 509 898 499 911 q 519 869 519 885 q 516 841 519 854 q 513 813 513 828 q 518 773 513 794 q 535 733 524 751 q 564 703 547 715 q 601 692 581 692 q 630 694 617 692 q 658 696 643 696 q 728 672 700 696 q 757 604 757 649 q 744 561 757 576 q 713 538 732 546 q 669 529 693 531 q 619 527 644 528 q 572 524 594 526 q 533 513 549 522 q 508 468 513 500 q 503 407 503 436 q 501 357 503 378 q 489 322 499 336 q 461 302 479 308 q 410 296 443 296 q 333 318 361 296 q 304 392 304 340 l 304 425 q 300 462 304 444 q 279 493 296 479 q 244 508 265 504 q 201 512 224 511 q 158 514 179 513 q 118 524 136 515 q 90 550 100 532 q 79 603 79 568 q 161 688 79 688 q 201 685 181 688 q 240 682 221 682 q 274 692 260 682 q 297 719 288 703 q 311 753 307 735 q 315 788 315 771 q 311 826 315 807 q 307 865 307 846 q 317 906 307 892 q 342 928 326 921 q 378 938 357 936 q 419 940 399 940 m 204 253 q 315 247 260 253 q 426 240 371 240 l 614 240 q 691 223 657 240 q 725 156 725 206 q 724 142 725 149 q 722 129 724 136 q 678 83 715 100 q 592 56 640 65 q 498 45 544 47 q 426 43 451 43 q 372 44 406 43 q 301 49 339 44 q 224 60 263 53 q 153 82 185 68 q 103 117 122 96 q 83 167 83 138 q 94 210 83 193 q 123 236 106 226 q 162 249 140 246 q 204 253 183 253 z "},"":{"ha":569,"x_min":11,"x_max":558,"o":"m 306 994 q 394 983 350 994 q 474 947 439 971 q 533 885 510 922 q 556 799 556 849 q 534 717 556 751 q 480 659 513 683 q 409 617 447 635 q 338 586 371 600 q 284 559 306 572 q 263 529 263 546 q 286 494 263 506 q 329 482 310 482 q 371 488 351 482 q 408 500 390 493 q 442 513 426 507 q 471 518 457 518 q 535 493 511 518 q 558 429 558 468 q 532 377 558 396 q 469 350 506 358 q 392 340 432 342 q 325 338 353 338 q 242 340 294 338 q 138 353 189 342 q 49 388 86 364 q 11 457 11 413 q 37 531 11 499 q 101 592 63 564 q 185 645 140 621 q 269 692 231 669 q 334 738 308 715 q 360 788 360 761 q 343 833 360 815 q 299 850 326 850 q 260 842 278 850 q 225 822 242 833 l 192 799 q 157 779 175 788 q 118 771 139 771 q 48 792 74 771 q 22 860 22 813 q 45 932 22 906 q 103 972 68 958 q 178 990 138 986 q 253 994 218 994 l 306 994 z "},"":{"ha":597,"x_min":29,"x_max":563,"o":"m 350 833 q 339 866 350 857 q 306 875 328 875 q 256 861 276 875 q 217 831 236 847 q 179 801 199 815 q 131 788 160 788 q 74 809 99 788 q 49 864 49 831 q 77 936 49 910 q 147 976 106 963 q 233 993 188 989 q 310 997 278 997 q 392 992 347 997 q 474 972 436 988 q 537 927 511 957 q 563 849 563 897 q 550 795 563 821 q 523 747 538 769 q 496 708 508 725 q 483 681 483 692 q 495 661 483 671 q 522 638 507 651 q 548 607 536 625 q 560 563 560 589 q 535 462 560 504 q 472 391 511 419 q 383 349 433 363 q 281 336 333 336 q 170 349 224 336 q 79 407 117 361 q 44 459 60 431 q 29 518 29 488 q 49 569 29 549 q 99 590 68 590 q 156 577 136 590 q 190 547 175 564 q 222 517 204 531 q 271 504 239 504 q 316 519 299 504 q 333 564 333 535 q 321 607 333 594 q 290 624 308 619 q 251 628 272 628 q 211 633 229 628 q 181 651 193 638 q 168 697 168 665 q 195 749 168 736 q 254 761 222 761 q 286 766 269 761 q 317 780 303 771 q 341 802 332 789 q 350 833 350 815 z "},"":{"ha":439,"x_min":64,"x_max":329,"o":"m 250 1131 q 303 1110 278 1131 q 329 1061 329 1090 q 305 1008 329 1035 q 247 959 281 981 q 176 924 213 938 q 117 911 140 911 q 80 921 96 911 q 64 954 64 931 q 83 1011 64 981 q 131 1068 103 1042 q 192 1113 160 1094 q 250 1131 225 1131 z "},"":{"ha":940,"x_min":42,"x_max":874,"o":"m 597 801 q 567 665 575 735 q 560 525 560 596 q 568 319 560 421 q 576 114 576 218 q 576 52 576 92 q 570 -26 576 13 q 547 -92 564 -64 q 496 -119 529 -119 q 440 -98 461 -119 q 407 -42 419 -76 q 389 35 394 -7 q 379 119 383 78 q 369 198 375 161 q 351 257 363 235 q 305 304 335 290 q 240 326 275 318 q 170 344 206 335 q 106 378 135 353 q 60 452 78 404 q 42 585 42 500 q 62 726 42 669 q 117 820 82 783 q 201 876 153 857 q 306 905 249 896 q 427 916 364 914 q 556 921 490 918 q 575 922 565 921 q 594 922 585 922 q 717 903 663 922 q 808 822 772 885 q 840 742 828 789 q 860 644 853 694 q 871 546 868 594 q 874 458 874 497 q 872 385 874 436 q 863 268 869 333 q 847 133 857 203 q 820 6 836 64 q 782 -89 804 -51 q 731 -126 760 -126 q 719 -126 725 -126 q 708 -125 714 -125 q 665 -90 679 -125 q 647 -7 651 -54 q 644 86 643 40 q 644 153 644 132 q 647 324 644 239 q 650 494 650 408 q 649 561 650 528 q 647 628 649 594 l 647 664 q 646 708 647 683 q 640 753 644 732 q 624 788 635 774 q 597 801 614 801 z "},"":{"ha":357,"x_min":33,"x_max":329,"o":"m 33 406 q 74 508 33 468 q 179 549 114 549 q 286 513 243 549 q 329 413 329 476 q 317 357 329 383 q 286 311 306 331 q 240 281 267 292 q 182 269 213 269 q 77 306 121 269 q 33 406 33 343 z "},"":{"ha":356,"x_min":24,"x_max":304,"o":"m 204 -19 q 238 -35 219 -28 q 270 -53 256 -43 q 294 -76 285 -62 q 304 -112 304 -90 q 290 -165 304 -140 q 255 -207 276 -189 q 206 -235 233 -225 q 153 -246 179 -246 q 113 -240 135 -246 q 71 -222 90 -233 q 38 -194 51 -211 q 24 -157 24 -178 q 42 -116 24 -133 q 83 -99 60 -99 q 106 -104 96 -99 q 126 -116 117 -110 q 147 -128 136 -122 q 171 -133 158 -133 q 181 -125 178 -133 q 183 -111 183 -117 q 166 -90 183 -94 q 127 -83 149 -86 q 88 -74 106 -81 q 71 -43 71 -67 q 78 -12 71 -29 q 96 18 85 4 q 121 42 107 32 q 150 51 135 51 q 168 50 158 51 q 188 44 178 49 q 203 34 197 40 q 210 17 210 28 q 208 -1 210 7 q 204 -19 206 -10 z "},"":{"ha":472,"x_min":6,"x_max":465,"o":"m 261 1010 q 342 979 317 1010 q 368 896 368 949 q 355 738 368 817 q 342 581 342 660 q 342 552 342 569 q 347 519 343 535 q 360 491 351 503 q 385 479 368 479 q 439 466 413 479 q 465 419 465 453 q 442 381 465 394 q 385 360 418 367 q 320 351 353 353 q 271 350 288 350 q 222 350 251 350 q 160 351 192 350 q 99 356 128 353 q 53 364 69 358 q 22 380 33 371 q 10 413 10 389 q 28 458 10 444 q 76 472 47 472 q 129 495 110 472 q 158 550 149 518 q 171 617 168 582 q 174 675 174 651 q 173 705 174 683 q 170 750 172 726 q 163 792 168 774 q 146 810 157 810 q 135 801 140 810 q 121 781 131 792 q 96 762 111 771 q 54 753 81 753 q 18 776 31 753 q 6 818 6 799 q 33 890 6 856 q 99 951 60 925 q 183 994 139 978 q 261 1010 228 1010 z "},"":{"ha":599,"x_min":64,"x_max":536,"o":"m 67 689 q 84 787 67 742 q 133 865 101 832 q 208 917 164 899 q 306 936 253 936 q 398 915 357 936 q 467 860 439 894 q 510 782 494 826 q 525 689 525 738 q 510 591 525 638 q 465 510 494 544 q 393 456 436 476 q 296 436 350 436 q 199 456 242 436 q 126 510 156 476 q 82 591 97 544 q 67 689 67 638 m 251 697 q 253 667 251 685 q 260 635 254 650 q 275 610 265 621 q 303 600 285 600 q 328 610 319 600 q 342 635 338 621 q 347 666 346 650 q 347 694 347 682 q 347 723 347 707 q 341 753 346 739 q 326 776 336 767 q 299 786 317 786 q 274 776 283 786 q 260 753 265 767 q 253 724 254 739 q 251 697 251 708 m 311 406 q 379 413 346 406 q 447 419 413 419 q 477 417 461 419 q 506 407 493 414 q 528 388 519 400 q 536 360 536 376 q 516 324 536 339 q 465 299 496 308 q 395 284 433 289 q 321 277 357 279 q 255 274 285 275 q 210 274 225 274 q 162 276 188 274 q 114 286 136 278 q 78 312 92 294 q 64 360 64 329 q 71 391 64 379 q 90 409 78 403 q 117 417 101 415 q 149 418 132 418 q 230 412 189 418 q 311 406 271 406 z "},"":{"ha":871,"x_min":46,"x_max":844,"o":"m 597 336 q 547 369 579 351 q 484 408 515 388 q 430 451 453 428 q 407 503 407 475 q 433 550 407 535 q 488 565 460 565 q 547 556 511 565 q 623 528 583 546 q 702 488 663 511 q 774 438 742 464 q 825 383 806 411 q 844 328 844 356 q 822 269 844 299 q 767 216 799 240 q 700 173 735 192 q 642 146 665 154 q 525 124 582 124 q 495 126 515 124 q 455 133 475 128 q 419 147 435 138 q 404 172 404 157 q 417 201 404 186 q 451 233 431 217 q 494 265 471 249 q 540 294 518 281 q 577 318 561 307 q 597 336 593 329 m 239 335 q 189 368 221 350 q 126 406 157 386 q 72 450 94 426 q 49 501 49 474 q 75 549 49 533 q 129 564 101 564 q 189 554 153 564 q 265 527 225 544 q 344 486 304 510 q 415 436 383 463 q 467 382 447 410 q 486 326 486 354 q 463 268 486 297 q 408 215 440 239 q 342 172 376 190 q 283 144 307 153 q 167 122 224 122 q 137 124 157 122 q 97 131 117 126 q 61 146 76 136 q 46 171 46 156 q 59 200 46 185 q 92 231 72 215 q 136 263 113 247 q 181 292 160 279 q 219 317 203 306 q 239 335 235 328 z "},"":{"ha":1276,"x_min":-8,"x_max":1242,"o":"m 247 968 q 328 938 303 968 q 354 854 354 907 q 341 697 354 775 q 328 539 328 618 q 328 510 328 528 q 333 477 329 493 q 346 449 338 461 q 371 438 354 438 q 425 424 399 438 q 451 378 451 411 q 428 339 451 353 q 372 318 404 325 q 306 310 339 311 q 257 308 274 308 q 208 308 238 308 q 146 310 178 308 q 85 314 114 311 q 39 322 56 317 q 8 338 19 329 q -4 371 -4 347 q 15 417 -4 403 q 63 431 33 431 q 115 453 96 431 q 144 508 135 476 q 157 575 154 540 q 160 633 160 610 q 159 663 160 642 q 156 708 158 685 q 149 750 154 732 q 132 768 143 768 q 122 759 126 768 q 107 740 117 750 q 82 720 97 729 q 40 711 67 711 q 4 734 17 711 q -8 776 -8 757 q 19 849 -8 814 q 85 910 46 883 q 169 952 125 936 q 247 968 214 968 m 417 -83 q 381 -74 396 -83 q 358 -51 367 -65 q 346 -18 350 -36 q 342 17 342 0 q 359 117 342 61 q 403 233 376 172 q 465 358 431 294 q 535 483 500 422 q 602 597 571 543 q 656 692 633 651 q 694 765 672 724 q 744 845 717 807 q 803 912 771 883 q 876 947 836 940 q 898 951 888 950 q 919 953 908 953 q 945 949 932 953 q 970 939 958 946 q 990 922 982 932 q 997 896 997 911 q 982 831 997 874 q 942 735 967 788 q 889 625 918 683 q 831 513 860 567 q 779 415 803 460 q 742 344 756 371 q 708 275 728 317 q 665 188 689 233 q 613 96 640 142 q 556 12 586 50 q 492 -53 525 -26 q 426 -83 460 -79 l 417 -83 m 1089 625 q 1135 617 1118 625 q 1160 595 1151 610 q 1172 560 1169 581 q 1174 514 1174 539 q 1167 390 1174 451 q 1161 265 1161 328 q 1174 219 1161 229 q 1201 201 1186 208 q 1229 181 1217 194 q 1242 125 1242 168 q 1230 84 1242 96 q 1204 67 1218 72 q 1178 58 1190 63 q 1167 38 1167 54 q 1170 10 1167 24 q 1174 -17 1174 -3 q 1144 -81 1174 -60 q 1075 -101 1115 -101 q 1042 -98 1061 -101 q 1008 -86 1024 -94 q 982 -65 993 -78 q 971 -33 971 -51 q 983 7 971 -12 q 996 46 996 26 q 976 74 996 67 q 940 81 957 81 q 868 66 903 81 q 796 51 833 51 q 767 56 782 51 q 738 68 751 60 q 715 88 724 76 q 706 117 706 100 q 719 169 706 136 q 755 242 733 203 q 803 326 776 282 q 855 409 829 369 q 903 481 881 449 q 939 532 925 514 q 1003 599 968 572 q 1089 625 1038 625 m 986 208 q 997 217 993 208 q 1001 238 1000 226 q 1002 262 1003 250 q 1001 279 1001 274 q 1001 295 1001 285 q 1001 317 1001 306 q 1001 339 1001 329 q 997 351 1000 349 q 981 328 996 350 q 950 280 967 306 q 920 232 933 254 q 907 210 907 210 l 910 208 l 986 208 z "},"":{"ha":1397,"x_min":-8,"x_max":1364,"o":"m 247 968 q 328 938 303 968 q 354 854 354 907 q 341 697 354 775 q 328 539 328 618 q 328 510 328 528 q 333 477 329 493 q 346 449 338 461 q 371 438 354 438 q 425 424 399 438 q 451 378 451 411 q 428 339 451 353 q 372 318 404 325 q 306 310 339 311 q 257 308 274 308 q 208 308 238 308 q 146 310 178 308 q 85 314 114 311 q 39 322 56 317 q 8 338 19 329 q -4 371 -4 347 q 15 417 -4 403 q 63 431 33 431 q 115 453 96 431 q 144 508 135 476 q 157 575 154 540 q 160 633 160 610 q 159 663 160 642 q 156 708 158 685 q 149 750 154 732 q 132 768 143 768 q 122 759 126 768 q 107 740 117 750 q 82 720 97 729 q 40 711 67 711 q 4 734 17 711 q -8 776 -8 757 q 19 849 -8 814 q 85 910 46 883 q 169 952 125 936 q 247 968 214 968 m 417 -83 q 381 -74 396 -83 q 358 -51 367 -65 q 346 -18 350 -36 q 342 17 342 0 q 359 117 342 61 q 403 233 376 172 q 465 358 431 294 q 535 483 500 422 q 602 597 571 543 q 656 692 633 651 q 694 765 672 724 q 744 845 717 807 q 803 912 771 883 q 876 947 836 940 q 898 951 888 950 q 919 953 908 953 q 945 949 932 953 q 970 939 958 946 q 990 922 982 932 q 997 896 997 911 q 982 831 997 874 q 942 735 967 788 q 889 625 918 683 q 831 513 860 567 q 779 415 803 460 q 742 344 756 371 q 708 275 728 317 q 665 188 689 233 q 613 96 640 142 q 556 12 586 50 q 492 -53 525 -26 q 426 -83 460 -79 l 417 -83 m 1111 578 q 1200 566 1156 578 q 1280 530 1244 554 q 1338 469 1315 506 q 1361 382 1361 432 q 1340 301 1361 335 q 1285 242 1318 267 q 1215 201 1253 218 q 1144 169 1176 183 q 1090 142 1111 156 q 1068 113 1068 129 q 1092 77 1068 89 q 1135 65 1115 65 q 1176 71 1157 65 q 1214 83 1196 76 q 1247 96 1232 90 q 1276 101 1263 101 q 1340 76 1317 101 q 1364 13 1364 51 q 1338 -40 1364 -21 q 1274 -67 1311 -58 q 1198 -77 1238 -75 q 1131 -79 1158 -79 l 1119 -79 q 1038 -77 1089 -79 q 938 -63 988 -75 q 853 -28 889 -51 q 817 40 817 -4 q 842 115 817 82 q 907 176 868 147 q 991 228 946 204 q 1075 276 1036 253 q 1140 322 1114 299 q 1165 371 1165 344 q 1149 416 1165 399 q 1104 433 1132 433 q 1065 425 1083 433 q 1031 406 1047 417 l 997 382 q 963 363 981 371 q 924 354 944 354 q 853 375 879 354 q 828 443 828 396 q 851 515 828 489 q 908 556 874 542 q 983 574 943 569 q 1058 578 1024 578 l 1111 578 z "},"":{"ha":1293,"x_min":17,"x_max":1278,"o":"m 338 807 q 326 840 338 831 q 293 849 315 849 q 244 835 264 849 q 205 805 224 821 q 167 775 186 789 q 118 761 147 761 q 61 783 86 761 q 36 838 36 804 q 65 910 36 883 q 134 949 93 936 q 220 967 175 963 q 297 971 265 971 q 379 966 335 971 q 461 946 424 961 q 524 901 499 931 q 550 822 550 871 q 538 769 550 794 q 510 721 525 743 q 483 682 496 699 q 471 654 471 665 q 483 635 471 644 q 509 612 494 625 q 535 581 524 599 q 547 536 547 563 q 523 435 547 478 q 460 365 499 393 q 371 323 421 336 q 268 310 321 310 q 158 322 211 310 q 67 381 104 335 q 32 433 47 404 q 17 492 17 461 q 36 543 17 522 q 86 564 56 564 q 143 551 124 564 q 177 521 163 538 q 209 491 192 504 q 258 478 226 478 q 303 493 286 478 q 321 538 321 508 q 308 581 321 568 q 278 597 296 593 q 238 601 260 601 q 199 606 217 601 q 168 625 181 611 q 156 671 156 639 q 183 722 156 710 q 242 735 210 735 q 274 740 257 735 q 305 753 290 744 q 328 776 319 763 q 338 807 338 789 m 453 -83 q 417 -74 432 -83 q 394 -51 403 -65 q 382 -18 386 -36 q 378 17 378 0 q 395 117 378 61 q 440 233 413 172 q 501 358 467 294 q 572 483 536 422 q 638 597 607 543 q 692 692 669 651 q 731 765 708 724 q 780 845 753 807 q 840 912 807 883 q 913 947 872 940 q 934 951 924 950 q 956 953 944 953 q 981 949 968 953 q 1006 939 994 946 q 1026 922 1018 932 q 1033 896 1033 911 q 1018 831 1033 874 q 978 735 1003 788 q 925 625 954 683 q 867 513 896 567 q 815 415 839 460 q 778 344 792 371 q 744 275 764 317 q 701 188 725 233 q 649 96 676 142 q 592 12 622 50 q 528 -53 561 -26 q 463 -83 496 -79 l 453 -83 m 1125 625 q 1171 617 1154 625 q 1197 595 1188 610 q 1208 560 1206 581 q 1210 514 1210 539 q 1203 390 1210 451 q 1197 265 1197 328 q 1210 219 1197 229 q 1238 201 1222 208 q 1265 181 1253 194 q 1278 125 1278 168 q 1266 84 1278 96 q 1240 67 1254 72 q 1215 58 1226 63 q 1203 38 1203 54 q 1206 10 1203 24 q 1210 -17 1210 -3 q 1181 -81 1210 -60 q 1111 -101 1151 -101 q 1078 -98 1097 -101 q 1044 -86 1060 -94 q 1018 -65 1029 -78 q 1007 -33 1007 -51 q 1019 7 1007 -12 q 1032 46 1032 26 q 1013 74 1032 67 q 976 81 993 81 q 904 66 939 81 q 832 51 869 51 q 803 56 818 51 q 774 68 788 60 q 751 88 760 76 q 742 117 742 100 q 756 169 742 136 q 791 242 769 203 q 839 326 813 282 q 891 409 865 369 q 940 481 917 449 q 975 532 963 514 q 1039 599 1004 572 q 1125 625 1074 625 m 1022 208 q 1033 217 1029 208 q 1038 238 1036 226 q 1038 262 1039 250 q 1038 279 1038 274 q 1038 295 1038 285 q 1038 317 1038 306 q 1037 339 1038 329 q 1033 351 1036 349 q 1017 328 1032 350 q 986 280 1003 306 q 956 232 969 254 q 943 210 943 210 l 946 208 l 1022 208 z "},"":{"ha":685,"x_min":57,"x_max":644,"o":"m 501 699 q 466 623 501 647 q 383 599 431 599 q 340 603 363 599 q 301 620 318 608 q 272 649 283 632 q 261 692 261 667 q 272 734 261 715 q 301 765 283 753 q 340 785 318 778 q 382 792 361 792 q 424 786 403 792 q 463 769 446 781 q 490 740 479 757 q 501 699 501 722 m 644 18 q 613 -83 644 -40 q 533 -156 581 -126 q 428 -199 485 -185 q 322 -214 371 -214 q 217 -197 265 -214 q 133 -148 168 -181 q 77 -69 97 -115 q 57 38 57 -22 q 74 106 57 69 q 113 177 90 142 q 160 247 136 213 q 199 310 183 281 q 230 373 215 342 q 256 438 244 404 q 270 483 264 461 q 287 522 276 504 q 314 549 297 539 q 360 560 331 560 q 396 552 376 560 q 431 532 415 544 q 458 503 447 519 q 469 468 469 486 q 449 349 469 401 q 402 251 428 296 q 356 166 376 207 q 335 81 335 125 q 352 60 335 63 q 381 57 369 57 q 418 69 401 57 q 452 95 435 81 q 490 122 469 110 q 538 133 510 133 q 581 124 561 133 q 615 98 600 114 q 637 61 629 82 q 644 18 644 40 z "},"":{"ha":844,"x_min":4,"x_max":842,"o":"m 358 1139 q 424 1122 389 1139 q 490 1077 460 1104 q 540 1017 519 1050 q 560 953 560 985 q 544 920 560 928 q 507 913 528 913 q 441 925 479 913 q 369 959 403 938 q 310 1009 335 981 q 286 1069 286 1038 q 308 1118 286 1097 q 358 1139 331 1139 m 417 915 q 520 899 474 915 q 599 833 567 883 q 633 758 621 797 q 651 676 644 718 q 663 592 657 635 q 678 510 668 550 q 706 430 689 464 q 740 367 722 396 q 776 310 758 338 q 809 249 794 283 q 833 171 824 215 q 842 65 842 126 q 806 -41 842 3 q 703 -85 769 -85 q 632 -68 656 -85 q 595 -26 608 -51 q 572 29 582 0 q 544 84 563 58 q 490 126 525 110 q 392 143 456 143 q 335 126 356 143 q 301 83 314 108 q 280 26 289 57 q 257 -30 271 -4 q 220 -73 243 -56 q 157 -90 197 -90 q 94 -76 122 -90 q 45 -39 65 -62 q 15 15 25 -15 q 4 79 4 46 q 23 169 4 128 q 69 249 42 211 q 126 324 96 288 q 179 399 156 360 q 230 513 217 460 q 249 617 243 567 q 262 717 256 667 q 290 822 268 768 q 338 892 310 868 q 417 915 365 915 m 519 375 q 513 422 519 390 q 499 487 507 453 q 481 552 490 521 q 465 597 472 583 q 460 608 464 600 q 453 615 457 615 q 428 580 443 615 q 401 499 414 544 q 378 412 388 454 q 369 356 369 369 q 377 334 369 343 q 397 320 385 325 q 421 313 408 315 q 443 310 433 310 q 502 320 485 310 q 519 375 519 331 z "},"":{"ha":844,"x_min":4,"x_max":842,"o":"m 476 1131 q 530 1110 504 1131 q 556 1061 556 1090 q 531 1008 556 1035 q 473 959 507 981 q 403 924 439 938 q 343 911 367 911 q 306 921 322 911 q 290 954 290 931 q 310 1011 290 981 q 358 1068 329 1042 q 419 1113 386 1094 q 476 1131 451 1131 m 417 915 q 520 899 474 915 q 599 833 567 883 q 633 758 621 797 q 651 676 644 718 q 663 592 657 635 q 678 510 668 550 q 706 430 689 464 q 740 367 722 396 q 776 310 758 338 q 809 249 794 283 q 833 171 824 215 q 842 65 842 126 q 806 -41 842 3 q 703 -85 769 -85 q 632 -68 656 -85 q 595 -26 608 -51 q 572 29 582 0 q 544 84 563 58 q 490 126 525 110 q 392 143 456 143 q 335 126 356 143 q 301 83 314 108 q 280 26 289 57 q 257 -30 271 -4 q 220 -73 243 -56 q 157 -90 197 -90 q 94 -76 122 -90 q 45 -39 65 -62 q 15 15 25 -15 q 4 79 4 46 q 23 169 4 128 q 69 249 42 211 q 126 324 96 288 q 179 399 156 360 q 230 513 217 460 q 249 617 243 567 q 262 717 256 667 q 290 822 268 768 q 338 892 310 868 q 417 915 365 915 m 519 375 q 513 422 519 390 q 499 487 507 453 q 481 552 490 521 q 465 597 472 583 q 460 608 464 600 q 453 615 457 615 q 428 580 443 615 q 401 499 414 544 q 378 412 388 454 q 369 356 369 369 q 377 334 369 343 q 397 320 385 325 q 421 313 408 315 q 443 310 433 310 q 502 320 485 310 q 519 375 519 331 z "},"":{"ha":844,"x_min":4,"x_max":842,"o":"m 557 900 q 519 910 538 900 q 485 931 501 919 q 453 953 468 943 q 424 963 438 963 q 394 953 408 963 q 364 931 379 943 q 332 908 349 918 q 296 899 315 899 q 253 913 276 899 q 229 949 229 926 q 251 998 229 968 q 301 1056 272 1028 q 362 1106 331 1085 q 411 1126 393 1126 q 473 1110 438 1126 q 540 1067 508 1093 q 594 1011 572 1042 q 617 953 617 981 q 597 917 617 933 q 557 900 576 900 m 417 915 q 520 899 474 915 q 599 833 567 883 q 633 758 621 797 q 651 676 644 718 q 663 592 657 635 q 678 510 668 550 q 706 430 689 464 q 740 367 722 396 q 776 310 758 338 q 809 249 794 283 q 833 171 824 215 q 842 65 842 126 q 806 -41 842 3 q 703 -85 769 -85 q 632 -68 656 -85 q 595 -26 608 -51 q 572 29 582 0 q 544 84 563 58 q 490 126 525 110 q 392 143 456 143 q 335 126 356 143 q 301 83 314 108 q 280 26 289 57 q 257 -30 271 -4 q 220 -73 243 -56 q 157 -90 197 -90 q 94 -76 122 -90 q 45 -39 65 -62 q 15 15 25 -15 q 4 79 4 46 q 23 169 4 128 q 69 249 42 211 q 126 324 96 288 q 179 399 156 360 q 230 513 217 460 q 249 617 243 567 q 262 717 256 667 q 290 822 268 768 q 338 892 310 868 q 417 915 365 915 m 519 375 q 513 422 519 390 q 499 487 507 453 q 481 552 490 521 q 465 597 472 583 q 460 608 464 600 q 453 615 457 615 q 428 580 443 615 q 401 499 414 544 q 378 412 388 454 q 369 356 369 369 q 377 334 369 343 q 397 320 385 325 q 421 313 408 315 q 443 310 433 310 q 502 320 485 310 q 519 375 519 331 z "},"":{"ha":844,"x_min":4,"x_max":842,"o":"m 310 1161 q 361 1148 338 1161 q 405 1118 385 1135 q 442 1088 425 1101 q 475 1075 460 1075 q 502 1083 492 1075 q 522 1101 513 1090 l 542 1125 q 562 1144 551 1136 q 589 1151 572 1151 q 638 1124 622 1151 q 653 1068 653 1097 q 645 1013 653 1042 q 622 959 638 983 q 583 919 606 935 q 529 903 560 903 q 477 915 503 903 q 429 942 451 928 q 388 969 407 957 q 357 982 369 982 q 338 972 344 982 q 322 951 331 963 q 302 931 314 940 q 268 921 290 921 q 211 946 231 921 q 192 1007 192 971 q 199 1059 192 1032 q 222 1109 207 1086 q 258 1147 236 1132 q 310 1161 281 1161 m 417 915 q 520 899 474 915 q 599 833 567 883 q 633 758 621 797 q 651 676 644 718 q 663 592 657 635 q 678 510 668 550 q 706 430 689 464 q 740 367 722 396 q 776 310 758 338 q 809 249 794 283 q 833 171 824 215 q 842 65 842 126 q 806 -41 842 3 q 703 -85 769 -85 q 632 -68 656 -85 q 595 -26 608 -51 q 572 29 582 0 q 544 84 563 58 q 490 126 525 110 q 392 143 456 143 q 335 126 356 143 q 301 83 314 108 q 280 26 289 57 q 257 -30 271 -4 q 220 -73 243 -56 q 157 -90 197 -90 q 94 -76 122 -90 q 45 -39 65 -62 q 15 15 25 -15 q 4 79 4 46 q 23 169 4 128 q 69 249 42 211 q 126 324 96 288 q 179 399 156 360 q 230 513 217 460 q 249 617 243 567 q 262 717 256 667 q 290 822 268 768 q 338 892 310 868 q 417 915 365 915 m 519 375 q 513 422 519 390 q 499 487 507 453 q 481 552 490 521 q 465 597 472 583 q 460 608 464 600 q 453 615 457 615 q 428 580 443 615 q 401 499 414 544 q 378 412 388 454 q 369 356 369 369 q 377 334 369 343 q 397 320 385 325 q 421 313 408 315 q 443 310 433 310 q 502 320 485 310 q 519 375 519 331 z "},"":{"ha":844,"x_min":4,"x_max":842,"o":"m 436 1014 q 462 1074 436 1051 q 524 1097 488 1097 q 585 1074 560 1097 q 610 1014 610 1051 q 588 952 610 978 q 529 926 567 926 q 464 951 492 926 q 436 1014 436 975 m 236 1010 q 262 1069 236 1046 q 324 1093 288 1093 q 385 1070 360 1093 q 411 1010 411 1047 q 390 948 411 974 q 331 922 368 922 q 265 947 294 922 q 236 1010 236 972 m 417 915 q 520 899 474 915 q 599 833 567 883 q 633 758 621 797 q 651 676 644 718 q 663 592 657 635 q 678 510 668 550 q 706 430 689 464 q 740 367 722 396 q 776 310 758 338 q 809 249 794 283 q 833 171 824 215 q 842 65 842 126 q 806 -41 842 3 q 703 -85 769 -85 q 632 -68 656 -85 q 595 -26 608 -51 q 572 29 582 0 q 544 84 563 58 q 490 126 525 110 q 392 143 456 143 q 335 126 356 143 q 301 83 314 108 q 280 26 289 57 q 257 -30 271 -4 q 220 -73 243 -56 q 157 -90 197 -90 q 94 -76 122 -90 q 45 -39 65 -62 q 15 15 25 -15 q 4 79 4 46 q 23 169 4 128 q 69 249 42 211 q 126 324 96 288 q 179 399 156 360 q 230 513 217 460 q 249 617 243 567 q 262 717 256 667 q 290 822 268 768 q 338 892 310 868 q 417 915 365 915 m 519 375 q 513 422 519 390 q 499 487 507 453 q 481 552 490 521 q 465 597 472 583 q 460 608 464 600 q 453 615 457 615 q 428 580 443 615 q 401 499 414 544 q 378 412 388 454 q 369 356 369 369 q 377 334 369 343 q 397 320 385 325 q 421 313 408 315 q 443 310 433 310 q 502 320 485 310 q 519 375 519 331 z "},"":{"ha":844,"x_min":4,"x_max":842,"o":"m 256 1032 q 272 1089 256 1065 q 312 1128 288 1113 q 366 1150 336 1143 q 425 1157 396 1157 q 484 1150 454 1157 q 537 1127 514 1143 q 574 1087 560 1111 q 589 1029 589 1063 q 553 948 589 975 q 471 913 517 921 q 543 889 511 907 q 599 833 575 871 q 633 758 621 797 q 651 676 644 718 q 663 592 657 635 q 678 510 668 550 q 706 430 689 464 q 740 367 722 396 q 776 310 758 338 q 809 249 794 283 q 833 171 824 215 q 842 65 842 126 q 806 -41 842 3 q 703 -85 769 -85 q 632 -68 656 -85 q 595 -26 608 -51 q 572 29 582 0 q 544 84 563 58 q 490 126 525 110 q 392 143 456 143 q 335 126 356 143 q 301 83 314 108 q 280 26 289 57 q 257 -30 271 -4 q 220 -73 243 -56 q 157 -90 197 -90 q 94 -76 122 -90 q 45 -39 65 -62 q 15 15 25 -15 q 4 79 4 46 q 23 169 4 128 q 69 249 42 211 q 126 324 96 288 q 179 399 156 360 q 230 513 217 460 q 249 617 243 567 q 262 717 256 667 q 290 822 268 768 q 327 883 306 860 q 383 913 349 906 q 337 926 360 917 q 296 949 314 935 q 267 984 278 964 q 256 1032 256 1004 m 428 1007 q 454 1032 454 1007 q 446 1049 454 1044 q 426 1054 438 1054 q 408 1050 415 1054 q 400 1033 400 1046 q 428 1007 400 1007 m 519 375 q 513 422 519 390 q 499 487 507 453 q 481 552 490 521 q 465 597 472 583 q 460 608 464 600 q 453 615 457 615 q 428 580 443 615 q 401 499 414 544 q 378 412 388 454 q 369 356 369 369 q 377 334 369 343 q 397 320 385 325 q 421 313 408 315 q 443 310 433 310 q 502 320 485 310 q 519 375 519 331 z "},"":{"ha":1228,"x_min":4,"x_max":1210,"o":"m 417 915 q 519 900 472 915 q 597 836 565 885 q 633 894 607 872 q 710 915 658 915 q 766 913 738 915 q 822 911 794 911 q 899 913 861 911 q 975 915 936 915 q 1041 913 1006 915 q 1107 898 1076 910 q 1158 863 1138 886 q 1178 800 1178 840 q 1172 742 1178 769 q 1153 692 1167 714 q 1116 658 1139 671 q 1058 646 1093 646 q 1024 650 1040 646 q 990 661 1007 654 l 957 674 q 924 685 940 681 q 889 689 907 689 q 851 679 865 689 q 830 654 838 669 q 820 619 822 639 q 818 581 818 600 q 824 536 818 551 q 843 515 831 521 q 875 510 856 510 q 919 510 894 510 q 975 512 947 510 q 1031 514 1003 514 q 1068 513 1049 514 q 1103 504 1088 511 q 1130 484 1119 497 q 1140 447 1140 471 q 1124 398 1140 417 q 1083 369 1107 379 q 1031 357 1058 360 q 979 354 1003 354 q 941 356 960 354 q 906 358 922 358 q 853 344 874 358 q 833 282 833 331 q 854 199 833 231 q 932 168 875 168 q 1012 181 972 168 q 1092 194 1051 194 q 1177 160 1144 194 q 1210 75 1210 126 q 1178 -3 1210 25 q 1103 -47 1147 -32 q 1010 -65 1058 -61 q 925 -68 961 -68 q 851 -67 888 -68 q 782 -61 815 -65 q 703 -85 750 -85 q 632 -68 656 -85 q 595 -26 608 -51 q 572 29 582 0 q 544 84 563 58 q 490 126 525 110 q 392 143 456 143 q 335 126 356 143 q 301 83 314 108 q 280 26 289 57 q 257 -30 271 -4 q 220 -73 243 -56 q 157 -90 197 -90 q 94 -76 122 -90 q 45 -39 65 -62 q 15 15 25 -15 q 4 79 4 46 q 23 169 4 128 q 69 249 42 211 q 126 324 96 288 q 179 399 156 360 q 230 513 217 460 q 249 617 243 567 q 262 717 256 667 q 290 822 268 768 q 338 892 310 868 q 417 915 365 915 m 519 375 q 513 422 519 390 q 499 487 507 453 q 481 552 490 521 q 465 597 472 583 q 460 608 464 600 q 453 615 457 615 q 428 580 443 615 q 401 499 414 544 q 378 412 388 454 q 369 356 369 369 q 377 334 369 343 q 397 320 385 325 q 421 313 408 315 q 443 310 433 310 q 502 320 485 310 q 519 375 519 331 z "},"":{"ha":756,"x_min":32,"x_max":747,"o":"m 32 363 q 53 555 32 457 q 123 734 75 653 q 248 867 171 815 q 436 918 325 918 q 535 906 485 918 q 627 867 586 893 q 694 801 668 842 q 721 703 721 760 q 717 649 721 674 q 701 607 713 625 q 669 579 689 589 q 615 569 649 569 q 575 573 594 569 q 540 585 556 576 q 516 610 525 594 q 507 649 507 625 q 499 683 507 667 q 477 713 490 700 q 447 735 464 726 q 411 743 429 743 q 379 735 394 743 q 351 715 364 726 q 305 653 324 690 q 276 576 286 617 q 261 493 265 535 q 257 415 257 451 q 264 343 257 382 q 288 272 271 304 q 333 219 304 240 q 403 197 361 197 q 458 216 433 197 q 507 256 482 235 q 563 297 532 278 q 638 315 594 315 q 680 305 660 315 q 715 278 700 294 q 738 240 729 261 q 747 197 747 218 q 728 94 747 139 q 677 15 710 49 q 601 -40 644 -18 q 508 -75 557 -62 q 518 -112 518 -89 q 504 -165 518 -140 q 469 -207 490 -189 q 420 -235 447 -225 q 367 -246 393 -246 q 326 -240 349 -246 q 285 -222 304 -233 q 251 -194 265 -211 q 238 -157 238 -178 q 256 -116 238 -133 q 297 -99 274 -99 q 320 -104 310 -99 q 340 -116 331 -110 q 361 -128 350 -122 q 385 -133 372 -133 q 394 -125 392 -133 q 397 -111 397 -117 q 374 -89 397 -96 q 203 -51 269 -86 q 99 45 138 -15 q 47 187 61 106 q 32 363 32 268 z "},"":{"ha":675,"x_min":14,"x_max":657,"o":"m 657 75 q 626 -3 657 25 q 550 -47 594 -32 q 457 -65 506 -61 q 372 -68 408 -68 q 235 -62 300 -68 q 122 -33 171 -57 q 43 41 72 -8 q 14 176 14 90 q 23 261 14 219 q 43 343 32 303 q 63 424 54 383 q 72 508 72 465 q 67 572 72 540 q 54 636 61 604 q 42 700 47 668 q 36 764 36 732 q 41 825 36 797 q 60 873 46 853 q 97 904 74 893 q 157 915 119 915 q 213 913 185 915 q 269 911 242 911 q 333 913 301 911 q 396 915 364 914 q 333 935 367 921 q 269 969 299 949 q 221 1016 240 990 q 201 1069 201 1042 q 224 1118 201 1097 q 274 1139 246 1139 q 340 1122 304 1139 q 405 1077 375 1104 q 455 1017 435 1050 q 475 953 475 985 q 467 926 475 935 q 446 915 458 918 q 507 910 475 914 q 565 893 539 906 q 608 858 592 881 q 625 800 625 836 q 619 742 625 769 q 600 692 614 714 q 563 658 586 671 q 506 646 540 646 q 463 653 483 646 q 421 667 442 660 q 379 682 400 675 q 336 689 358 689 q 299 679 313 689 q 277 654 285 669 q 267 619 269 639 q 265 581 265 600 q 272 536 265 551 q 290 515 278 521 q 322 510 303 510 q 367 510 342 510 q 422 512 394 510 q 478 514 450 514 q 515 513 496 514 q 551 504 535 511 q 577 484 567 497 q 588 447 588 471 q 571 398 588 417 q 530 369 554 379 q 478 357 506 360 q 426 354 450 354 q 388 356 407 354 q 353 358 369 358 q 301 344 321 358 q 281 282 281 331 q 301 199 281 231 q 379 168 322 168 q 459 181 419 168 q 539 194 499 194 q 624 160 592 194 q 657 75 657 126 z "},"":{"ha":675,"x_min":14,"x_max":657,"o":"m 657 75 q 626 -3 657 25 q 550 -47 594 -32 q 457 -65 506 -61 q 372 -68 408 -68 q 235 -62 300 -68 q 122 -33 171 -57 q 43 41 72 -8 q 14 176 14 90 q 23 261 14 219 q 43 343 32 303 q 63 424 54 383 q 72 508 72 465 q 67 572 72 540 q 54 636 61 604 q 42 700 47 668 q 36 764 36 732 q 41 825 36 797 q 60 873 46 853 q 97 904 74 893 q 157 915 119 915 q 203 914 181 915 q 250 911 226 913 q 219 923 232 914 q 206 954 206 932 q 225 1011 206 981 q 273 1068 244 1042 q 334 1113 301 1094 q 392 1131 367 1131 q 445 1110 419 1131 q 471 1061 471 1090 q 447 1008 471 1035 q 390 960 424 982 q 322 926 357 939 q 261 911 286 913 l 269 911 q 346 913 308 911 q 422 915 383 915 q 488 913 453 915 q 554 898 524 910 q 605 863 585 886 q 625 800 625 840 q 619 742 625 769 q 600 692 614 714 q 563 658 586 671 q 506 646 540 646 q 463 653 483 646 q 421 667 442 660 q 379 682 400 675 q 336 689 358 689 q 299 679 313 689 q 277 654 285 669 q 267 619 269 639 q 265 581 265 600 q 272 536 265 551 q 290 515 278 521 q 322 510 303 510 q 367 510 342 510 q 422 512 394 510 q 478 514 450 514 q 515 513 496 514 q 551 504 535 511 q 577 484 567 497 q 588 447 588 471 q 571 398 588 417 q 530 369 554 379 q 478 357 506 360 q 426 354 450 354 q 388 356 407 354 q 353 358 369 358 q 301 344 321 358 q 281 282 281 331 q 301 199 281 231 q 379 168 322 168 q 459 181 419 168 q 539 194 499 194 q 624 160 592 194 q 657 75 657 126 z "},"":{"ha":675,"x_min":14,"x_max":657,"o":"m 657 75 q 626 -3 657 25 q 550 -47 594 -32 q 457 -65 506 -61 q 372 -68 408 -68 q 235 -62 300 -68 q 122 -33 171 -57 q 43 41 72 -8 q 14 176 14 90 q 23 261 14 219 q 43 343 32 303 q 63 424 54 383 q 72 508 72 465 q 67 572 72 540 q 54 636 61 604 q 42 700 47 668 q 36 764 36 732 q 61 875 36 835 q 164 915 86 915 q 144 949 144 931 q 166 998 144 968 q 217 1056 188 1028 q 277 1106 246 1085 q 326 1126 308 1126 q 388 1110 353 1126 q 456 1067 424 1093 q 510 1011 488 1042 q 532 953 532 981 q 523 928 532 940 q 503 910 514 917 q 549 899 526 906 q 588 879 571 892 q 615 847 604 867 q 625 800 625 828 q 619 742 625 769 q 600 692 614 714 q 563 658 586 671 q 506 646 540 646 q 463 653 483 646 q 421 667 442 660 q 379 682 400 675 q 336 689 358 689 q 299 679 313 689 q 277 654 285 669 q 267 619 269 639 q 265 581 265 600 q 272 536 265 551 q 290 515 278 521 q 322 510 303 510 q 367 510 342 510 q 422 512 394 510 q 478 514 450 514 q 515 513 496 514 q 551 504 535 511 q 577 484 567 497 q 588 447 588 471 q 571 398 588 417 q 530 369 554 379 q 478 357 506 360 q 426 354 450 354 q 388 356 407 354 q 353 358 369 358 q 301 344 321 358 q 281 282 281 331 q 301 199 281 231 q 379 168 322 168 q 459 181 419 168 q 539 194 499 194 q 624 160 592 194 q 657 75 657 126 m 253 911 l 269 911 q 346 913 308 911 q 422 915 383 915 q 378 946 399 929 q 339 963 358 963 q 297 944 317 963 q 253 911 276 925 z "},"":{"ha":675,"x_min":14,"x_max":657,"o":"m 351 1014 q 377 1074 351 1051 q 439 1097 403 1097 q 500 1074 475 1097 q 525 1014 525 1051 q 503 952 525 978 q 444 926 482 926 q 379 951 407 926 q 351 1014 351 975 m 151 1010 q 177 1069 151 1046 q 239 1093 203 1093 q 301 1070 275 1093 q 326 1010 326 1047 q 305 948 326 974 q 246 922 283 922 q 181 947 210 922 q 151 1010 151 972 m 657 75 q 626 -3 657 25 q 550 -47 594 -32 q 457 -65 506 -61 q 372 -68 408 -68 q 235 -62 300 -68 q 122 -33 171 -57 q 43 41 72 -8 q 14 176 14 90 q 23 261 14 219 q 43 343 32 303 q 63 424 54 383 q 72 508 72 465 q 67 572 72 540 q 54 636 61 604 q 42 700 47 668 q 36 764 36 732 q 41 825 36 797 q 60 873 46 853 q 97 904 74 893 q 157 915 119 915 q 213 913 185 915 q 269 911 242 911 q 346 913 308 911 q 422 915 383 915 q 488 913 453 915 q 554 898 524 910 q 605 863 585 886 q 625 800 625 840 q 619 742 625 769 q 600 692 614 714 q 563 658 586 671 q 506 646 540 646 q 463 653 483 646 q 421 667 442 660 q 379 682 400 675 q 336 689 358 689 q 299 679 313 689 q 277 654 285 669 q 267 619 269 639 q 265 581 265 600 q 272 536 265 551 q 290 515 278 521 q 322 510 303 510 q 367 510 342 510 q 422 512 394 510 q 478 514 450 514 q 515 513 496 514 q 551 504 535 511 q 577 484 567 497 q 588 447 588 471 q 571 398 588 417 q 530 369 554 379 q 478 357 506 360 q 426 354 450 354 q 388 356 407 354 q 353 358 369 358 q 301 344 321 358 q 281 282 281 331 q 301 199 281 231 q 379 168 322 168 q 459 181 419 168 q 539 194 499 194 q 624 160 592 194 q 657 75 657 126 z "},"":{"ha":329,"x_min":28,"x_max":301,"o":"m 100 1139 q 166 1122 131 1139 q 231 1077 201 1104 q 281 1017 261 1050 q 301 953 301 985 q 285 920 301 928 q 249 913 269 913 q 183 925 221 913 q 110 959 144 938 q 52 1009 76 981 q 28 1069 28 1038 q 50 1118 28 1097 q 100 1139 72 1139 m 161 858 q 258 817 232 858 q 285 711 285 776 q 278 593 285 651 q 271 475 271 535 q 285 317 271 396 q 300 160 300 239 q 294 92 300 128 q 274 25 289 56 q 235 -26 260 -6 q 169 -46 210 -46 q 102 -32 129 -46 q 58 6 75 -18 q 35 61 42 29 q 28 129 28 93 q 31 167 28 149 q 38 204 35 185 q 58 325 49 265 q 67 447 67 385 q 57 577 67 514 q 47 707 47 640 q 51 765 47 738 q 68 814 56 793 q 103 847 81 835 q 161 858 125 858 z "},"":{"ha":329,"x_min":28,"x_max":300,"o":"m 218 1131 q 272 1110 246 1131 q 297 1061 297 1090 q 273 1008 297 1035 q 215 959 249 981 q 144 924 181 938 q 85 911 108 911 q 48 921 64 911 q 32 954 32 931 q 51 1011 32 981 q 99 1068 71 1042 q 160 1113 128 1094 q 218 1131 193 1131 m 161 858 q 258 817 232 858 q 285 711 285 776 q 278 593 285 651 q 271 475 271 535 q 285 317 271 396 q 300 160 300 239 q 294 92 300 128 q 274 25 289 56 q 235 -26 260 -6 q 169 -46 210 -46 q 102 -32 129 -46 q 58 6 75 -18 q 35 61 42 29 q 28 129 28 93 q 31 167 28 149 q 38 204 35 185 q 58 325 49 265 q 67 447 67 385 q 57 577 67 514 q 47 707 47 640 q 51 765 47 738 q 68 814 56 793 q 103 847 81 835 q 161 858 125 858 z "},"":{"ha":329,"x_min":-29,"x_max":358,"o":"m 299 900 q 261 910 279 900 q 226 931 243 919 q 194 953 210 943 q 165 963 179 963 q 135 953 150 963 q 106 931 121 943 q 74 908 90 918 q 38 899 57 899 q -6 913 18 899 q -29 949 -29 926 q -8 998 -29 968 q 43 1056 14 1028 q 103 1106 72 1085 q 153 1126 135 1126 q 215 1110 179 1126 q 282 1067 250 1093 q 336 1011 314 1042 q 358 953 358 981 q 338 917 358 933 q 299 900 318 900 m 161 858 q 258 817 232 858 q 285 711 285 776 q 278 593 285 651 q 271 475 271 535 q 285 317 271 396 q 300 160 300 239 q 294 92 300 128 q 274 25 289 56 q 235 -26 260 -6 q 169 -46 210 -46 q 102 -32 129 -46 q 58 6 75 -18 q 35 61 42 29 q 28 129 28 93 q 31 167 28 149 q 38 204 35 185 q 58 325 49 265 q 67 447 67 385 q 57 577 67 514 q 47 707 47 640 q 51 765 47 738 q 68 814 56 793 q 103 847 81 835 q 161 858 125 858 z "},"":{"ha":329,"x_min":-22,"x_max":351,"o":"m 178 1014 q 203 1074 178 1051 q 265 1097 229 1097 q 326 1074 301 1097 q 351 1014 351 1051 q 330 952 351 978 q 271 926 308 926 q 206 951 233 926 q 178 1014 178 975 m -22 1010 q 3 1069 -22 1046 q 65 1093 29 1093 q 127 1070 101 1093 q 153 1010 153 1047 q 131 948 153 974 q 72 922 110 922 q 7 947 36 922 q -22 1010 -22 972 m 161 858 q 258 817 232 858 q 285 711 285 776 q 278 593 285 651 q 271 475 271 535 q 285 317 271 396 q 300 160 300 239 q 294 92 300 128 q 274 25 289 56 q 235 -26 260 -6 q 169 -46 210 -46 q 102 -32 129 -46 q 58 6 75 -18 q 35 61 42 29 q 28 129 28 93 q 31 167 28 149 q 38 204 35 185 q 58 325 49 265 q 67 447 67 385 q 57 577 67 514 q 47 707 47 640 q 51 765 47 738 q 68 814 56 793 q 103 847 81 835 q 161 858 125 858 z "},"":{"ha":746,"x_min":-56,"x_max":714,"o":"m 29 794 q 46 871 29 844 q 90 908 63 897 q 155 919 118 918 q 232 919 192 919 q 443 873 353 919 q 594 749 533 826 q 684 569 654 671 q 714 356 714 467 q 678 172 714 251 q 581 37 643 92 q 434 -47 519 -18 q 249 -75 349 -75 q 160 -70 203 -75 q 85 -48 117 -65 q 33 3 53 -31 q 14 92 14 36 q 28 221 14 158 q 54 347 43 283 q -23 385 10 360 q -56 456 -56 411 q -46 494 -56 479 q -20 519 -36 510 q 16 534 -4 529 q 56 540 36 539 q 37 667 44 604 q 29 794 29 729 m 339 682 q 297 663 307 682 q 279 617 286 643 q 267 538 271 581 q 322 535 290 538 q 383 523 354 532 q 433 497 413 514 q 454 447 454 479 q 436 401 454 421 q 390 369 418 382 q 329 348 363 356 q 264 336 296 340 q 266 313 265 325 q 268 289 267 300 q 271 252 269 272 q 277 213 272 232 q 294 182 282 194 q 329 169 307 169 q 402 193 374 169 q 447 252 431 217 q 468 328 463 288 q 474 404 474 369 q 468 481 474 433 q 447 572 463 528 q 406 649 432 617 q 339 682 379 682 z "},"":{"ha":744,"x_min":14,"x_max":726,"o":"m 264 472 q 248 458 254 472 q 238 424 242 443 q 233 387 235 404 q 232 363 232 369 q 244 247 232 304 q 256 131 256 189 q 250 71 256 101 q 230 15 244 40 q 192 -25 215 -10 q 133 -40 169 -40 q 72 -22 96 -40 q 36 24 49 -4 q 19 85 24 51 q 14 147 14 118 q 26 298 14 224 q 39 449 39 372 q 35 589 39 519 q 31 729 31 658 q 34 799 31 764 q 51 862 38 833 q 90 908 64 890 q 160 925 115 925 q 257 896 217 925 q 317 814 297 867 q 335 768 322 801 q 364 692 347 735 q 399 604 381 650 q 436 520 418 558 q 469 458 454 482 q 492 433 483 433 q 522 450 510 433 q 540 488 533 467 q 549 533 546 510 q 551 568 551 556 q 542 641 551 607 q 520 706 532 675 q 499 768 508 738 q 489 829 489 799 q 519 911 489 872 q 479 903 501 903 q 427 915 453 903 q 379 942 401 928 q 338 969 357 957 q 307 982 319 982 q 288 972 294 982 q 272 951 281 963 q 252 931 264 940 q 218 921 240 921 q 161 946 181 921 q 142 1007 142 971 q 149 1059 142 1032 q 172 1109 157 1086 q 208 1147 186 1132 q 260 1161 231 1161 q 311 1148 288 1161 q 355 1118 335 1135 q 392 1088 375 1101 q 425 1075 410 1075 q 452 1083 442 1075 q 472 1101 463 1090 l 492 1125 q 512 1144 501 1136 q 539 1151 522 1151 q 588 1124 572 1151 q 603 1068 603 1097 q 594 1009 603 1040 q 567 953 585 978 q 614 965 590 965 q 685 932 663 965 q 717 852 708 899 q 726 756 726 806 q 725 674 725 706 q 726 536 725 610 q 724 388 726 463 q 716 240 722 313 q 694 106 710 168 q 679 57 689 82 q 655 11 669 32 q 619 -23 640 -10 q 569 -36 599 -36 q 492 -12 526 -36 q 431 50 458 11 q 384 138 404 89 q 348 235 364 186 q 320 328 332 283 q 299 406 308 374 q 294 421 297 410 q 287 444 292 432 q 276 464 282 456 q 264 472 271 472 z "},"":{"ha":726,"x_min":31,"x_max":693,"o":"m 299 1139 q 365 1122 329 1139 q 430 1077 400 1104 q 480 1017 460 1050 q 500 953 500 985 q 484 920 500 928 q 447 913 468 913 q 381 925 419 913 q 309 959 343 938 q 251 1009 275 981 q 226 1069 226 1038 q 249 1118 226 1097 q 299 1139 271 1139 m 343 921 q 477 892 421 921 q 572 816 533 864 q 635 706 611 768 q 672 577 658 644 q 689 442 685 510 q 693 315 693 374 q 607 47 693 140 q 343 -46 521 -46 q 104 26 178 -46 q 31 264 31 97 q 35 382 31 314 q 50 523 39 450 q 83 667 61 596 q 139 795 104 739 q 224 886 174 851 q 343 921 274 921 m 264 415 q 267 353 264 392 q 281 276 271 314 q 313 212 292 239 q 367 185 333 185 q 422 211 400 185 q 454 274 443 238 q 469 350 465 311 q 474 414 474 389 q 470 483 474 439 q 456 568 467 526 q 424 640 444 610 q 367 671 403 671 q 311 640 332 671 q 280 568 290 610 q 267 483 269 526 q 264 415 264 440 z "},"":{"ha":726,"x_min":31,"x_max":693,"o":"m 343 921 q 477 892 421 921 q 572 816 533 864 q 635 706 611 768 q 672 577 658 644 q 689 442 685 510 q 693 315 693 374 q 607 47 693 140 q 343 -46 521 -46 q 104 26 178 -46 q 31 264 31 97 q 34 371 31 310 q 47 498 38 432 q 72 631 56 564 q 117 754 89 697 q 184 853 144 811 q 278 911 224 894 q 244 922 258 913 q 231 954 231 932 q 250 1011 231 981 q 298 1068 269 1042 q 359 1113 326 1094 q 417 1131 392 1131 q 470 1110 444 1131 q 496 1061 496 1090 q 480 1019 496 1040 q 440 978 464 997 q 388 944 417 960 q 332 921 358 929 l 343 921 m 264 415 q 267 353 264 392 q 281 276 271 314 q 313 212 292 239 q 367 185 333 185 q 422 211 400 185 q 454 274 443 238 q 469 350 465 311 q 474 414 474 389 q 470 483 474 439 q 456 568 467 526 q 424 640 444 610 q 367 671 403 671 q 311 640 332 671 q 280 568 290 610 q 267 483 269 526 q 264 415 264 440 z "},"":{"ha":726,"x_min":31,"x_max":693,"o":"m 343 921 q 477 892 421 921 q 572 816 533 864 q 635 706 611 768 q 672 577 658 644 q 689 442 685 510 q 693 315 693 374 q 607 47 693 140 q 343 -46 521 -46 q 104 26 178 -46 q 31 264 31 97 q 33 365 31 307 q 44 485 36 422 q 67 613 53 549 q 106 733 82 676 q 165 833 131 789 q 247 900 200 878 q 242 899 244 900 q 236 899 239 899 q 193 913 217 899 q 169 949 169 926 q 191 998 169 968 q 242 1056 213 1028 q 302 1106 271 1085 q 351 1126 333 1126 q 413 1110 378 1126 q 481 1067 449 1093 q 535 1011 513 1042 q 557 953 557 981 q 537 917 557 933 q 497 900 517 900 q 460 910 478 900 q 425 931 442 919 q 393 953 408 943 q 364 963 378 963 q 322 944 342 963 q 278 911 301 925 q 309 918 293 915 q 343 921 325 921 m 264 415 q 267 353 264 392 q 281 276 271 314 q 313 212 292 239 q 367 185 333 185 q 422 211 400 185 q 454 274 443 238 q 469 350 465 311 q 474 414 474 389 q 470 483 474 439 q 456 568 467 526 q 424 640 444 610 q 367 671 403 671 q 311 640 332 671 q 280 568 290 610 q 267 483 269 526 q 264 415 264 440 z "},"":{"ha":726,"x_min":31,"x_max":693,"o":"m 251 1161 q 303 1148 279 1161 q 347 1118 326 1135 q 384 1088 367 1101 q 417 1075 401 1075 q 444 1083 433 1075 q 464 1101 454 1090 l 483 1125 q 503 1144 493 1136 q 531 1151 514 1151 q 579 1124 564 1151 q 594 1068 594 1097 q 587 1013 594 1042 q 563 959 579 983 q 524 919 547 935 q 471 903 501 903 q 419 915 444 903 q 371 942 393 928 q 330 969 349 957 q 299 982 311 982 q 279 972 286 982 q 264 951 272 963 q 244 931 256 940 q 210 921 232 921 q 153 946 172 921 q 133 1007 133 971 q 141 1059 133 1032 q 163 1109 149 1086 q 200 1147 178 1132 q 251 1161 222 1161 m 343 921 q 477 892 421 921 q 572 816 533 864 q 635 706 611 768 q 672 577 658 644 q 689 442 685 510 q 693 315 693 374 q 607 47 693 140 q 343 -46 521 -46 q 104 26 178 -46 q 31 264 31 97 q 35 382 31 314 q 50 523 39 450 q 83 667 61 596 q 139 795 104 739 q 224 886 174 851 q 343 921 274 921 m 264 415 q 267 353 264 392 q 281 276 271 314 q 313 212 292 239 q 367 185 333 185 q 422 211 400 185 q 454 274 443 238 q 469 350 465 311 q 474 414 474 389 q 470 483 474 439 q 456 568 467 526 q 424 640 444 610 q 367 671 403 671 q 311 640 332 671 q 280 568 290 610 q 267 483 269 526 q 264 415 264 440 z "},"":{"ha":726,"x_min":31,"x_max":693,"o":"m 376 1014 q 402 1074 376 1051 q 464 1097 428 1097 q 525 1074 500 1097 q 550 1014 550 1051 q 528 952 550 978 q 469 926 507 926 q 404 951 432 926 q 376 1014 376 975 m 176 1010 q 202 1069 176 1046 q 264 1093 228 1093 q 326 1070 300 1093 q 351 1010 351 1047 q 330 948 351 974 q 271 922 308 922 q 206 947 235 922 q 176 1010 176 972 m 343 921 q 477 892 421 921 q 572 816 533 864 q 635 706 611 768 q 672 577 658 644 q 689 442 685 510 q 693 315 693 374 q 607 47 693 140 q 343 -46 521 -46 q 104 26 178 -46 q 31 264 31 97 q 35 382 31 314 q 50 523 39 450 q 83 667 61 596 q 139 795 104 739 q 224 886 174 851 q 343 921 274 921 m 264 415 q 267 353 264 392 q 281 276 271 314 q 313 212 292 239 q 367 185 333 185 q 422 211 400 185 q 454 274 443 238 q 469 350 465 311 q 474 414 474 389 q 470 483 474 439 q 456 568 467 526 q 424 640 444 610 q 367 671 403 671 q 311 640 332 671 q 280 568 290 610 q 267 483 269 526 q 264 415 264 440 z "},"":{"ha":629,"x_min":61,"x_max":571,"o":"m 146 669 q 203 655 175 669 q 257 624 232 640 q 303 592 282 607 q 339 578 324 578 q 371 592 354 578 q 405 625 388 607 q 442 658 422 643 q 483 672 461 672 q 513 665 497 672 q 541 647 528 658 q 563 622 554 636 q 571 593 571 608 q 554 546 571 571 q 517 497 538 521 q 479 453 496 472 q 463 422 463 433 q 479 397 463 413 q 516 361 496 381 q 553 319 536 342 q 569 271 569 296 q 558 236 569 250 q 531 213 547 222 q 496 199 515 203 q 460 194 476 194 q 402 208 424 194 q 367 238 381 221 q 346 267 354 254 q 329 281 338 281 q 302 266 321 281 q 260 233 283 251 q 210 201 236 215 q 157 186 183 186 q 124 193 140 186 q 93 211 107 200 q 71 238 79 222 q 63 271 63 254 q 78 313 63 294 q 110 347 93 331 q 143 380 128 364 q 158 415 158 396 q 143 448 158 435 q 110 477 128 461 q 76 515 92 493 q 61 574 61 538 q 82 642 61 614 q 146 669 103 669 z "},"":{"ha":726,"x_min":31,"x_max":693,"o":"m 343 921 q 460 900 410 921 q 521 924 488 924 q 590 895 569 924 q 611 822 611 867 q 607 764 611 793 q 651 658 635 715 q 677 542 668 601 q 690 425 686 483 q 693 315 693 367 q 602 42 693 129 q 326 -46 511 -46 q 280 -99 306 -78 q 219 -119 254 -119 q 169 -108 189 -119 q 138 -78 150 -97 q 122 -36 126 -60 q 117 14 117 -12 q 51 111 72 50 q 31 264 31 172 q 35 382 31 314 q 50 523 39 450 q 83 667 61 596 q 139 795 104 739 q 224 886 174 851 q 343 921 274 921 m 264 415 q 267 353 264 392 q 281 276 271 314 q 313 212 292 239 q 367 185 333 185 q 422 211 400 185 q 454 274 443 238 q 469 350 465 311 q 474 414 474 389 q 470 483 474 439 q 456 568 467 526 q 424 640 444 610 q 367 671 403 671 q 311 640 332 671 q 280 568 290 610 q 267 483 269 526 q 264 415 264 440 z "},"":{"ha":718,"x_min":11,"x_max":701,"o":"m 294 1139 q 360 1122 325 1139 q 426 1077 396 1104 q 476 1017 456 1050 q 496 953 496 985 q 480 920 496 928 q 443 913 464 913 q 377 925 415 913 q 305 959 339 938 q 247 1009 271 981 q 222 1069 222 1038 q 244 1118 222 1097 q 294 1139 267 1139 m 19 761 q 49 868 19 824 q 147 913 79 913 q 216 894 190 913 q 256 845 242 875 q 274 779 269 815 q 278 708 278 743 q 267 551 278 629 q 256 394 256 474 q 257 330 256 368 q 268 257 258 292 q 299 197 278 222 q 357 172 319 172 q 426 194 401 172 q 464 250 451 217 q 480 324 476 283 q 483 403 483 365 q 482 474 483 442 q 477 538 481 507 q 468 601 474 569 q 456 671 463 633 q 444 722 450 696 q 439 775 439 749 q 444 846 439 814 q 466 901 450 878 q 509 936 482 924 q 579 949 536 949 q 669 922 638 949 q 701 836 701 896 q 694 749 701 793 q 679 662 688 706 q 664 574 671 618 q 657 486 657 531 q 671 363 657 424 q 685 238 685 301 q 660 103 685 161 q 592 5 636 44 q 488 -55 549 -35 q 353 -75 426 -75 q 222 -65 283 -75 q 113 -26 160 -54 q 38 53 65 3 q 11 185 11 104 q 18 259 11 222 q 33 332 25 296 q 47 405 40 368 q 54 479 54 442 q 51 535 54 507 q 42 592 47 564 l 32 649 q 23 705 26 676 q 19 761 19 733 z "},"":{"ha":718,"x_min":11,"x_max":701,"o":"m 413 1131 q 466 1110 440 1131 q 492 1061 492 1090 q 467 1008 492 1035 q 409 959 443 981 q 339 924 375 938 q 279 911 303 911 q 242 921 258 911 q 226 954 226 931 q 246 1011 226 981 q 294 1068 265 1042 q 355 1113 322 1094 q 413 1131 388 1131 m 19 761 q 49 868 19 824 q 147 913 79 913 q 216 894 190 913 q 256 845 242 875 q 274 779 269 815 q 278 708 278 743 q 267 551 278 629 q 256 394 256 474 q 257 330 256 368 q 268 257 258 292 q 299 197 278 222 q 357 172 319 172 q 426 194 401 172 q 464 250 451 217 q 480 324 476 283 q 483 403 483 365 q 482 474 483 442 q 477 538 481 507 q 468 601 474 569 q 456 671 463 633 q 444 722 450 696 q 439 775 439 749 q 444 846 439 814 q 466 901 450 878 q 509 936 482 924 q 579 949 536 949 q 669 922 638 949 q 701 836 701 896 q 694 749 701 793 q 679 662 688 706 q 664 574 671 618 q 657 486 657 531 q 671 363 657 424 q 685 238 685 301 q 660 103 685 161 q 592 5 636 44 q 488 -55 549 -35 q 353 -75 426 -75 q 222 -65 283 -75 q 113 -26 160 -54 q 38 53 65 3 q 11 185 11 104 q 18 259 11 222 q 33 332 25 296 q 47 405 40 368 q 54 479 54 442 q 51 535 54 507 q 42 592 47 564 l 32 649 q 23 705 26 676 q 19 761 19 733 z "},"":{"ha":718,"x_min":11,"x_max":701,"o":"m 19 761 q 49 868 19 824 q 147 913 79 913 q 216 894 190 913 q 256 845 242 875 q 274 779 269 815 q 278 708 278 743 q 267 551 278 629 q 256 394 256 474 q 257 330 256 368 q 268 257 258 292 q 299 197 278 222 q 357 172 319 172 q 426 194 401 172 q 464 250 451 217 q 480 324 476 283 q 483 403 483 365 q 482 474 483 442 q 477 538 481 507 q 468 601 474 569 q 456 671 463 633 q 444 722 450 696 q 439 775 439 749 q 445 848 439 815 q 468 904 451 881 q 438 919 453 910 q 410 939 424 929 q 383 956 396 949 q 360 963 371 963 q 330 953 344 963 q 300 931 315 943 q 268 908 285 918 q 232 899 251 899 q 189 913 213 899 q 165 949 165 926 q 187 998 165 968 q 238 1056 208 1028 q 298 1106 267 1085 q 347 1126 329 1126 q 410 1110 375 1126 q 478 1067 446 1093 q 531 1008 510 1040 q 553 947 553 976 q 566 949 560 949 q 579 949 572 949 q 669 922 638 949 q 701 836 701 896 q 694 749 701 793 q 679 662 688 706 q 664 574 671 618 q 657 486 657 531 q 671 363 657 424 q 685 238 685 301 q 660 103 685 161 q 592 5 636 44 q 488 -55 549 -35 q 353 -75 426 -75 q 222 -65 283 -75 q 113 -26 160 -54 q 38 53 65 3 q 11 185 11 104 q 18 259 11 222 q 33 332 25 296 q 47 405 40 368 q 54 479 54 442 q 51 535 54 507 q 42 592 47 564 l 32 649 q 23 705 26 676 q 19 761 19 733 z "},"":{"ha":718,"x_min":11,"x_max":701,"o":"m 372 1014 q 398 1074 372 1051 q 460 1097 424 1097 q 521 1074 496 1097 q 546 1014 546 1051 q 524 952 546 978 q 465 926 503 926 q 400 951 428 926 q 372 1014 372 975 m 172 1010 q 198 1069 172 1046 q 260 1093 224 1093 q 322 1070 296 1093 q 347 1010 347 1047 q 326 948 347 974 q 267 922 304 922 q 201 947 231 922 q 172 1010 172 972 m 19 761 q 49 868 19 824 q 147 913 79 913 q 216 894 190 913 q 256 845 242 875 q 274 779 269 815 q 278 708 278 743 q 267 551 278 629 q 256 394 256 474 q 257 330 256 368 q 268 257 258 292 q 299 197 278 222 q 357 172 319 172 q 426 194 401 172 q 464 250 451 217 q 480 324 476 283 q 483 403 483 365 q 482 474 483 442 q 477 538 481 507 q 468 601 474 569 q 456 671 463 633 q 444 722 450 696 q 439 775 439 749 q 444 846 439 814 q 466 901 450 878 q 509 936 482 924 q 579 949 536 949 q 669 922 638 949 q 701 836 701 896 q 694 749 701 793 q 679 662 688 706 q 664 574 671 618 q 657 486 657 531 q 671 363 657 424 q 685 238 685 301 q 660 103 685 161 q 592 5 636 44 q 488 -55 549 -35 q 353 -75 426 -75 q 222 -65 283 -75 q 113 -26 160 -54 q 38 53 65 3 q 11 185 11 104 q 18 259 11 222 q 33 332 25 296 q 47 405 40 368 q 54 479 54 442 q 51 535 54 507 q 42 592 47 564 l 32 649 q 23 705 26 676 q 19 761 19 733 z "},"":{"ha":683,"x_min":28,"x_max":663,"o":"m 396 1131 q 449 1110 424 1131 q 475 1061 475 1090 q 451 1008 475 1035 q 392 959 426 981 q 322 924 358 938 q 263 911 286 911 q 226 921 242 911 q 210 954 210 931 q 229 1011 210 981 q 277 1068 249 1042 q 338 1113 306 1094 q 396 1131 371 1131 m 153 913 q 235 885 204 913 q 267 806 267 858 q 253 708 267 756 q 240 610 240 660 q 260 537 240 565 q 328 508 279 508 q 394 521 369 508 q 431 556 418 533 q 448 608 444 578 q 451 674 451 639 q 449 734 451 704 q 446 794 446 764 q 467 890 446 851 q 551 928 488 928 q 605 913 583 928 q 639 874 626 897 q 657 823 651 851 q 663 768 663 794 q 659 723 663 744 q 650 681 656 701 l 640 639 q 631 597 635 618 q 628 551 628 575 q 632 500 628 525 q 639 450 636 475 q 647 374 644 411 q 649 297 649 336 q 631 142 649 213 q 573 22 613 72 q 469 -56 533 -29 q 314 -83 406 -83 q 235 -74 272 -83 q 168 -45 197 -65 q 122 8 139 -25 q 106 88 106 40 q 108 126 106 107 q 119 161 111 146 q 142 186 128 176 q 182 196 157 196 q 258 182 221 196 q 333 168 294 168 q 389 183 368 168 q 420 220 410 197 q 434 272 431 243 q 438 329 438 301 q 431 351 438 342 q 410 360 424 360 q 378 351 394 360 q 342 331 363 342 q 294 310 322 319 q 226 301 267 301 q 110 335 150 301 q 51 421 69 369 q 31 534 33 472 q 28 651 28 596 q 30 731 28 686 q 44 817 32 776 q 81 885 56 857 q 153 913 106 913 z "},"":{"ha":749,"x_min":47,"x_max":732,"o":"m 208 918 q 268 906 250 918 q 294 875 286 893 q 308 836 301 857 q 332 797 314 815 q 397 765 357 774 q 481 751 436 757 q 569 733 525 744 q 650 690 614 721 q 709 600 686 658 q 732 443 732 542 q 710 292 732 347 q 652 210 688 238 q 574 174 617 182 q 488 161 531 165 q 408 151 444 157 q 349 119 371 144 q 329 84 335 104 q 321 42 324 64 q 316 0 318 21 q 305 -37 314 -21 q 278 -64 296 -54 q 229 -74 261 -74 q 165 -54 193 -74 q 116 -3 136 -35 q 83 69 96 29 q 62 150 69 110 q 51 228 54 190 q 47 293 47 267 q 48 324 47 308 q 50 354 49 339 q 54 467 54 406 q 56 592 54 529 q 64 714 58 654 q 86 821 69 774 q 129 894 103 869 q 208 918 156 918 m 426 592 q 376 580 396 592 q 347 549 357 568 q 333 506 336 531 q 329 456 329 481 q 326 402 329 428 q 324 350 324 376 q 337 324 324 329 q 367 318 350 318 q 479 364 443 318 q 515 482 515 410 q 497 560 515 528 q 426 592 478 592 z "},"":{"ha":765,"x_min":42,"x_max":756,"o":"m 364 911 q 456 895 408 911 q 542 851 503 879 q 606 782 581 822 q 632 693 632 742 q 624 644 632 668 q 608 597 617 619 q 591 551 599 574 q 583 503 583 528 q 610 417 583 456 q 669 342 638 378 q 728 271 701 307 q 756 192 756 235 q 730 90 756 138 q 663 8 704 43 q 571 -47 622 -26 q 468 -67 519 -67 q 397 -58 431 -67 q 336 -29 363 -49 q 294 20 310 -10 q 279 92 279 50 q 281 131 279 110 q 289 171 282 153 q 310 201 296 189 q 349 214 324 214 q 389 208 369 214 q 428 194 408 201 q 466 181 447 188 q 506 175 485 175 q 542 194 529 175 q 554 235 554 213 q 538 279 554 263 q 495 308 521 296 q 440 330 469 319 q 384 356 410 340 q 342 398 358 372 q 325 464 325 424 q 336 527 325 496 q 361 588 347 558 q 386 647 375 618 q 397 704 397 675 q 392 733 397 717 q 371 749 388 749 q 340 736 354 749 q 313 706 325 724 q 294 669 301 689 q 283 636 286 650 q 270 524 272 581 q 268 410 268 467 q 270 256 268 332 q 272 103 272 181 q 271 55 272 85 q 263 -3 269 25 q 241 -53 256 -32 q 199 -74 226 -74 q 179 -71 190 -74 q 133 -44 150 -62 q 106 -3 117 -26 q 91 46 96 19 q 81 97 86 72 q 52 267 63 182 q 42 439 42 351 q 55 603 42 519 q 103 756 68 688 q 201 867 139 824 q 364 911 264 911 z "},"":{"ha":844,"x_min":4,"x_max":842,"o":"m 358 1139 q 424 1122 389 1139 q 490 1077 460 1104 q 540 1017 519 1050 q 560 953 560 985 q 544 920 560 928 q 507 913 528 913 q 441 925 479 913 q 369 959 403 938 q 310 1009 335 981 q 286 1069 286 1038 q 308 1118 286 1097 q 358 1139 331 1139 m 417 915 q 520 899 474 915 q 599 833 567 883 q 633 758 621 797 q 651 676 644 718 q 663 592 657 635 q 678 510 668 550 q 706 430 689 464 q 740 367 722 396 q 776 310 758 338 q 809 249 794 283 q 833 171 824 215 q 842 65 842 126 q 806 -41 842 3 q 703 -85 769 -85 q 632 -68 656 -85 q 595 -26 608 -51 q 572 29 582 0 q 544 84 563 58 q 490 126 525 110 q 392 143 456 143 q 335 126 356 143 q 301 83 314 108 q 280 26 289 57 q 257 -30 271 -4 q 220 -73 243 -56 q 157 -90 197 -90 q 94 -76 122 -90 q 45 -39 65 -62 q 15 15 25 -15 q 4 79 4 46 q 23 169 4 128 q 69 249 42 211 q 126 324 96 288 q 179 399 156 360 q 230 513 217 460 q 249 617 243 567 q 262 717 256 667 q 290 822 268 768 q 338 892 310 868 q 417 915 365 915 m 519 375 q 513 422 519 390 q 499 487 507 453 q 481 552 490 521 q 465 597 472 583 q 460 608 464 600 q 453 615 457 615 q 428 580 443 615 q 401 499 414 544 q 378 412 388 454 q 369 356 369 369 q 377 334 369 343 q 397 320 385 325 q 421 313 408 315 q 443 310 433 310 q 502 320 485 310 q 519 375 519 331 z "},"":{"ha":844,"x_min":4,"x_max":842,"o":"m 476 1131 q 530 1110 504 1131 q 556 1061 556 1090 q 531 1008 556 1035 q 473 959 507 981 q 403 924 439 938 q 343 911 367 911 q 306 921 322 911 q 290 954 290 931 q 310 1011 290 981 q 358 1068 329 1042 q 419 1113 386 1094 q 476 1131 451 1131 m 417 915 q 520 899 474 915 q 599 833 567 883 q 633 758 621 797 q 651 676 644 718 q 663 592 657 635 q 678 510 668 550 q 706 430 689 464 q 740 367 722 396 q 776 310 758 338 q 809 249 794 283 q 833 171 824 215 q 842 65 842 126 q 806 -41 842 3 q 703 -85 769 -85 q 632 -68 656 -85 q 595 -26 608 -51 q 572 29 582 0 q 544 84 563 58 q 490 126 525 110 q 392 143 456 143 q 335 126 356 143 q 301 83 314 108 q 280 26 289 57 q 257 -30 271 -4 q 220 -73 243 -56 q 157 -90 197 -90 q 94 -76 122 -90 q 45 -39 65 -62 q 15 15 25 -15 q 4 79 4 46 q 23 169 4 128 q 69 249 42 211 q 126 324 96 288 q 179 399 156 360 q 230 513 217 460 q 249 617 243 567 q 262 717 256 667 q 290 822 268 768 q 338 892 310 868 q 417 915 365 915 m 519 375 q 513 422 519 390 q 499 487 507 453 q 481 552 490 521 q 465 597 472 583 q 460 608 464 600 q 453 615 457 615 q 428 580 443 615 q 401 499 414 544 q 378 412 388 454 q 369 356 369 369 q 377 334 369 343 q 397 320 385 325 q 421 313 408 315 q 443 310 433 310 q 502 320 485 310 q 519 375 519 331 z "},"":{"ha":844,"x_min":4,"x_max":842,"o":"m 557 900 q 519 910 538 900 q 485 931 501 919 q 453 953 468 943 q 424 963 438 963 q 394 953 408 963 q 364 931 379 943 q 332 908 349 918 q 296 899 315 899 q 253 913 276 899 q 229 949 229 926 q 251 998 229 968 q 301 1056 272 1028 q 362 1106 331 1085 q 411 1126 393 1126 q 473 1110 438 1126 q 540 1067 508 1093 q 594 1011 572 1042 q 617 953 617 981 q 597 917 617 933 q 557 900 576 900 m 417 915 q 520 899 474 915 q 599 833 567 883 q 633 758 621 797 q 651 676 644 718 q 663 592 657 635 q 678 510 668 550 q 706 430 689 464 q 740 367 722 396 q 776 310 758 338 q 809 249 794 283 q 833 171 824 215 q 842 65 842 126 q 806 -41 842 3 q 703 -85 769 -85 q 632 -68 656 -85 q 595 -26 608 -51 q 572 29 582 0 q 544 84 563 58 q 490 126 525 110 q 392 143 456 143 q 335 126 356 143 q 301 83 314 108 q 280 26 289 57 q 257 -30 271 -4 q 220 -73 243 -56 q 157 -90 197 -90 q 94 -76 122 -90 q 45 -39 65 -62 q 15 15 25 -15 q 4 79 4 46 q 23 169 4 128 q 69 249 42 211 q 126 324 96 288 q 179 399 156 360 q 230 513 217 460 q 249 617 243 567 q 262 717 256 667 q 290 822 268 768 q 338 892 310 868 q 417 915 365 915 m 519 375 q 513 422 519 390 q 499 487 507 453 q 481 552 490 521 q 465 597 472 583 q 460 608 464 600 q 453 615 457 615 q 428 580 443 615 q 401 499 414 544 q 378 412 388 454 q 369 356 369 369 q 377 334 369 343 q 397 320 385 325 q 421 313 408 315 q 443 310 433 310 q 502 320 485 310 q 519 375 519 331 z "},"":{"ha":844,"x_min":4,"x_max":842,"o":"m 310 1161 q 361 1148 338 1161 q 405 1118 385 1135 q 442 1088 425 1101 q 475 1075 460 1075 q 502 1083 492 1075 q 522 1101 513 1090 l 542 1125 q 562 1144 551 1136 q 589 1151 572 1151 q 638 1124 622 1151 q 653 1068 653 1097 q 645 1013 653 1042 q 622 959 638 983 q 583 919 606 935 q 529 903 560 903 q 477 915 503 903 q 429 942 451 928 q 388 969 407 957 q 357 982 369 982 q 338 972 344 982 q 322 951 331 963 q 302 931 314 940 q 268 921 290 921 q 211 946 231 921 q 192 1007 192 971 q 199 1059 192 1032 q 222 1109 207 1086 q 258 1147 236 1132 q 310 1161 281 1161 m 417 915 q 520 899 474 915 q 599 833 567 883 q 633 758 621 797 q 651 676 644 718 q 663 592 657 635 q 678 510 668 550 q 706 430 689 464 q 740 367 722 396 q 776 310 758 338 q 809 249 794 283 q 833 171 824 215 q 842 65 842 126 q 806 -41 842 3 q 703 -85 769 -85 q 632 -68 656 -85 q 595 -26 608 -51 q 572 29 582 0 q 544 84 563 58 q 490 126 525 110 q 392 143 456 143 q 335 126 356 143 q 301 83 314 108 q 280 26 289 57 q 257 -30 271 -4 q 220 -73 243 -56 q 157 -90 197 -90 q 94 -76 122 -90 q 45 -39 65 -62 q 15 15 25 -15 q 4 79 4 46 q 23 169 4 128 q 69 249 42 211 q 126 324 96 288 q 179 399 156 360 q 230 513 217 460 q 249 617 243 567 q 262 717 256 667 q 290 822 268 768 q 338 892 310 868 q 417 915 365 915 m 519 375 q 513 422 519 390 q 499 487 507 453 q 481 552 490 521 q 465 597 472 583 q 460 608 464 600 q 453 615 457 615 q 428 580 443 615 q 401 499 414 544 q 378 412 388 454 q 369 356 369 369 q 377 334 369 343 q 397 320 385 325 q 421 313 408 315 q 443 310 433 310 q 502 320 485 310 q 519 375 519 331 z "},"":{"ha":844,"x_min":4,"x_max":842,"o":"m 436 1014 q 462 1074 436 1051 q 524 1097 488 1097 q 585 1074 560 1097 q 610 1014 610 1051 q 588 952 610 978 q 529 926 567 926 q 464 951 492 926 q 436 1014 436 975 m 236 1010 q 262 1069 236 1046 q 324 1093 288 1093 q 385 1070 360 1093 q 411 1010 411 1047 q 390 948 411 974 q 331 922 368 922 q 265 947 294 922 q 236 1010 236 972 m 417 915 q 520 899 474 915 q 599 833 567 883 q 633 758 621 797 q 651 676 644 718 q 663 592 657 635 q 678 510 668 550 q 706 430 689 464 q 740 367 722 396 q 776 310 758 338 q 809 249 794 283 q 833 171 824 215 q 842 65 842 126 q 806 -41 842 3 q 703 -85 769 -85 q 632 -68 656 -85 q 595 -26 608 -51 q 572 29 582 0 q 544 84 563 58 q 490 126 525 110 q 392 143 456 143 q 335 126 356 143 q 301 83 314 108 q 280 26 289 57 q 257 -30 271 -4 q 220 -73 243 -56 q 157 -90 197 -90 q 94 -76 122 -90 q 45 -39 65 -62 q 15 15 25 -15 q 4 79 4 46 q 23 169 4 128 q 69 249 42 211 q 126 324 96 288 q 179 399 156 360 q 230 513 217 460 q 249 617 243 567 q 262 717 256 667 q 290 822 268 768 q 338 892 310 868 q 417 915 365 915 m 519 375 q 513 422 519 390 q 499 487 507 453 q 481 552 490 521 q 465 597 472 583 q 460 608 464 600 q 453 615 457 615 q 428 580 443 615 q 401 499 414 544 q 378 412 388 454 q 369 356 369 369 q 377 334 369 343 q 397 320 385 325 q 421 313 408 315 q 443 310 433 310 q 502 320 485 310 q 519 375 519 331 z "},"":{"ha":844,"x_min":4,"x_max":842,"o":"m 256 1032 q 272 1089 256 1065 q 312 1128 288 1113 q 366 1150 336 1143 q 425 1157 396 1157 q 484 1150 454 1157 q 537 1127 514 1143 q 574 1087 560 1111 q 589 1029 589 1063 q 553 948 589 975 q 471 913 517 921 q 543 889 511 907 q 599 833 575 871 q 633 758 621 797 q 651 676 644 718 q 663 592 657 635 q 678 510 668 550 q 706 430 689 464 q 740 367 722 396 q 776 310 758 338 q 809 249 794 283 q 833 171 824 215 q 842 65 842 126 q 806 -41 842 3 q 703 -85 769 -85 q 632 -68 656 -85 q 595 -26 608 -51 q 572 29 582 0 q 544 84 563 58 q 490 126 525 110 q 392 143 456 143 q 335 126 356 143 q 301 83 314 108 q 280 26 289 57 q 257 -30 271 -4 q 220 -73 243 -56 q 157 -90 197 -90 q 94 -76 122 -90 q 45 -39 65 -62 q 15 15 25 -15 q 4 79 4 46 q 23 169 4 128 q 69 249 42 211 q 126 324 96 288 q 179 399 156 360 q 230 513 217 460 q 249 617 243 567 q 262 717 256 667 q 290 822 268 768 q 327 883 306 860 q 383 913 349 906 q 337 926 360 917 q 296 949 314 935 q 267 984 278 964 q 256 1032 256 1004 m 428 1007 q 454 1032 454 1007 q 446 1049 454 1044 q 426 1054 438 1054 q 408 1050 415 1054 q 400 1033 400 1046 q 428 1007 400 1007 m 519 375 q 513 422 519 390 q 499 487 507 453 q 481 552 490 521 q 465 597 472 583 q 460 608 464 600 q 453 615 457 615 q 428 580 443 615 q 401 499 414 544 q 378 412 388 454 q 369 356 369 369 q 377 334 369 343 q 397 320 385 325 q 421 313 408 315 q 443 310 433 310 q 502 320 485 310 q 519 375 519 331 z "},"":{"ha":1228,"x_min":4,"x_max":1210,"o":"m 417 915 q 519 900 472 915 q 597 836 565 885 q 633 894 607 872 q 710 915 658 915 q 766 913 738 915 q 822 911 794 911 q 899 913 861 911 q 975 915 936 915 q 1041 913 1006 915 q 1107 898 1076 910 q 1158 863 1138 886 q 1178 800 1178 840 q 1172 742 1178 769 q 1153 692 1167 714 q 1116 658 1139 671 q 1058 646 1093 646 q 1024 650 1040 646 q 990 661 1007 654 l 957 674 q 924 685 940 681 q 889 689 907 689 q 851 679 865 689 q 830 654 838 669 q 820 619 822 639 q 818 581 818 600 q 824 536 818 551 q 843 515 831 521 q 875 510 856 510 q 919 510 894 510 q 975 512 947 510 q 1031 514 1003 514 q 1068 513 1049 514 q 1103 504 1088 511 q 1130 484 1119 497 q 1140 447 1140 471 q 1124 398 1140 417 q 1083 369 1107 379 q 1031 357 1058 360 q 979 354 1003 354 q 941 356 960 354 q 906 358 922 358 q 853 344 874 358 q 833 282 833 331 q 854 199 833 231 q 932 168 875 168 q 1012 181 972 168 q 1092 194 1051 194 q 1177 160 1144 194 q 1210 75 1210 126 q 1178 -3 1210 25 q 1103 -47 1147 -32 q 1010 -65 1058 -61 q 925 -68 961 -68 q 851 -67 888 -68 q 782 -61 815 -65 q 703 -85 750 -85 q 632 -68 656 -85 q 595 -26 608 -51 q 572 29 582 0 q 544 84 563 58 q 490 126 525 110 q 392 143 456 143 q 335 126 356 143 q 301 83 314 108 q 280 26 289 57 q 257 -30 271 -4 q 220 -73 243 -56 q 157 -90 197 -90 q 94 -76 122 -90 q 45 -39 65 -62 q 15 15 25 -15 q 4 79 4 46 q 23 169 4 128 q 69 249 42 211 q 126 324 96 288 q 179 399 156 360 q 230 513 217 460 q 249 617 243 567 q 262 717 256 667 q 290 822 268 768 q 338 892 310 868 q 417 915 365 915 m 519 375 q 513 422 519 390 q 499 487 507 453 q 481 552 490 521 q 465 597 472 583 q 460 608 464 600 q 453 615 457 615 q 428 580 443 615 q 401 499 414 544 q 378 412 388 454 q 369 356 369 369 q 377 334 369 343 q 397 320 385 325 q 421 313 408 315 q 443 310 433 310 q 502 320 485 310 q 519 375 519 331 z "},"":{"ha":756,"x_min":32,"x_max":747,"o":"m 32 363 q 53 555 32 457 q 123 734 75 653 q 248 867 171 815 q 436 918 325 918 q 535 906 485 918 q 627 867 586 893 q 694 801 668 842 q 721 703 721 760 q 717 649 721 674 q 701 607 713 625 q 669 579 689 589 q 615 569 649 569 q 575 573 594 569 q 540 585 556 576 q 516 610 525 594 q 507 649 507 625 q 499 683 507 667 q 477 713 490 700 q 447 735 464 726 q 411 743 429 743 q 379 735 394 743 q 351 715 364 726 q 305 653 324 690 q 276 576 286 617 q 261 493 265 535 q 257 415 257 451 q 264 343 257 382 q 288 272 271 304 q 333 219 304 240 q 403 197 361 197 q 458 216 433 197 q 507 256 482 235 q 563 297 532 278 q 638 315 594 315 q 680 305 660 315 q 715 278 700 294 q 738 240 729 261 q 747 197 747 218 q 728 94 747 139 q 677 15 710 49 q 601 -40 644 -18 q 508 -75 557 -62 q 518 -112 518 -89 q 504 -165 518 -140 q 469 -207 490 -189 q 420 -235 447 -225 q 367 -246 393 -246 q 326 -240 349 -246 q 285 -222 304 -233 q 251 -194 265 -211 q 238 -157 238 -178 q 256 -116 238 -133 q 297 -99 274 -99 q 320 -104 310 -99 q 340 -116 331 -110 q 361 -128 350 -122 q 385 -133 372 -133 q 394 -125 392 -133 q 397 -111 397 -117 q 374 -89 397 -96 q 203 -51 269 -86 q 99 45 138 -15 q 47 187 61 106 q 32 363 32 268 z "},"":{"ha":675,"x_min":14,"x_max":657,"o":"m 657 75 q 626 -3 657 25 q 550 -47 594 -32 q 457 -65 506 -61 q 372 -68 408 -68 q 235 -62 300 -68 q 122 -33 171 -57 q 43 41 72 -8 q 14 176 14 90 q 23 261 14 219 q 43 343 32 303 q 63 424 54 383 q 72 508 72 465 q 67 572 72 540 q 54 636 61 604 q 42 700 47 668 q 36 764 36 732 q 41 825 36 797 q 60 873 46 853 q 97 904 74 893 q 157 915 119 915 q 213 913 185 915 q 269 911 242 911 q 333 913 301 911 q 396 915 364 914 q 333 935 367 921 q 269 969 299 949 q 221 1016 240 990 q 201 1069 201 1042 q 224 1118 201 1097 q 274 1139 246 1139 q 340 1122 304 1139 q 405 1077 375 1104 q 455 1017 435 1050 q 475 953 475 985 q 467 926 475 935 q 446 915 458 918 q 507 910 475 914 q 565 893 539 906 q 608 858 592 881 q 625 800 625 836 q 619 742 625 769 q 600 692 614 714 q 563 658 586 671 q 506 646 540 646 q 463 653 483 646 q 421 667 442 660 q 379 682 400 675 q 336 689 358 689 q 299 679 313 689 q 277 654 285 669 q 267 619 269 639 q 265 581 265 600 q 272 536 265 551 q 290 515 278 521 q 322 510 303 510 q 367 510 342 510 q 422 512 394 510 q 478 514 450 514 q 515 513 496 514 q 551 504 535 511 q 577 484 567 497 q 588 447 588 471 q 571 398 588 417 q 530 369 554 379 q 478 357 506 360 q 426 354 450 354 q 388 356 407 354 q 353 358 369 358 q 301 344 321 358 q 281 282 281 331 q 301 199 281 231 q 379 168 322 168 q 459 181 419 168 q 539 194 499 194 q 624 160 592 194 q 657 75 657 126 z "},"":{"ha":675,"x_min":14,"x_max":657,"o":"m 657 75 q 626 -3 657 25 q 550 -47 594 -32 q 457 -65 506 -61 q 372 -68 408 -68 q 235 -62 300 -68 q 122 -33 171 -57 q 43 41 72 -8 q 14 176 14 90 q 23 261 14 219 q 43 343 32 303 q 63 424 54 383 q 72 508 72 465 q 67 572 72 540 q 54 636 61 604 q 42 700 47 668 q 36 764 36 732 q 41 825 36 797 q 60 873 46 853 q 97 904 74 893 q 157 915 119 915 q 203 914 181 915 q 250 911 226 913 q 219 923 232 914 q 206 954 206 932 q 225 1011 206 981 q 273 1068 244 1042 q 334 1113 301 1094 q 392 1131 367 1131 q 445 1110 419 1131 q 471 1061 471 1090 q 447 1008 471 1035 q 390 960 424 982 q 322 926 357 939 q 261 911 286 913 l 269 911 q 346 913 308 911 q 422 915 383 915 q 488 913 453 915 q 554 898 524 910 q 605 863 585 886 q 625 800 625 840 q 619 742 625 769 q 600 692 614 714 q 563 658 586 671 q 506 646 540 646 q 463 653 483 646 q 421 667 442 660 q 379 682 400 675 q 336 689 358 689 q 299 679 313 689 q 277 654 285 669 q 267 619 269 639 q 265 581 265 600 q 272 536 265 551 q 290 515 278 521 q 322 510 303 510 q 367 510 342 510 q 422 512 394 510 q 478 514 450 514 q 515 513 496 514 q 551 504 535 511 q 577 484 567 497 q 588 447 588 471 q 571 398 588 417 q 530 369 554 379 q 478 357 506 360 q 426 354 450 354 q 388 356 407 354 q 353 358 369 358 q 301 344 321 358 q 281 282 281 331 q 301 199 281 231 q 379 168 322 168 q 459 181 419 168 q 539 194 499 194 q 624 160 592 194 q 657 75 657 126 z "},"":{"ha":675,"x_min":14,"x_max":657,"o":"m 657 75 q 626 -3 657 25 q 550 -47 594 -32 q 457 -65 506 -61 q 372 -68 408 -68 q 235 -62 300 -68 q 122 -33 171 -57 q 43 41 72 -8 q 14 176 14 90 q 23 261 14 219 q 43 343 32 303 q 63 424 54 383 q 72 508 72 465 q 67 572 72 540 q 54 636 61 604 q 42 700 47 668 q 36 764 36 732 q 61 875 36 835 q 164 915 86 915 q 144 949 144 931 q 166 998 144 968 q 217 1056 188 1028 q 277 1106 246 1085 q 326 1126 308 1126 q 388 1110 353 1126 q 456 1067 424 1093 q 510 1011 488 1042 q 532 953 532 981 q 523 928 532 940 q 503 910 514 917 q 549 899 526 906 q 588 879 571 892 q 615 847 604 867 q 625 800 625 828 q 619 742 625 769 q 600 692 614 714 q 563 658 586 671 q 506 646 540 646 q 463 653 483 646 q 421 667 442 660 q 379 682 400 675 q 336 689 358 689 q 299 679 313 689 q 277 654 285 669 q 267 619 269 639 q 265 581 265 600 q 272 536 265 551 q 290 515 278 521 q 322 510 303 510 q 367 510 342 510 q 422 512 394 510 q 478 514 450 514 q 515 513 496 514 q 551 504 535 511 q 577 484 567 497 q 588 447 588 471 q 571 398 588 417 q 530 369 554 379 q 478 357 506 360 q 426 354 450 354 q 388 356 407 354 q 353 358 369 358 q 301 344 321 358 q 281 282 281 331 q 301 199 281 231 q 379 168 322 168 q 459 181 419 168 q 539 194 499 194 q 624 160 592 194 q 657 75 657 126 m 253 911 l 269 911 q 346 913 308 911 q 422 915 383 915 q 378 946 399 929 q 339 963 358 963 q 297 944 317 963 q 253 911 276 925 z "},"":{"ha":675,"x_min":14,"x_max":657,"o":"m 351 1014 q 377 1074 351 1051 q 439 1097 403 1097 q 500 1074 475 1097 q 525 1014 525 1051 q 503 952 525 978 q 444 926 482 926 q 379 951 407 926 q 351 1014 351 975 m 151 1010 q 177 1069 151 1046 q 239 1093 203 1093 q 301 1070 275 1093 q 326 1010 326 1047 q 305 948 326 974 q 246 922 283 922 q 181 947 210 922 q 151 1010 151 972 m 657 75 q 626 -3 657 25 q 550 -47 594 -32 q 457 -65 506 -61 q 372 -68 408 -68 q 235 -62 300 -68 q 122 -33 171 -57 q 43 41 72 -8 q 14 176 14 90 q 23 261 14 219 q 43 343 32 303 q 63 424 54 383 q 72 508 72 465 q 67 572 72 540 q 54 636 61 604 q 42 700 47 668 q 36 764 36 732 q 41 825 36 797 q 60 873 46 853 q 97 904 74 893 q 157 915 119 915 q 213 913 185 915 q 269 911 242 911 q 346 913 308 911 q 422 915 383 915 q 488 913 453 915 q 554 898 524 910 q 605 863 585 886 q 625 800 625 840 q 619 742 625 769 q 600 692 614 714 q 563 658 586 671 q 506 646 540 646 q 463 653 483 646 q 421 667 442 660 q 379 682 400 675 q 336 689 358 689 q 299 679 313 689 q 277 654 285 669 q 267 619 269 639 q 265 581 265 600 q 272 536 265 551 q 290 515 278 521 q 322 510 303 510 q 367 510 342 510 q 422 512 394 510 q 478 514 450 514 q 515 513 496 514 q 551 504 535 511 q 577 484 567 497 q 588 447 588 471 q 571 398 588 417 q 530 369 554 379 q 478 357 506 360 q 426 354 450 354 q 388 356 407 354 q 353 358 369 358 q 301 344 321 358 q 281 282 281 331 q 301 199 281 231 q 379 168 322 168 q 459 181 419 168 q 539 194 499 194 q 624 160 592 194 q 657 75 657 126 z "},"":{"ha":329,"x_min":28,"x_max":301,"o":"m 100 1139 q 166 1122 131 1139 q 231 1077 201 1104 q 281 1017 261 1050 q 301 953 301 985 q 285 920 301 928 q 249 913 269 913 q 183 925 221 913 q 110 959 144 938 q 52 1009 76 981 q 28 1069 28 1038 q 50 1118 28 1097 q 100 1139 72 1139 m 161 858 q 258 817 232 858 q 285 711 285 776 q 278 593 285 651 q 271 475 271 535 q 285 317 271 396 q 300 160 300 239 q 294 92 300 128 q 274 25 289 56 q 235 -26 260 -6 q 169 -46 210 -46 q 102 -32 129 -46 q 58 6 75 -18 q 35 61 42 29 q 28 129 28 93 q 31 167 28 149 q 38 204 35 185 q 58 325 49 265 q 67 447 67 385 q 57 577 67 514 q 47 707 47 640 q 51 765 47 738 q 68 814 56 793 q 103 847 81 835 q 161 858 125 858 z "},"":{"ha":329,"x_min":28,"x_max":300,"o":"m 218 1131 q 272 1110 246 1131 q 297 1061 297 1090 q 273 1008 297 1035 q 215 959 249 981 q 144 924 181 938 q 85 911 108 911 q 48 921 64 911 q 32 954 32 931 q 51 1011 32 981 q 99 1068 71 1042 q 160 1113 128 1094 q 218 1131 193 1131 m 161 858 q 258 817 232 858 q 285 711 285 776 q 278 593 285 651 q 271 475 271 535 q 285 317 271 396 q 300 160 300 239 q 294 92 300 128 q 274 25 289 56 q 235 -26 260 -6 q 169 -46 210 -46 q 102 -32 129 -46 q 58 6 75 -18 q 35 61 42 29 q 28 129 28 93 q 31 167 28 149 q 38 204 35 185 q 58 325 49 265 q 67 447 67 385 q 57 577 67 514 q 47 707 47 640 q 51 765 47 738 q 68 814 56 793 q 103 847 81 835 q 161 858 125 858 z "},"":{"ha":329,"x_min":-29,"x_max":358,"o":"m 299 900 q 261 910 279 900 q 226 931 243 919 q 194 953 210 943 q 165 963 179 963 q 135 953 150 963 q 106 931 121 943 q 74 908 90 918 q 38 899 57 899 q -6 913 18 899 q -29 949 -29 926 q -8 998 -29 968 q 43 1056 14 1028 q 103 1106 72 1085 q 153 1126 135 1126 q 215 1110 179 1126 q 282 1067 250 1093 q 336 1011 314 1042 q 358 953 358 981 q 338 917 358 933 q 299 900 318 900 m 161 858 q 258 817 232 858 q 285 711 285 776 q 278 593 285 651 q 271 475 271 535 q 285 317 271 396 q 300 160 300 239 q 294 92 300 128 q 274 25 289 56 q 235 -26 260 -6 q 169 -46 210 -46 q 102 -32 129 -46 q 58 6 75 -18 q 35 61 42 29 q 28 129 28 93 q 31 167 28 149 q 38 204 35 185 q 58 325 49 265 q 67 447 67 385 q 57 577 67 514 q 47 707 47 640 q 51 765 47 738 q 68 814 56 793 q 103 847 81 835 q 161 858 125 858 z "},"":{"ha":329,"x_min":-22,"x_max":351,"o":"m 178 1014 q 203 1074 178 1051 q 265 1097 229 1097 q 326 1074 301 1097 q 351 1014 351 1051 q 330 952 351 978 q 271 926 308 926 q 206 951 233 926 q 178 1014 178 975 m -22 1010 q 3 1069 -22 1046 q 65 1093 29 1093 q 127 1070 101 1093 q 153 1010 153 1047 q 131 948 153 974 q 72 922 110 922 q 7 947 36 922 q -22 1010 -22 972 m 161 858 q 258 817 232 858 q 285 711 285 776 q 278 593 285 651 q 271 475 271 535 q 285 317 271 396 q 300 160 300 239 q 294 92 300 128 q 274 25 289 56 q 235 -26 260 -6 q 169 -46 210 -46 q 102 -32 129 -46 q 58 6 75 -18 q 35 61 42 29 q 28 129 28 93 q 31 167 28 149 q 38 204 35 185 q 58 325 49 265 q 67 447 67 385 q 57 577 67 514 q 47 707 47 640 q 51 765 47 738 q 68 814 56 793 q 103 847 81 835 q 161 858 125 858 z "},"":{"ha":753,"x_min":38,"x_max":713,"o":"m 286 765 q 278 766 282 765 q 271 767 274 767 q 235 762 253 767 q 200 751 217 757 q 167 740 183 744 q 132 735 150 735 q 83 751 104 735 q 61 797 61 767 q 83 848 61 829 q 135 877 104 867 q 198 891 165 888 q 253 894 231 894 q 287 894 268 894 q 326 892 306 893 q 365 892 346 892 q 396 896 383 893 q 442 918 419 903 q 490 933 465 933 q 539 916 514 933 q 564 872 564 899 q 551 839 564 853 q 539 817 539 825 q 559 783 539 811 q 605 722 579 756 q 654 655 631 688 q 685 606 678 622 q 697 565 692 588 q 706 519 703 543 q 711 473 710 496 q 713 431 713 450 q 706 317 713 376 q 682 201 699 258 q 639 93 665 144 q 574 3 613 42 q 483 -58 535 -35 q 364 -81 431 -81 q 222 -48 283 -81 q 120 39 161 -15 q 58 163 79 93 q 38 306 38 232 q 51 433 38 372 q 97 539 65 493 q 181 612 129 585 q 308 639 233 639 q 375 632 342 639 q 439 610 408 625 q 429 652 438 633 q 406 689 421 671 q 361 660 392 672 q 310 647 331 647 q 260 664 282 647 q 239 710 239 681 q 252 747 239 732 q 286 765 265 761 m 358 435 q 281 399 308 435 q 254 315 254 363 q 283 233 254 267 q 361 199 311 199 q 442 232 410 199 q 474 314 474 265 q 465 360 474 338 q 440 399 456 382 q 404 425 425 415 q 358 435 383 435 z "},"":{"ha":744,"x_min":14,"x_max":726,"o":"m 264 472 q 248 458 254 472 q 238 424 242 443 q 233 387 235 404 q 232 363 232 369 q 244 247 232 304 q 256 131 256 189 q 250 71 256 101 q 230 15 244 40 q 192 -25 215 -10 q 133 -40 169 -40 q 72 -22 96 -40 q 36 24 49 -4 q 19 85 24 51 q 14 147 14 118 q 26 298 14 224 q 39 449 39 372 q 35 589 39 519 q 31 729 31 658 q 34 799 31 764 q 51 862 38 833 q 90 908 64 890 q 160 925 115 925 q 257 896 217 925 q 317 814 297 867 q 335 768 322 801 q 364 692 347 735 q 399 604 381 650 q 436 520 418 558 q 469 458 454 482 q 492 433 483 433 q 522 450 510 433 q 540 488 533 467 q 549 533 546 510 q 551 568 551 556 q 542 641 551 607 q 520 706 532 675 q 499 768 508 738 q 489 829 489 799 q 519 911 489 872 q 479 903 501 903 q 427 915 453 903 q 379 942 401 928 q 338 969 357 957 q 307 982 319 982 q 288 972 294 982 q 272 951 281 963 q 252 931 264 940 q 218 921 240 921 q 161 946 181 921 q 142 1007 142 971 q 149 1059 142 1032 q 172 1109 157 1086 q 208 1147 186 1132 q 260 1161 231 1161 q 311 1148 288 1161 q 355 1118 335 1135 q 392 1088 375 1101 q 425 1075 410 1075 q 452 1083 442 1075 q 472 1101 463 1090 l 492 1125 q 512 1144 501 1136 q 539 1151 522 1151 q 588 1124 572 1151 q 603 1068 603 1097 q 594 1009 603 1040 q 567 953 585 978 q 614 965 590 965 q 685 932 663 965 q 717 852 708 899 q 726 756 726 806 q 725 674 725 706 q 726 536 725 610 q 724 388 726 463 q 716 240 722 313 q 694 106 710 168 q 679 57 689 82 q 655 11 669 32 q 619 -23 640 -10 q 569 -36 599 -36 q 492 -12 526 -36 q 431 50 458 11 q 384 138 404 89 q 348 235 364 186 q 320 328 332 283 q 299 406 308 374 q 294 421 297 410 q 287 444 292 432 q 276 464 282 456 q 264 472 271 472 z "},"":{"ha":726,"x_min":31,"x_max":693,"o":"m 299 1139 q 365 1122 329 1139 q 430 1077 400 1104 q 480 1017 460 1050 q 500 953 500 985 q 484 920 500 928 q 447 913 468 913 q 381 925 419 913 q 309 959 343 938 q 251 1009 275 981 q 226 1069 226 1038 q 249 1118 226 1097 q 299 1139 271 1139 m 343 921 q 477 892 421 921 q 572 816 533 864 q 635 706 611 768 q 672 577 658 644 q 689 442 685 510 q 693 315 693 374 q 607 47 693 140 q 343 -46 521 -46 q 104 26 178 -46 q 31 264 31 97 q 35 382 31 314 q 50 523 39 450 q 83 667 61 596 q 139 795 104 739 q 224 886 174 851 q 343 921 274 921 m 264 415 q 267 353 264 392 q 281 276 271 314 q 313 212 292 239 q 367 185 333 185 q 422 211 400 185 q 454 274 443 238 q 469 350 465 311 q 474 414 474 389 q 470 483 474 439 q 456 568 467 526 q 424 640 444 610 q 367 671 403 671 q 311 640 332 671 q 280 568 290 610 q 267 483 269 526 q 264 415 264 440 z "},"":{"ha":726,"x_min":31,"x_max":693,"o":"m 343 921 q 477 892 421 921 q 572 816 533 864 q 635 706 611 768 q 672 577 658 644 q 689 442 685 510 q 693 315 693 374 q 607 47 693 140 q 343 -46 521 -46 q 104 26 178 -46 q 31 264 31 97 q 34 371 31 310 q 47 498 38 432 q 72 631 56 564 q 117 754 89 697 q 184 853 144 811 q 278 911 224 894 q 244 922 258 913 q 231 954 231 932 q 250 1011 231 981 q 298 1068 269 1042 q 359 1113 326 1094 q 417 1131 392 1131 q 470 1110 444 1131 q 496 1061 496 1090 q 480 1019 496 1040 q 440 978 464 997 q 388 944 417 960 q 332 921 358 929 l 343 921 m 264 415 q 267 353 264 392 q 281 276 271 314 q 313 212 292 239 q 367 185 333 185 q 422 211 400 185 q 454 274 443 238 q 469 350 465 311 q 474 414 474 389 q 470 483 474 439 q 456 568 467 526 q 424 640 444 610 q 367 671 403 671 q 311 640 332 671 q 280 568 290 610 q 267 483 269 526 q 264 415 264 440 z "},"":{"ha":726,"x_min":31,"x_max":693,"o":"m 343 921 q 477 892 421 921 q 572 816 533 864 q 635 706 611 768 q 672 577 658 644 q 689 442 685 510 q 693 315 693 374 q 607 47 693 140 q 343 -46 521 -46 q 104 26 178 -46 q 31 264 31 97 q 33 365 31 307 q 44 485 36 422 q 67 613 53 549 q 106 733 82 676 q 165 833 131 789 q 247 900 200 878 q 242 899 244 900 q 236 899 239 899 q 193 913 217 899 q 169 949 169 926 q 191 998 169 968 q 242 1056 213 1028 q 302 1106 271 1085 q 351 1126 333 1126 q 413 1110 378 1126 q 481 1067 449 1093 q 535 1011 513 1042 q 557 953 557 981 q 537 917 557 933 q 497 900 517 900 q 460 910 478 900 q 425 931 442 919 q 393 953 408 943 q 364 963 378 963 q 322 944 342 963 q 278 911 301 925 q 309 918 293 915 q 343 921 325 921 m 264 415 q 267 353 264 392 q 281 276 271 314 q 313 212 292 239 q 367 185 333 185 q 422 211 400 185 q 454 274 443 238 q 469 350 465 311 q 474 414 474 389 q 470 483 474 439 q 456 568 467 526 q 424 640 444 610 q 367 671 403 671 q 311 640 332 671 q 280 568 290 610 q 267 483 269 526 q 264 415 264 440 z "},"":{"ha":726,"x_min":31,"x_max":693,"o":"m 251 1161 q 303 1148 279 1161 q 347 1118 326 1135 q 384 1088 367 1101 q 417 1075 401 1075 q 444 1083 433 1075 q 464 1101 454 1090 l 483 1125 q 503 1144 493 1136 q 531 1151 514 1151 q 579 1124 564 1151 q 594 1068 594 1097 q 587 1013 594 1042 q 563 959 579 983 q 524 919 547 935 q 471 903 501 903 q 419 915 444 903 q 371 942 393 928 q 330 969 349 957 q 299 982 311 982 q 279 972 286 982 q 264 951 272 963 q 244 931 256 940 q 210 921 232 921 q 153 946 172 921 q 133 1007 133 971 q 141 1059 133 1032 q 163 1109 149 1086 q 200 1147 178 1132 q 251 1161 222 1161 m 343 921 q 477 892 421 921 q 572 816 533 864 q 635 706 611 768 q 672 577 658 644 q 689 442 685 510 q 693 315 693 374 q 607 47 693 140 q 343 -46 521 -46 q 104 26 178 -46 q 31 264 31 97 q 35 382 31 314 q 50 523 39 450 q 83 667 61 596 q 139 795 104 739 q 224 886 174 851 q 343 921 274 921 m 264 415 q 267 353 264 392 q 281 276 271 314 q 313 212 292 239 q 367 185 333 185 q 422 211 400 185 q 454 274 443 238 q 469 350 465 311 q 474 414 474 389 q 470 483 474 439 q 456 568 467 526 q 424 640 444 610 q 367 671 403 671 q 311 640 332 671 q 280 568 290 610 q 267 483 269 526 q 264 415 264 440 z "},"":{"ha":726,"x_min":31,"x_max":693,"o":"m 376 1014 q 402 1074 376 1051 q 464 1097 428 1097 q 525 1074 500 1097 q 550 1014 550 1051 q 528 952 550 978 q 469 926 507 926 q 404 951 432 926 q 376 1014 376 975 m 176 1010 q 202 1069 176 1046 q 264 1093 228 1093 q 326 1070 300 1093 q 351 1010 351 1047 q 330 948 351 974 q 271 922 308 922 q 206 947 235 922 q 176 1010 176 972 m 343 921 q 477 892 421 921 q 572 816 533 864 q 635 706 611 768 q 672 577 658 644 q 689 442 685 510 q 693 315 693 374 q 607 47 693 140 q 343 -46 521 -46 q 104 26 178 -46 q 31 264 31 97 q 35 382 31 314 q 50 523 39 450 q 83 667 61 596 q 139 795 104 739 q 224 886 174 851 q 343 921 274 921 m 264 415 q 267 353 264 392 q 281 276 271 314 q 313 212 292 239 q 367 185 333 185 q 422 211 400 185 q 454 274 443 238 q 469 350 465 311 q 474 414 474 389 q 470 483 474 439 q 456 568 467 526 q 424 640 444 610 q 367 671 403 671 q 311 640 332 671 q 280 568 290 610 q 267 483 269 526 q 264 415 264 440 z "},"":{"ha":763,"x_min":74,"x_max":696,"o":"m 274 668 q 307 753 274 722 q 393 785 340 785 q 478 756 443 785 q 514 674 514 726 q 478 592 514 624 q 394 560 443 560 q 310 588 346 560 q 274 668 274 617 m 179 517 q 288 504 235 517 q 397 492 342 492 q 512 499 456 492 q 626 506 568 506 q 656 497 643 506 q 677 474 668 488 q 691 443 686 460 q 696 413 696 426 q 676 360 696 376 q 624 342 657 344 q 428 333 528 333 q 233 333 329 333 q 183 335 211 333 q 131 346 156 338 q 90 372 107 354 q 74 418 74 389 q 104 490 74 464 q 179 517 135 517 m 263 149 q 295 234 263 201 q 381 267 328 267 q 467 238 431 267 q 503 156 503 208 q 467 72 503 104 q 382 39 432 39 q 298 69 333 39 q 263 149 263 99 z "},"":{"ha":726,"x_min":31,"x_max":693,"o":"m 343 921 q 460 900 410 921 q 521 924 488 924 q 590 895 569 924 q 611 822 611 867 q 607 764 611 793 q 651 658 635 715 q 677 542 668 601 q 690 425 686 483 q 693 315 693 367 q 602 42 693 129 q 326 -46 511 -46 q 280 -99 306 -78 q 219 -119 254 -119 q 169 -108 189 -119 q 138 -78 150 -97 q 122 -36 126 -60 q 117 14 117 -12 q 51 111 72 50 q 31 264 31 172 q 35 382 31 314 q 50 523 39 450 q 83 667 61 596 q 139 795 104 739 q 224 886 174 851 q 343 921 274 921 m 264 415 q 267 353 264 392 q 281 276 271 314 q 313 212 292 239 q 367 185 333 185 q 422 211 400 185 q 454 274 443 238 q 469 350 465 311 q 474 414 474 389 q 470 483 474 439 q 456 568 467 526 q 424 640 444 610 q 367 671 403 671 q 311 640 332 671 q 280 568 290 610 q 267 483 269 526 q 264 415 264 440 z "},"":{"ha":718,"x_min":11,"x_max":701,"o":"m 294 1139 q 360 1122 325 1139 q 426 1077 396 1104 q 476 1017 456 1050 q 496 953 496 985 q 480 920 496 928 q 443 913 464 913 q 377 925 415 913 q 305 959 339 938 q 247 1009 271 981 q 222 1069 222 1038 q 244 1118 222 1097 q 294 1139 267 1139 m 19 761 q 49 868 19 824 q 147 913 79 913 q 216 894 190 913 q 256 845 242 875 q 274 779 269 815 q 278 708 278 743 q 267 551 278 629 q 256 394 256 474 q 257 330 256 368 q 268 257 258 292 q 299 197 278 222 q 357 172 319 172 q 426 194 401 172 q 464 250 451 217 q 480 324 476 283 q 483 403 483 365 q 482 474 483 442 q 477 538 481 507 q 468 601 474 569 q 456 671 463 633 q 444 722 450 696 q 439 775 439 749 q 444 846 439 814 q 466 901 450 878 q 509 936 482 924 q 579 949 536 949 q 669 922 638 949 q 701 836 701 896 q 694 749 701 793 q 679 662 688 706 q 664 574 671 618 q 657 486 657 531 q 671 363 657 424 q 685 238 685 301 q 660 103 685 161 q 592 5 636 44 q 488 -55 549 -35 q 353 -75 426 -75 q 222 -65 283 -75 q 113 -26 160 -54 q 38 53 65 3 q 11 185 11 104 q 18 259 11 222 q 33 332 25 296 q 47 405 40 368 q 54 479 54 442 q 51 535 54 507 q 42 592 47 564 l 32 649 q 23 705 26 676 q 19 761 19 733 z "},"":{"ha":718,"x_min":11,"x_max":701,"o":"m 413 1131 q 466 1110 440 1131 q 492 1061 492 1090 q 467 1008 492 1035 q 409 959 443 981 q 339 924 375 938 q 279 911 303 911 q 242 921 258 911 q 226 954 226 931 q 246 1011 226 981 q 294 1068 265 1042 q 355 1113 322 1094 q 413 1131 388 1131 m 19 761 q 49 868 19 824 q 147 913 79 913 q 216 894 190 913 q 256 845 242 875 q 274 779 269 815 q 278 708 278 743 q 267 551 278 629 q 256 394 256 474 q 257 330 256 368 q 268 257 258 292 q 299 197 278 222 q 357 172 319 172 q 426 194 401 172 q 464 250 451 217 q 480 324 476 283 q 483 403 483 365 q 482 474 483 442 q 477 538 481 507 q 468 601 474 569 q 456 671 463 633 q 444 722 450 696 q 439 775 439 749 q 444 846 439 814 q 466 901 450 878 q 509 936 482 924 q 579 949 536 949 q 669 922 638 949 q 701 836 701 896 q 694 749 701 793 q 679 662 688 706 q 664 574 671 618 q 657 486 657 531 q 671 363 657 424 q 685 238 685 301 q 660 103 685 161 q 592 5 636 44 q 488 -55 549 -35 q 353 -75 426 -75 q 222 -65 283 -75 q 113 -26 160 -54 q 38 53 65 3 q 11 185 11 104 q 18 259 11 222 q 33 332 25 296 q 47 405 40 368 q 54 479 54 442 q 51 535 54 507 q 42 592 47 564 l 32 649 q 23 705 26 676 q 19 761 19 733 z "},"":{"ha":718,"x_min":11,"x_max":701,"o":"m 19 761 q 49 868 19 824 q 147 913 79 913 q 216 894 190 913 q 256 845 242 875 q 274 779 269 815 q 278 708 278 743 q 267 551 278 629 q 256 394 256 474 q 257 330 256 368 q 268 257 258 292 q 299 197 278 222 q 357 172 319 172 q 426 194 401 172 q 464 250 451 217 q 480 324 476 283 q 483 403 483 365 q 482 474 483 442 q 477 538 481 507 q 468 601 474 569 q 456 671 463 633 q 444 722 450 696 q 439 775 439 749 q 445 848 439 815 q 468 904 451 881 q 438 919 453 910 q 410 939 424 929 q 383 956 396 949 q 360 963 371 963 q 330 953 344 963 q 300 931 315 943 q 268 908 285 918 q 232 899 251 899 q 189 913 213 899 q 165 949 165 926 q 187 998 165 968 q 238 1056 208 1028 q 298 1106 267 1085 q 347 1126 329 1126 q 410 1110 375 1126 q 478 1067 446 1093 q 531 1008 510 1040 q 553 947 553 976 q 566 949 560 949 q 579 949 572 949 q 669 922 638 949 q 701 836 701 896 q 694 749 701 793 q 679 662 688 706 q 664 574 671 618 q 657 486 657 531 q 671 363 657 424 q 685 238 685 301 q 660 103 685 161 q 592 5 636 44 q 488 -55 549 -35 q 353 -75 426 -75 q 222 -65 283 -75 q 113 -26 160 -54 q 38 53 65 3 q 11 185 11 104 q 18 259 11 222 q 33 332 25 296 q 47 405 40 368 q 54 479 54 442 q 51 535 54 507 q 42 592 47 564 l 32 649 q 23 705 26 676 q 19 761 19 733 z "},"":{"ha":718,"x_min":11,"x_max":701,"o":"m 372 1014 q 398 1074 372 1051 q 460 1097 424 1097 q 521 1074 496 1097 q 546 1014 546 1051 q 524 952 546 978 q 465 926 503 926 q 400 951 428 926 q 372 1014 372 975 m 172 1010 q 198 1069 172 1046 q 260 1093 224 1093 q 322 1070 296 1093 q 347 1010 347 1047 q 326 948 347 974 q 267 922 304 922 q 201 947 231 922 q 172 1010 172 972 m 19 761 q 49 868 19 824 q 147 913 79 913 q 216 894 190 913 q 256 845 242 875 q 274 779 269 815 q 278 708 278 743 q 267 551 278 629 q 256 394 256 474 q 257 330 256 368 q 268 257 258 292 q 299 197 278 222 q 357 172 319 172 q 426 194 401 172 q 464 250 451 217 q 480 324 476 283 q 483 403 483 365 q 482 474 483 442 q 477 538 481 507 q 468 601 474 569 q 456 671 463 633 q 444 722 450 696 q 439 775 439 749 q 444 846 439 814 q 466 901 450 878 q 509 936 482 924 q 579 949 536 949 q 669 922 638 949 q 701 836 701 896 q 694 749 701 793 q 679 662 688 706 q 664 574 671 618 q 657 486 657 531 q 671 363 657 424 q 685 238 685 301 q 660 103 685 161 q 592 5 636 44 q 488 -55 549 -35 q 353 -75 426 -75 q 222 -65 283 -75 q 113 -26 160 -54 q 38 53 65 3 q 11 185 11 104 q 18 259 11 222 q 33 332 25 296 q 47 405 40 368 q 54 479 54 442 q 51 535 54 507 q 42 592 47 564 l 32 649 q 23 705 26 676 q 19 761 19 733 z "},"":{"ha":683,"x_min":28,"x_max":663,"o":"m 396 1131 q 449 1110 424 1131 q 475 1061 475 1090 q 451 1008 475 1035 q 392 959 426 981 q 322 924 358 938 q 263 911 286 911 q 226 921 242 911 q 210 954 210 931 q 229 1011 210 981 q 277 1068 249 1042 q 338 1113 306 1094 q 396 1131 371 1131 m 153 913 q 235 885 204 913 q 267 806 267 858 q 253 708 267 756 q 240 610 240 660 q 260 537 240 565 q 328 508 279 508 q 394 521 369 508 q 431 556 418 533 q 448 608 444 578 q 451 674 451 639 q 449 734 451 704 q 446 794 446 764 q 467 890 446 851 q 551 928 488 928 q 605 913 583 928 q 639 874 626 897 q 657 823 651 851 q 663 768 663 794 q 659 723 663 744 q 650 681 656 701 l 640 639 q 631 597 635 618 q 628 551 628 575 q 632 500 628 525 q 639 450 636 475 q 647 374 644 411 q 649 297 649 336 q 631 142 649 213 q 573 22 613 72 q 469 -56 533 -29 q 314 -83 406 -83 q 235 -74 272 -83 q 168 -45 197 -65 q 122 8 139 -25 q 106 88 106 40 q 108 126 106 107 q 119 161 111 146 q 142 186 128 176 q 182 196 157 196 q 258 182 221 196 q 333 168 294 168 q 389 183 368 168 q 420 220 410 197 q 434 272 431 243 q 438 329 438 301 q 431 351 438 342 q 410 360 424 360 q 378 351 394 360 q 342 331 363 342 q 294 310 322 319 q 226 301 267 301 q 110 335 150 301 q 51 421 69 369 q 31 534 33 472 q 28 651 28 596 q 30 731 28 686 q 44 817 32 776 q 81 885 56 857 q 153 913 106 913 z "},"":{"ha":749,"x_min":47,"x_max":732,"o":"m 208 918 q 268 906 250 918 q 294 875 286 893 q 308 836 301 857 q 332 797 314 815 q 397 765 357 774 q 481 751 436 757 q 569 733 525 744 q 650 690 614 721 q 709 600 686 658 q 732 443 732 542 q 710 292 732 347 q 652 210 688 238 q 574 174 617 182 q 488 161 531 165 q 408 151 444 157 q 349 119 371 144 q 329 84 335 104 q 321 42 324 64 q 316 0 318 21 q 305 -37 314 -21 q 278 -64 296 -54 q 229 -74 261 -74 q 165 -54 193 -74 q 116 -3 136 -35 q 83 69 96 29 q 62 150 69 110 q 51 228 54 190 q 47 293 47 267 q 48 324 47 308 q 50 354 49 339 q 54 467 54 406 q 56 592 54 529 q 64 714 58 654 q 86 821 69 774 q 129 894 103 869 q 208 918 156 918 m 426 592 q 376 580 396 592 q 347 549 357 568 q 333 506 336 531 q 329 456 329 481 q 326 402 329 428 q 324 350 324 376 q 337 324 324 329 q 367 318 350 318 q 479 364 443 318 q 515 482 515 410 q 497 560 515 528 q 426 592 478 592 z "},"":{"ha":683,"x_min":28,"x_max":663,"o":"m 356 1014 q 381 1074 356 1051 q 443 1097 407 1097 q 504 1074 479 1097 q 529 1014 529 1051 q 508 952 529 978 q 449 926 486 926 q 383 951 411 926 q 356 1014 356 975 m 156 1010 q 181 1069 156 1046 q 243 1093 207 1093 q 305 1070 279 1093 q 331 1010 331 1047 q 309 948 331 974 q 250 922 288 922 q 185 947 214 922 q 156 1010 156 972 m 153 913 q 235 885 204 913 q 267 806 267 858 q 253 708 267 756 q 240 610 240 660 q 260 537 240 565 q 328 508 279 508 q 394 521 369 508 q 431 556 418 533 q 448 608 444 578 q 451 674 451 639 q 449 734 451 704 q 446 794 446 764 q 467 890 446 851 q 551 928 488 928 q 605 913 583 928 q 639 874 626 897 q 657 823 651 851 q 663 768 663 794 q 659 723 663 744 q 650 681 656 701 l 640 639 q 631 597 635 618 q 628 551 628 575 q 632 500 628 525 q 639 450 636 475 q 647 374 644 411 q 649 297 649 336 q 631 142 649 213 q 573 22 613 72 q 469 -56 533 -29 q 314 -83 406 -83 q 235 -74 272 -83 q 168 -45 197 -65 q 122 8 139 -25 q 106 88 106 40 q 108 126 106 107 q 119 161 111 146 q 142 186 128 176 q 182 196 157 196 q 258 182 221 196 q 333 168 294 168 q 389 183 368 168 q 420 220 410 197 q 434 272 431 243 q 438 329 438 301 q 431 351 438 342 q 410 360 424 360 q 378 351 394 360 q 342 331 363 342 q 294 310 322 319 q 226 301 267 301 q 110 335 150 301 q 51 421 69 369 q 31 534 33 472 q 28 651 28 596 q 30 731 28 686 q 44 817 32 776 q 81 885 56 857 q 153 913 106 913 z "},"":{"ha":746,"x_min":-56,"x_max":714,"o":"m 29 794 q 46 871 29 844 q 90 908 63 897 q 155 919 118 918 q 232 919 192 919 q 443 873 353 919 q 594 749 533 826 q 684 569 654 671 q 714 356 714 467 q 678 172 714 251 q 581 37 643 92 q 434 -47 519 -18 q 249 -75 349 -75 q 160 -70 203 -75 q 85 -48 117 -65 q 33 3 53 -31 q 14 92 14 36 q 28 221 14 158 q 54 347 43 283 q -23 385 10 360 q -56 456 -56 411 q -46 494 -56 479 q -20 519 -36 510 q 16 534 -4 529 q 56 540 36 539 q 37 667 44 604 q 29 794 29 729 m 339 682 q 297 663 307 682 q 279 617 286 643 q 267 538 271 581 q 322 535 290 538 q 383 523 354 532 q 433 497 413 514 q 454 447 454 479 q 436 401 454 421 q 390 369 418 382 q 329 348 363 356 q 264 336 296 340 q 266 313 265 325 q 268 289 267 300 q 271 252 269 272 q 277 213 272 232 q 294 182 282 194 q 329 169 307 169 q 402 193 374 169 q 447 252 431 217 q 468 328 463 288 q 474 404 474 369 q 468 481 474 433 q 447 572 463 528 q 406 649 432 617 q 339 682 379 682 z "},"":{"ha":746,"x_min":-24,"x_max":714,"o":"m 29 794 q 46 871 29 844 q 90 908 63 897 q 155 919 118 918 q 232 919 192 919 q 443 873 353 919 q 594 749 533 826 q 684 569 654 671 q 714 356 714 467 q 678 172 714 251 q 581 37 643 92 q 434 -47 519 -18 q 249 -75 349 -75 q 160 -70 203 -75 q 85 -48 117 -65 q 33 3 53 -31 q 14 92 14 36 q 21 174 14 133 q 36 253 28 214 q 52 333 44 293 q 63 414 60 374 q 1 443 26 422 q -24 504 -24 464 q -2 559 -24 542 q 49 583 19 576 q 35 689 40 636 q 29 794 29 742 m 339 682 q 297 663 307 682 q 279 617 286 643 q 275 602 276 610 q 272 586 274 594 q 320 582 296 586 q 363 569 344 578 q 394 543 382 560 q 406 501 406 526 q 400 463 406 479 q 350 425 392 438 q 263 408 308 413 q 264 349 263 378 q 268 289 265 319 q 271 252 269 272 q 277 213 272 232 q 294 182 282 194 q 329 169 307 169 q 402 193 374 169 q 447 252 431 217 q 468 328 463 288 q 474 404 474 369 q 468 481 474 433 q 447 572 463 528 q 406 649 432 617 q 339 682 379 682 z "},"":{"ha":329,"x_min":28,"x_max":300,"o":"m 161 858 q 258 817 232 858 q 285 711 285 776 q 278 593 285 651 q 271 475 271 535 q 285 317 271 396 q 300 160 300 239 q 294 92 300 128 q 274 25 289 56 q 235 -26 260 -6 q 169 -46 210 -46 q 102 -32 129 -46 q 58 6 75 -18 q 35 61 42 29 q 28 129 28 93 q 31 167 28 149 q 38 204 35 185 q 58 325 49 265 q 67 447 67 385 q 57 577 67 514 q 47 707 47 640 q 51 765 47 738 q 68 814 56 793 q 103 847 81 835 q 161 858 125 858 z "},"":{"ha":572,"x_min":-65,"x_max":571,"o":"m 131 908 q 182 900 158 908 q 222 869 206 892 q 247 814 239 849 q 260 741 256 779 q 265 665 264 703 q 265 601 265 628 q 300 622 283 613 q 336 640 317 632 q 376 658 356 650 q 418 665 397 665 q 469 643 450 665 q 488 590 488 621 q 460 525 488 556 q 396 469 433 494 q 319 425 358 444 q 254 393 279 406 q 252 343 253 368 q 251 293 251 318 q 253 251 251 275 q 260 207 254 228 q 279 172 267 186 q 314 157 292 157 q 365 163 344 157 q 400 178 385 169 q 429 192 415 186 q 461 199 443 199 q 513 187 492 199 q 547 155 533 175 q 565 110 560 135 q 571 58 571 85 q 552 -14 571 11 q 503 -51 533 -39 q 436 -65 472 -62 q 364 -67 400 -67 q 326 -67 344 -67 q 288 -64 307 -67 q 210 -61 257 -61 q 117 -53 163 -61 q 40 -24 72 -44 q 7 43 7 -3 q 23 182 7 114 q 50 321 39 250 q -12 326 15 318 q -54 363 -40 335 q -65 406 -65 385 q -57 438 -65 424 q -35 463 -49 451 q -5 485 -22 475 q 29 503 13 494 q 40 508 35 506 q 50 513 44 510 l 42 554 l 29 622 q 17 689 22 656 q 13 757 13 722 q 18 815 13 788 q 37 864 24 843 q 73 897 50 885 q 131 908 96 908 z "},"":{"ha":572,"x_min":-50,"x_max":571,"o":"m 131 908 q 182 900 158 908 q 222 869 206 892 q 247 815 238 849 q 260 743 256 781 q 265 669 264 706 q 265 607 265 632 q 307 631 286 618 q 350 654 328 643 q 390 672 369 664 q 432 679 411 679 q 483 656 464 679 q 501 603 501 633 q 474 539 501 569 q 410 483 447 508 q 333 439 372 458 q 268 407 293 419 q 262 404 265 406 q 254 400 258 403 q 252 347 253 372 q 251 293 251 321 q 253 251 251 275 q 260 207 254 228 q 279 172 267 186 q 314 157 292 157 q 365 163 344 157 q 400 178 385 169 q 429 192 415 186 q 461 199 443 199 q 513 187 492 199 q 547 155 533 175 q 565 110 560 135 q 571 58 571 85 q 552 -14 571 11 q 503 -51 533 -39 q 436 -65 472 -62 q 364 -67 400 -67 q 326 -67 344 -67 q 288 -64 307 -67 q 210 -61 257 -61 q 117 -53 163 -61 q 40 -24 72 -44 q 7 43 7 -3 q 24 189 7 118 q 51 333 40 260 q -3 341 21 332 q -39 375 -26 350 q -50 418 -50 397 q -21 476 -50 454 q 43 515 8 497 q 46 517 44 517 q 49 518 47 517 q 46 536 47 528 q 42 554 44 544 l 29 622 q 17 689 22 656 q 13 757 13 722 q 18 815 13 788 q 37 864 24 843 q 73 897 50 885 q 131 908 96 908 z "},"":{"ha":1124,"x_min":31,"x_max":1106,"o":"m 343 921 q 435 908 393 921 q 510 874 476 896 q 547 904 524 893 q 606 915 569 915 q 662 913 633 915 q 718 911 690 911 q 794 913 757 911 q 871 915 832 915 q 937 913 901 915 q 1003 898 972 910 q 1053 863 1033 886 q 1074 800 1074 840 q 1068 742 1074 769 q 1049 692 1063 714 q 1012 658 1035 671 q 954 646 989 646 q 919 650 936 646 q 886 661 903 654 l 853 674 q 819 685 836 681 q 785 689 803 689 q 747 679 761 689 q 726 654 733 669 q 716 619 718 639 q 714 581 714 600 q 720 536 714 551 q 739 515 726 521 q 771 510 751 510 q 815 510 790 510 q 871 512 843 510 q 926 514 899 514 q 964 513 944 514 q 999 504 983 511 q 1026 484 1015 497 q 1036 447 1036 471 q 1019 398 1036 417 q 978 369 1003 379 q 926 357 954 360 q 875 354 899 354 q 837 356 856 354 q 801 358 818 358 q 749 344 769 358 q 729 282 729 331 q 750 199 729 231 q 828 168 771 168 q 908 181 868 168 q 988 194 947 194 q 1073 160 1040 194 q 1106 75 1106 126 q 1074 -3 1106 25 q 999 -47 1043 -32 q 906 -65 954 -61 q 821 -68 857 -68 q 658 -58 733 -68 q 532 -7 582 -49 q 343 -46 454 -46 q 104 26 178 -46 q 31 264 31 97 q 35 382 31 314 q 50 523 39 450 q 83 667 61 596 q 139 795 104 739 q 224 886 174 851 q 343 921 274 921 m 264 415 q 267 353 264 392 q 281 276 271 314 q 313 212 292 239 q 367 185 333 185 q 422 211 400 185 q 454 274 443 238 q 469 350 465 311 q 474 414 474 389 q 470 483 474 439 q 456 568 467 526 q 424 640 444 610 q 367 671 403 671 q 311 640 332 671 q 280 568 290 610 q 267 483 269 526 q 264 415 264 440 z "},"":{"ha":1124,"x_min":31,"x_max":1106,"o":"m 343 921 q 435 908 393 921 q 510 874 476 896 q 547 904 524 893 q 606 915 569 915 q 662 913 633 915 q 718 911 690 911 q 794 913 757 911 q 871 915 832 915 q 937 913 901 915 q 1003 898 972 910 q 1053 863 1033 886 q 1074 800 1074 840 q 1068 742 1074 769 q 1049 692 1063 714 q 1012 658 1035 671 q 954 646 989 646 q 919 650 936 646 q 886 661 903 654 l 853 674 q 819 685 836 681 q 785 689 803 689 q 747 679 761 689 q 726 654 733 669 q 716 619 718 639 q 714 581 714 600 q 720 536 714 551 q 739 515 726 521 q 771 510 751 510 q 815 510 790 510 q 871 512 843 510 q 926 514 899 514 q 964 513 944 514 q 999 504 983 511 q 1026 484 1015 497 q 1036 447 1036 471 q 1019 398 1036 417 q 978 369 1003 379 q 926 357 954 360 q 875 354 899 354 q 837 356 856 354 q 801 358 818 358 q 749 344 769 358 q 729 282 729 331 q 750 199 729 231 q 828 168 771 168 q 908 181 868 168 q 988 194 947 194 q 1073 160 1040 194 q 1106 75 1106 126 q 1074 -3 1106 25 q 999 -47 1043 -32 q 906 -65 954 -61 q 821 -68 857 -68 q 658 -58 733 -68 q 532 -7 582 -49 q 343 -46 454 -46 q 104 26 178 -46 q 31 264 31 97 q 35 382 31 314 q 50 523 39 450 q 83 667 61 596 q 139 795 104 739 q 224 886 174 851 q 343 921 274 921 m 264 415 q 267 353 264 392 q 281 276 271 314 q 313 212 292 239 q 367 185 333 185 q 422 211 400 185 q 454 274 443 238 q 469 350 465 311 q 474 414 474 389 q 470 483 474 439 q 456 568 467 526 q 424 640 444 610 q 367 671 403 671 q 311 640 332 671 q 280 568 290 610 q 267 483 269 526 q 264 415 264 440 z "}}}
